G04 #@! TF.GenerationSoftware,KiCad,Pcbnew,(5.1.4)-1*
G04 #@! TF.CreationDate,2020-09-24T22:51:37-04:00*
G04 #@! TF.ProjectId,EBoard Sidecar,45426f61-7264-4205-9369-64656361722e,rev?*
G04 #@! TF.SameCoordinates,Original*
G04 #@! TF.FileFunction,Soldermask,Bot*
G04 #@! TF.FilePolarity,Negative*
%FSLAX46Y46*%
G04 Gerber Fmt 4.6, Leading zero omitted, Abs format (unit mm)*
G04 Created by KiCad (PCBNEW (5.1.4)-1) date 2020-09-24 22:51:37*
%MOMM*%
%LPD*%
G04 APERTURE LIST*
%ADD10O,5.101600X2.101600*%
%ADD11R,1.801600X1.801600*%
%ADD12O,1.801600X1.801600*%
%ADD13O,1.801600X2.101600*%
%ADD14C,0.100000*%
%ADD15C,1.801600*%
%ADD16C,1.625600*%
%ADD17R,1.625600X1.625600*%
%ADD18C,1.101600*%
%ADD19O,1.301600X2.501600*%
%ADD20O,1.301600X2.701600*%
%ADD21O,1.801600X2.051600*%
%ADD22C,4.601601*%
%ADD23O,2.701600X1.401600*%
%ADD24O,2.501600X1.301600*%
%ADD25C,1.701600*%
%ADD26R,1.701600X1.701600*%
%ADD27C,2.601600*%
%ADD28C,0.851600*%
%ADD29C,0.701600*%
G04 APERTURE END LIST*
D10*
X178750000Y-127500000D03*
X178750000Y-92500000D03*
X96250000Y-120000000D03*
X96250000Y-100000000D03*
D11*
X173540000Y-121500000D03*
D12*
X171000000Y-121500000D03*
X173540000Y-118960000D03*
X171000000Y-118960000D03*
X173540000Y-116420000D03*
X171000000Y-116420000D03*
X173540000Y-113880000D03*
X171000000Y-113880000D03*
X173540000Y-111340000D03*
X171000000Y-111340000D03*
D13*
X141000000Y-79000000D03*
D14*
G36*
X144161828Y-77950476D02*
G01*
X144187546Y-77954291D01*
X144212767Y-77960608D01*
X144237248Y-77969367D01*
X144260751Y-77980484D01*
X144283052Y-77993851D01*
X144303936Y-78009339D01*
X144323201Y-78026799D01*
X144340661Y-78046064D01*
X144356149Y-78066948D01*
X144369516Y-78089249D01*
X144380633Y-78112752D01*
X144389392Y-78137233D01*
X144395709Y-78162454D01*
X144399524Y-78188172D01*
X144400800Y-78214141D01*
X144400800Y-79785859D01*
X144399524Y-79811828D01*
X144395709Y-79837546D01*
X144389392Y-79862767D01*
X144380633Y-79887248D01*
X144369516Y-79910751D01*
X144356149Y-79933052D01*
X144340661Y-79953936D01*
X144323201Y-79973201D01*
X144303936Y-79990661D01*
X144283052Y-80006149D01*
X144260751Y-80019516D01*
X144237248Y-80030633D01*
X144212767Y-80039392D01*
X144187546Y-80045709D01*
X144161828Y-80049524D01*
X144135859Y-80050800D01*
X142864141Y-80050800D01*
X142838172Y-80049524D01*
X142812454Y-80045709D01*
X142787233Y-80039392D01*
X142762752Y-80030633D01*
X142739249Y-80019516D01*
X142716948Y-80006149D01*
X142696064Y-79990661D01*
X142676799Y-79973201D01*
X142659339Y-79953936D01*
X142643851Y-79933052D01*
X142630484Y-79910751D01*
X142619367Y-79887248D01*
X142610608Y-79862767D01*
X142604291Y-79837546D01*
X142600476Y-79811828D01*
X142599200Y-79785859D01*
X142599200Y-78214141D01*
X142600476Y-78188172D01*
X142604291Y-78162454D01*
X142610608Y-78137233D01*
X142619367Y-78112752D01*
X142630484Y-78089249D01*
X142643851Y-78066948D01*
X142659339Y-78046064D01*
X142676799Y-78026799D01*
X142696064Y-78009339D01*
X142716948Y-77993851D01*
X142739249Y-77980484D01*
X142762752Y-77969367D01*
X142787233Y-77960608D01*
X142812454Y-77954291D01*
X142838172Y-77950476D01*
X142864141Y-77949200D01*
X144135859Y-77949200D01*
X144161828Y-77950476D01*
X144161828Y-77950476D01*
G37*
D15*
X143500000Y-79000000D03*
D13*
X131500000Y-79000000D03*
D14*
G36*
X134661828Y-77950476D02*
G01*
X134687546Y-77954291D01*
X134712767Y-77960608D01*
X134737248Y-77969367D01*
X134760751Y-77980484D01*
X134783052Y-77993851D01*
X134803936Y-78009339D01*
X134823201Y-78026799D01*
X134840661Y-78046064D01*
X134856149Y-78066948D01*
X134869516Y-78089249D01*
X134880633Y-78112752D01*
X134889392Y-78137233D01*
X134895709Y-78162454D01*
X134899524Y-78188172D01*
X134900800Y-78214141D01*
X134900800Y-79785859D01*
X134899524Y-79811828D01*
X134895709Y-79837546D01*
X134889392Y-79862767D01*
X134880633Y-79887248D01*
X134869516Y-79910751D01*
X134856149Y-79933052D01*
X134840661Y-79953936D01*
X134823201Y-79973201D01*
X134803936Y-79990661D01*
X134783052Y-80006149D01*
X134760751Y-80019516D01*
X134737248Y-80030633D01*
X134712767Y-80039392D01*
X134687546Y-80045709D01*
X134661828Y-80049524D01*
X134635859Y-80050800D01*
X133364141Y-80050800D01*
X133338172Y-80049524D01*
X133312454Y-80045709D01*
X133287233Y-80039392D01*
X133262752Y-80030633D01*
X133239249Y-80019516D01*
X133216948Y-80006149D01*
X133196064Y-79990661D01*
X133176799Y-79973201D01*
X133159339Y-79953936D01*
X133143851Y-79933052D01*
X133130484Y-79910751D01*
X133119367Y-79887248D01*
X133110608Y-79862767D01*
X133104291Y-79837546D01*
X133100476Y-79811828D01*
X133099200Y-79785859D01*
X133099200Y-78214141D01*
X133100476Y-78188172D01*
X133104291Y-78162454D01*
X133110608Y-78137233D01*
X133119367Y-78112752D01*
X133130484Y-78089249D01*
X133143851Y-78066948D01*
X133159339Y-78046064D01*
X133176799Y-78026799D01*
X133196064Y-78009339D01*
X133216948Y-77993851D01*
X133239249Y-77980484D01*
X133262752Y-77969367D01*
X133287233Y-77960608D01*
X133312454Y-77954291D01*
X133338172Y-77950476D01*
X133364141Y-77949200D01*
X134635859Y-77949200D01*
X134661828Y-77950476D01*
X134661828Y-77950476D01*
G37*
D15*
X134000000Y-79000000D03*
D16*
X168620000Y-80040000D03*
X168620000Y-77500000D03*
X166080000Y-80040000D03*
X166080000Y-77500000D03*
X163540000Y-80040000D03*
X163540000Y-77500000D03*
X161000000Y-80040000D03*
D17*
X161000000Y-77500000D03*
D18*
X160500000Y-111600000D03*
X160500000Y-110000000D03*
X160500000Y-108400000D03*
X161500000Y-109200000D03*
X161500000Y-110800000D03*
D19*
X159250000Y-111900000D03*
X162750000Y-110000000D03*
D20*
X159250000Y-107600000D03*
D21*
X151000000Y-134500000D03*
X148500000Y-134500000D03*
X146000000Y-134500000D03*
D14*
G36*
X144161828Y-133475476D02*
G01*
X144187546Y-133479291D01*
X144212767Y-133485608D01*
X144237248Y-133494367D01*
X144260751Y-133505484D01*
X144283052Y-133518851D01*
X144303936Y-133534339D01*
X144323201Y-133551799D01*
X144340661Y-133571064D01*
X144356149Y-133591948D01*
X144369516Y-133614249D01*
X144380633Y-133637752D01*
X144389392Y-133662233D01*
X144395709Y-133687454D01*
X144399524Y-133713172D01*
X144400800Y-133739141D01*
X144400800Y-135260859D01*
X144399524Y-135286828D01*
X144395709Y-135312546D01*
X144389392Y-135337767D01*
X144380633Y-135362248D01*
X144369516Y-135385751D01*
X144356149Y-135408052D01*
X144340661Y-135428936D01*
X144323201Y-135448201D01*
X144303936Y-135465661D01*
X144283052Y-135481149D01*
X144260751Y-135494516D01*
X144237248Y-135505633D01*
X144212767Y-135514392D01*
X144187546Y-135520709D01*
X144161828Y-135524524D01*
X144135859Y-135525800D01*
X142864141Y-135525800D01*
X142838172Y-135524524D01*
X142812454Y-135520709D01*
X142787233Y-135514392D01*
X142762752Y-135505633D01*
X142739249Y-135494516D01*
X142716948Y-135481149D01*
X142696064Y-135465661D01*
X142676799Y-135448201D01*
X142659339Y-135428936D01*
X142643851Y-135408052D01*
X142630484Y-135385751D01*
X142619367Y-135362248D01*
X142610608Y-135337767D01*
X142604291Y-135312546D01*
X142600476Y-135286828D01*
X142599200Y-135260859D01*
X142599200Y-133739141D01*
X142600476Y-133713172D01*
X142604291Y-133687454D01*
X142610608Y-133662233D01*
X142619367Y-133637752D01*
X142630484Y-133614249D01*
X142643851Y-133591948D01*
X142659339Y-133571064D01*
X142676799Y-133551799D01*
X142696064Y-133534339D01*
X142716948Y-133518851D01*
X142739249Y-133505484D01*
X142762752Y-133494367D01*
X142787233Y-133485608D01*
X142812454Y-133479291D01*
X142838172Y-133475476D01*
X142864141Y-133474200D01*
X144135859Y-133474200D01*
X144161828Y-133475476D01*
X144161828Y-133475476D01*
G37*
D15*
X143500000Y-134500000D03*
D21*
X151000000Y-142000000D03*
X148500000Y-142000000D03*
D14*
G36*
X146661828Y-140975476D02*
G01*
X146687546Y-140979291D01*
X146712767Y-140985608D01*
X146737248Y-140994367D01*
X146760751Y-141005484D01*
X146783052Y-141018851D01*
X146803936Y-141034339D01*
X146823201Y-141051799D01*
X146840661Y-141071064D01*
X146856149Y-141091948D01*
X146869516Y-141114249D01*
X146880633Y-141137752D01*
X146889392Y-141162233D01*
X146895709Y-141187454D01*
X146899524Y-141213172D01*
X146900800Y-141239141D01*
X146900800Y-142760859D01*
X146899524Y-142786828D01*
X146895709Y-142812546D01*
X146889392Y-142837767D01*
X146880633Y-142862248D01*
X146869516Y-142885751D01*
X146856149Y-142908052D01*
X146840661Y-142928936D01*
X146823201Y-142948201D01*
X146803936Y-142965661D01*
X146783052Y-142981149D01*
X146760751Y-142994516D01*
X146737248Y-143005633D01*
X146712767Y-143014392D01*
X146687546Y-143020709D01*
X146661828Y-143024524D01*
X146635859Y-143025800D01*
X145364141Y-143025800D01*
X145338172Y-143024524D01*
X145312454Y-143020709D01*
X145287233Y-143014392D01*
X145262752Y-143005633D01*
X145239249Y-142994516D01*
X145216948Y-142981149D01*
X145196064Y-142965661D01*
X145176799Y-142948201D01*
X145159339Y-142928936D01*
X145143851Y-142908052D01*
X145130484Y-142885751D01*
X145119367Y-142862248D01*
X145110608Y-142837767D01*
X145104291Y-142812546D01*
X145100476Y-142786828D01*
X145099200Y-142760859D01*
X145099200Y-141239141D01*
X145100476Y-141213172D01*
X145104291Y-141187454D01*
X145110608Y-141162233D01*
X145119367Y-141137752D01*
X145130484Y-141114249D01*
X145143851Y-141091948D01*
X145159339Y-141071064D01*
X145176799Y-141051799D01*
X145196064Y-141034339D01*
X145216948Y-141018851D01*
X145239249Y-141005484D01*
X145262752Y-140994367D01*
X145287233Y-140985608D01*
X145312454Y-140979291D01*
X145338172Y-140975476D01*
X145364141Y-140974200D01*
X146635859Y-140974200D01*
X146661828Y-140975476D01*
X146661828Y-140975476D01*
G37*
D15*
X146000000Y-142000000D03*
D22*
X107650000Y-79900000D03*
X107650000Y-87100000D03*
D23*
X101650000Y-76750000D03*
X101650000Y-90250000D03*
D21*
X139500000Y-142000000D03*
X137000000Y-142000000D03*
X134500000Y-142000000D03*
X132000000Y-142000000D03*
D14*
G36*
X130161828Y-140975476D02*
G01*
X130187546Y-140979291D01*
X130212767Y-140985608D01*
X130237248Y-140994367D01*
X130260751Y-141005484D01*
X130283052Y-141018851D01*
X130303936Y-141034339D01*
X130323201Y-141051799D01*
X130340661Y-141071064D01*
X130356149Y-141091948D01*
X130369516Y-141114249D01*
X130380633Y-141137752D01*
X130389392Y-141162233D01*
X130395709Y-141187454D01*
X130399524Y-141213172D01*
X130400800Y-141239141D01*
X130400800Y-142760859D01*
X130399524Y-142786828D01*
X130395709Y-142812546D01*
X130389392Y-142837767D01*
X130380633Y-142862248D01*
X130369516Y-142885751D01*
X130356149Y-142908052D01*
X130340661Y-142928936D01*
X130323201Y-142948201D01*
X130303936Y-142965661D01*
X130283052Y-142981149D01*
X130260751Y-142994516D01*
X130237248Y-143005633D01*
X130212767Y-143014392D01*
X130187546Y-143020709D01*
X130161828Y-143024524D01*
X130135859Y-143025800D01*
X128864141Y-143025800D01*
X128838172Y-143024524D01*
X128812454Y-143020709D01*
X128787233Y-143014392D01*
X128762752Y-143005633D01*
X128739249Y-142994516D01*
X128716948Y-142981149D01*
X128696064Y-142965661D01*
X128676799Y-142948201D01*
X128659339Y-142928936D01*
X128643851Y-142908052D01*
X128630484Y-142885751D01*
X128619367Y-142862248D01*
X128610608Y-142837767D01*
X128604291Y-142812546D01*
X128600476Y-142786828D01*
X128599200Y-142760859D01*
X128599200Y-141239141D01*
X128600476Y-141213172D01*
X128604291Y-141187454D01*
X128610608Y-141162233D01*
X128619367Y-141137752D01*
X128630484Y-141114249D01*
X128643851Y-141091948D01*
X128659339Y-141071064D01*
X128676799Y-141051799D01*
X128696064Y-141034339D01*
X128716948Y-141018851D01*
X128739249Y-141005484D01*
X128762752Y-140994367D01*
X128787233Y-140985608D01*
X128812454Y-140979291D01*
X128838172Y-140975476D01*
X128864141Y-140974200D01*
X130135859Y-140974200D01*
X130161828Y-140975476D01*
X130161828Y-140975476D01*
G37*
D15*
X129500000Y-142000000D03*
D22*
X116350000Y-140100000D03*
X116350000Y-132900000D03*
D24*
X110350000Y-143250000D03*
X110350000Y-129750000D03*
D25*
X137500000Y-104500000D03*
D26*
X137500000Y-102000000D03*
D16*
X119500000Y-81000000D03*
X119500000Y-86000000D03*
X119500000Y-107000000D03*
X119500000Y-112000000D03*
X119500000Y-120000000D03*
X119500000Y-125000000D03*
X119500000Y-94000000D03*
X119500000Y-99000000D03*
D27*
X161000000Y-136000000D03*
X171000000Y-136000000D03*
D28*
X127000000Y-143800000D03*
X135400000Y-126200000D03*
X135400000Y-124900000D03*
X134875000Y-136025000D03*
X138875000Y-134075000D03*
X132200000Y-124200000D03*
X133000000Y-119800000D03*
X159600000Y-88000000D03*
X159625000Y-93825000D03*
X173400000Y-88100000D03*
X173300000Y-93800000D03*
X159200000Y-91900000D03*
X168800000Y-90400000D03*
X165000000Y-101800000D03*
X169000000Y-101800000D03*
X165050000Y-140450000D03*
X161000000Y-132900000D03*
X172300000Y-126500000D03*
X155000000Y-128900000D03*
X151500000Y-125500000D03*
X148800000Y-122700000D03*
X143700000Y-109200000D03*
X142400000Y-114800000D03*
X141600000Y-119600000D03*
X142900000Y-117600000D03*
X148800000Y-117300000D03*
X155400000Y-120900000D03*
X155000000Y-109300000D03*
X150600000Y-110700000D03*
X151400000Y-107400000D03*
X140500000Y-106300000D03*
X130875000Y-112375000D03*
X126500000Y-90600000D03*
X126500000Y-91800000D03*
X138500000Y-90600000D03*
X138500000Y-91800000D03*
X131000000Y-100200000D03*
X132000000Y-100200000D03*
X142900000Y-100100000D03*
X144100000Y-100100000D03*
X143100000Y-132500000D03*
X144300000Y-132500000D03*
X139000000Y-124900000D03*
X135000000Y-114600000D03*
X146000000Y-117600000D03*
X144900000Y-117600000D03*
X147100000Y-117600000D03*
X146000000Y-120700000D03*
X147100000Y-120700000D03*
X144900000Y-120700000D03*
X150000000Y-109250000D03*
X148000000Y-109250000D03*
X149000000Y-109250000D03*
X157000000Y-100750000D03*
X158000000Y-100750000D03*
X159000000Y-100750000D03*
X128800000Y-131400000D03*
X128800000Y-132500000D03*
X126500000Y-87500000D03*
X127800000Y-99900000D03*
X138500000Y-87500000D03*
X139800000Y-99900000D03*
X164100000Y-105200000D03*
X164100000Y-101200000D03*
X168000000Y-104700000D03*
X168000000Y-101200000D03*
X142400000Y-112800000D03*
X155800000Y-119600000D03*
X154900000Y-118700000D03*
X144800000Y-109200000D03*
X127800000Y-98600000D03*
X134350000Y-103250000D03*
X165900000Y-82800000D03*
X128300000Y-113250000D03*
X138200000Y-114100000D03*
X128300000Y-111500000D03*
X138200000Y-112800000D03*
D29*
X119500000Y-127400000D03*
X112892000Y-126500000D03*
D28*
X127000000Y-112550000D03*
X122350000Y-122000000D03*
M02*
