G04 #@! TF.GenerationSoftware,KiCad,Pcbnew,(5.1.4)-1*
G04 #@! TF.CreationDate,2020-09-24T22:32:13-04:00*
G04 #@! TF.ProjectId,Taillight,5461696c-6c69-4676-9874-2e6b69636164,rev?*
G04 #@! TF.SameCoordinates,Original*
G04 #@! TF.FileFunction,Copper,L2,Bot*
G04 #@! TF.FilePolarity,Positive*
%FSLAX46Y46*%
G04 Gerber Fmt 4.6, Leading zero omitted, Abs format (unit mm)*
G04 Created by KiCad (PCBNEW (5.1.4)-1) date 2020-09-24 22:32:13*
%MOMM*%
%LPD*%
G04 APERTURE LIST*
%ADD10R,2.000000X3.800000*%
%ADD11C,0.800000*%
%ADD12C,6.400000*%
%ADD13C,1.270000*%
%ADD14C,0.762000*%
%ADD15C,0.152400*%
G04 APERTURE END LIST*
D10*
X116500000Y-93000000D03*
X120000000Y-93000000D03*
D11*
X131697056Y-107302944D03*
X130000000Y-106600000D03*
X128302944Y-107302944D03*
X127600000Y-109000000D03*
X128302944Y-110697056D03*
X130000000Y-111400000D03*
X131697056Y-110697056D03*
X132400000Y-109000000D03*
D12*
X130000000Y-109000000D03*
D11*
X71697056Y-107302944D03*
X70000000Y-106600000D03*
X68302944Y-107302944D03*
X67600000Y-109000000D03*
X68302944Y-110697056D03*
X70000000Y-111400000D03*
X71697056Y-110697056D03*
X72400000Y-109000000D03*
D12*
X70000000Y-109000000D03*
D11*
X131697056Y-89302944D03*
X130000000Y-88600000D03*
X128302944Y-89302944D03*
X127600000Y-91000000D03*
X128302944Y-92697056D03*
X130000000Y-93400000D03*
X131697056Y-92697056D03*
X132400000Y-91000000D03*
D12*
X130000000Y-91000000D03*
D11*
X71697056Y-89302944D03*
X70000000Y-88600000D03*
X68302944Y-89302944D03*
X67600000Y-91000000D03*
X68302944Y-92697056D03*
X70000000Y-93400000D03*
X71697056Y-92697056D03*
X72400000Y-91000000D03*
D12*
X70000000Y-91000000D03*
D13*
X121000000Y-93000000D03*
X59000000Y-100000000D03*
X63000000Y-100000000D03*
X61000000Y-102000000D03*
X61000000Y-98000000D03*
X78500000Y-100000000D03*
X82500000Y-100000000D03*
X80500000Y-102000000D03*
X80500000Y-98000000D03*
X98000000Y-100000000D03*
X102000000Y-100000000D03*
X100000000Y-102000000D03*
X100000000Y-98000000D03*
X117500000Y-100000000D03*
X121500000Y-100000000D03*
X119500000Y-102000000D03*
X119500000Y-98000000D03*
X141000000Y-100000000D03*
X137000000Y-100000000D03*
X139000000Y-102000000D03*
X139000000Y-98000000D03*
X139000000Y-100000000D03*
X119500000Y-100000000D03*
X100000000Y-100000000D03*
X80500000Y-100000000D03*
X61000000Y-100000000D03*
X100000000Y-104000000D03*
X102000000Y-104000000D03*
X104000000Y-104000000D03*
X106000000Y-104000000D03*
X108000000Y-104000000D03*
X110000000Y-104000000D03*
X112000000Y-104000000D03*
X114000000Y-104000000D03*
X116000000Y-104000000D03*
X118000000Y-104000000D03*
X120000000Y-104000000D03*
X122000000Y-104000000D03*
X124000000Y-104000000D03*
X126000000Y-104000000D03*
X128000000Y-104000000D03*
X130000000Y-104000000D03*
X132000000Y-104000000D03*
X134000000Y-104000000D03*
X136000000Y-104000000D03*
X138000000Y-104000000D03*
X140000000Y-104000000D03*
X142000000Y-104000000D03*
X144000000Y-104000000D03*
X146000000Y-104000000D03*
X148000000Y-104000000D03*
X147000000Y-106000000D03*
X145000000Y-106000000D03*
X143000000Y-106000000D03*
X141000000Y-106000000D03*
X139000000Y-106000000D03*
X137000000Y-106000000D03*
X135000000Y-106000000D03*
X133000000Y-106000000D03*
X127000000Y-106000000D03*
X125000000Y-106000000D03*
X123000000Y-106000000D03*
X121000000Y-106000000D03*
X119000000Y-106000000D03*
X117000000Y-106000000D03*
X115000000Y-106000000D03*
X113000000Y-106000000D03*
X111000000Y-106000000D03*
X109000000Y-106000000D03*
X107000000Y-106000000D03*
X105000000Y-106000000D03*
X103000000Y-106000000D03*
X101000000Y-106000000D03*
X98000000Y-104000000D03*
X96000000Y-104000000D03*
X94000000Y-104000000D03*
X92000000Y-104000000D03*
X90000000Y-104000000D03*
X88000000Y-104000000D03*
X86000000Y-104000000D03*
X84000000Y-104000000D03*
X82000000Y-104000000D03*
X80000000Y-104000000D03*
X78000000Y-104000000D03*
X76000000Y-104000000D03*
X74000000Y-104000000D03*
X72000000Y-104000000D03*
X70000000Y-104000000D03*
X68000000Y-104000000D03*
X66000000Y-104000000D03*
X64000000Y-104000000D03*
X62000000Y-104000000D03*
X60000000Y-104000000D03*
X58000000Y-104000000D03*
X56000000Y-104000000D03*
X54000000Y-104000000D03*
X52000000Y-104000000D03*
X53000000Y-106000000D03*
X55000000Y-106000000D03*
X57000000Y-106000000D03*
X59000000Y-106000000D03*
X61000000Y-106000000D03*
X63000000Y-106000000D03*
X65000000Y-106000000D03*
X67000000Y-106000000D03*
X73000000Y-106000000D03*
X75000000Y-106000000D03*
X77000000Y-106000000D03*
X79000000Y-106000000D03*
X81000000Y-106000000D03*
X83000000Y-106000000D03*
X85000000Y-106000000D03*
X87000000Y-106000000D03*
X89000000Y-106000000D03*
X91000000Y-106000000D03*
X93000000Y-106000000D03*
X95000000Y-106000000D03*
X97000000Y-106000000D03*
X99000000Y-106000000D03*
X58000000Y-108000000D03*
X60000000Y-108000000D03*
X62000000Y-108000000D03*
X64000000Y-108000000D03*
X66000000Y-108000000D03*
X74000000Y-108000000D03*
X76000000Y-108000000D03*
X78000000Y-108000000D03*
X80000000Y-108000000D03*
X82000000Y-108000000D03*
X84000000Y-108000000D03*
X86000000Y-108000000D03*
X88000000Y-108000000D03*
X90000000Y-108000000D03*
X92000000Y-108000000D03*
X94000000Y-108000000D03*
X96000000Y-108000000D03*
X98000000Y-108000000D03*
X100000000Y-108000000D03*
X102000000Y-108000000D03*
X104000000Y-108000000D03*
X106000000Y-108000000D03*
X108000000Y-108000000D03*
X110000000Y-108000000D03*
X112000000Y-108000000D03*
X114000000Y-108000000D03*
X116000000Y-108000000D03*
X118000000Y-108000000D03*
X120000000Y-108000000D03*
X122000000Y-108000000D03*
X124000000Y-108000000D03*
X126000000Y-108000000D03*
X134000000Y-108000000D03*
X136000000Y-108000000D03*
X138000000Y-108000000D03*
X140000000Y-108000000D03*
X142000000Y-108000000D03*
X125000000Y-102000000D03*
X127000000Y-102000000D03*
X143000000Y-102000000D03*
X145000000Y-102000000D03*
X147000000Y-102000000D03*
X105000000Y-102000000D03*
X107000000Y-102000000D03*
X109000000Y-102000000D03*
X85000000Y-102000000D03*
X87000000Y-102000000D03*
X89000000Y-102000000D03*
X69000000Y-102000000D03*
X67000000Y-102000000D03*
X114000000Y-98000000D03*
X112000000Y-98000000D03*
X130000000Y-98000000D03*
X132000000Y-98000000D03*
X134000000Y-98000000D03*
X94000000Y-98000000D03*
X92000000Y-98000000D03*
X74000000Y-98000000D03*
X72000000Y-98000000D03*
X76000000Y-98000000D03*
X53000000Y-98000000D03*
X54000000Y-96000000D03*
X148000000Y-96000000D03*
X147000000Y-94000000D03*
X145000000Y-94000000D03*
X143000000Y-94000000D03*
X141000000Y-94000000D03*
X139000000Y-94000000D03*
X137000000Y-94000000D03*
X135000000Y-94000000D03*
X133000000Y-94000000D03*
X134000000Y-92000000D03*
X136000000Y-92000000D03*
X138000000Y-92000000D03*
X140000000Y-92000000D03*
X142000000Y-92000000D03*
X127000000Y-94000000D03*
X125000000Y-94000000D03*
X126000000Y-92000000D03*
X124000000Y-92000000D03*
X55000000Y-94000000D03*
X53000000Y-94000000D03*
X52000000Y-96000000D03*
X57000000Y-94000000D03*
X59000000Y-94000000D03*
X61000000Y-94000000D03*
X63000000Y-94000000D03*
X65000000Y-94000000D03*
X67000000Y-94000000D03*
X66000000Y-92000000D03*
X64000000Y-92000000D03*
X62000000Y-92000000D03*
X60000000Y-92000000D03*
X58000000Y-92000000D03*
X73000000Y-94000000D03*
X75000000Y-94000000D03*
X77000000Y-94000000D03*
X79000000Y-94000000D03*
X81000000Y-94000000D03*
X83000000Y-94000000D03*
X85000000Y-94000000D03*
X87000000Y-94000000D03*
X89000000Y-94000000D03*
X91000000Y-94000000D03*
X93000000Y-94000000D03*
X95000000Y-94000000D03*
X97000000Y-94000000D03*
X99000000Y-94000000D03*
X101000000Y-94000000D03*
X103000000Y-94000000D03*
X105000000Y-94000000D03*
X107000000Y-94000000D03*
X109000000Y-94000000D03*
X111000000Y-94000000D03*
X112000000Y-92000000D03*
X110000000Y-92000000D03*
X108000000Y-92000000D03*
X106000000Y-92000000D03*
X104000000Y-92000000D03*
X102000000Y-92000000D03*
X100000000Y-92000000D03*
X98000000Y-92000000D03*
X96000000Y-92000000D03*
X94000000Y-92000000D03*
X92000000Y-92000000D03*
X90000000Y-92000000D03*
X88000000Y-92000000D03*
X86000000Y-92000000D03*
X84000000Y-92000000D03*
X82000000Y-92000000D03*
X80000000Y-92000000D03*
X78000000Y-92000000D03*
X76000000Y-92000000D03*
X74000000Y-92000000D03*
X115500000Y-93000000D03*
D14*
X120000000Y-93000000D02*
X121000000Y-93000000D01*
X116500000Y-93000000D02*
X115500000Y-93000000D01*
D15*
G36*
X130799792Y-87103174D02*
G01*
X131193006Y-87203721D01*
X148414474Y-92552769D01*
X148703649Y-92674654D01*
X148942441Y-92836055D01*
X149145335Y-93040763D01*
X149304605Y-93280983D01*
X149414181Y-93547563D01*
X149472394Y-93843047D01*
X149479301Y-93985677D01*
X149479300Y-106001485D01*
X149448677Y-106313802D01*
X149365373Y-106589717D01*
X149230063Y-106844199D01*
X149047898Y-107067556D01*
X148825816Y-107251279D01*
X148560899Y-107394519D01*
X148426760Y-107443415D01*
X131204033Y-112792854D01*
X130440197Y-112952498D01*
X129684856Y-112964428D01*
X128940886Y-112833313D01*
X128235136Y-112563884D01*
X127593058Y-112165856D01*
X127029298Y-111645724D01*
X126765878Y-111319771D01*
X126763055Y-111316888D01*
X126760848Y-111313642D01*
X126756154Y-111308090D01*
X126339932Y-110822748D01*
X126309171Y-110793267D01*
X126279372Y-110762836D01*
X126273770Y-110758202D01*
X125668800Y-110264800D01*
X125629434Y-110238646D01*
X125590551Y-110212022D01*
X125584156Y-110208563D01*
X124894872Y-109842064D01*
X124851198Y-109824063D01*
X124807862Y-109805489D01*
X124800917Y-109803339D01*
X124053572Y-109577702D01*
X124007276Y-109568535D01*
X123961115Y-109558723D01*
X123953884Y-109557963D01*
X123176947Y-109481784D01*
X123176940Y-109481784D01*
X123151711Y-109479299D01*
X76848290Y-109479299D01*
X76827553Y-109481341D01*
X76194922Y-109532065D01*
X76153000Y-109539596D01*
X76110849Y-109545796D01*
X76103807Y-109547600D01*
X75348933Y-109746597D01*
X75304698Y-109763020D01*
X75260222Y-109778829D01*
X75253664Y-109781967D01*
X74551818Y-110123797D01*
X74511609Y-110148503D01*
X74471057Y-110172646D01*
X74465233Y-110176998D01*
X73843149Y-110648640D01*
X73808501Y-110680689D01*
X73773415Y-110712245D01*
X73768547Y-110717645D01*
X73249919Y-111301135D01*
X73249653Y-111301501D01*
X73249015Y-111302155D01*
X72715722Y-111905318D01*
X72117343Y-112366433D01*
X71442564Y-112706078D01*
X70715738Y-112911998D01*
X69963084Y-112976763D01*
X69200207Y-112896826D01*
X68807012Y-112796284D01*
X51585529Y-107447232D01*
X51296351Y-107325346D01*
X51057560Y-107163946D01*
X50854665Y-106959237D01*
X50695395Y-106719016D01*
X50585820Y-106452441D01*
X50527605Y-106156950D01*
X50520700Y-106014362D01*
X50520700Y-93998515D01*
X50551323Y-93686199D01*
X50634628Y-93410279D01*
X50769939Y-93155797D01*
X50952103Y-92932442D01*
X50985351Y-92904936D01*
X114534800Y-92904936D01*
X114534800Y-93095064D01*
X114571892Y-93281538D01*
X114644651Y-93457194D01*
X114750280Y-93615279D01*
X114884721Y-93749720D01*
X115042806Y-93855349D01*
X115168203Y-93907290D01*
X115168203Y-94900000D01*
X115174578Y-94964730D01*
X115193460Y-95026973D01*
X115224121Y-95084337D01*
X115265384Y-95134616D01*
X115315663Y-95175879D01*
X115373027Y-95206540D01*
X115435270Y-95225422D01*
X115500000Y-95231797D01*
X117500000Y-95231797D01*
X117564730Y-95225422D01*
X117626973Y-95206540D01*
X117684337Y-95175879D01*
X117734616Y-95134616D01*
X117775879Y-95084337D01*
X117806540Y-95026973D01*
X117825422Y-94964730D01*
X117831797Y-94900000D01*
X117831797Y-91100000D01*
X118668203Y-91100000D01*
X118668203Y-94900000D01*
X118674578Y-94964730D01*
X118693460Y-95026973D01*
X118724121Y-95084337D01*
X118765384Y-95134616D01*
X118815663Y-95175879D01*
X118873027Y-95206540D01*
X118935270Y-95225422D01*
X119000000Y-95231797D01*
X121000000Y-95231797D01*
X121064730Y-95225422D01*
X121126973Y-95206540D01*
X121184337Y-95175879D01*
X121234616Y-95134616D01*
X121275879Y-95084337D01*
X121306540Y-95026973D01*
X121325422Y-94964730D01*
X121331797Y-94900000D01*
X121331797Y-93907290D01*
X121457194Y-93855349D01*
X121615279Y-93749720D01*
X121749720Y-93615279D01*
X121855349Y-93457194D01*
X121928108Y-93281538D01*
X121965200Y-93095064D01*
X121965200Y-92904936D01*
X121928108Y-92718462D01*
X121855349Y-92542806D01*
X121749720Y-92384721D01*
X121615279Y-92250280D01*
X121457194Y-92144651D01*
X121331797Y-92092710D01*
X121331797Y-91100000D01*
X121325422Y-91035270D01*
X121306540Y-90973027D01*
X121275879Y-90915663D01*
X121234616Y-90865384D01*
X121184337Y-90824121D01*
X121126973Y-90793460D01*
X121064730Y-90774578D01*
X121000000Y-90768203D01*
X119000000Y-90768203D01*
X118935270Y-90774578D01*
X118873027Y-90793460D01*
X118815663Y-90824121D01*
X118765384Y-90865384D01*
X118724121Y-90915663D01*
X118693460Y-90973027D01*
X118674578Y-91035270D01*
X118668203Y-91100000D01*
X117831797Y-91100000D01*
X117825422Y-91035270D01*
X117806540Y-90973027D01*
X117775879Y-90915663D01*
X117734616Y-90865384D01*
X117684337Y-90824121D01*
X117626973Y-90793460D01*
X117564730Y-90774578D01*
X117500000Y-90768203D01*
X115500000Y-90768203D01*
X115435270Y-90774578D01*
X115373027Y-90793460D01*
X115315663Y-90824121D01*
X115265384Y-90865384D01*
X115224121Y-90915663D01*
X115193460Y-90973027D01*
X115174578Y-91035270D01*
X115168203Y-91100000D01*
X115168203Y-92092710D01*
X115042806Y-92144651D01*
X114884721Y-92250280D01*
X114750280Y-92384721D01*
X114644651Y-92542806D01*
X114571892Y-92718462D01*
X114534800Y-92904936D01*
X50985351Y-92904936D01*
X51174183Y-92748721D01*
X51439100Y-92605481D01*
X51573256Y-92556580D01*
X68795989Y-87207140D01*
X69559801Y-87047501D01*
X70315143Y-87035571D01*
X71059114Y-87166686D01*
X71764863Y-87436115D01*
X72406942Y-87834144D01*
X72970705Y-88354279D01*
X73234122Y-88680230D01*
X73236950Y-88683119D01*
X73239153Y-88686358D01*
X73243847Y-88691910D01*
X73660070Y-89177252D01*
X73690830Y-89206733D01*
X73720629Y-89237163D01*
X73726230Y-89241798D01*
X74331201Y-89735199D01*
X74370484Y-89761298D01*
X74409450Y-89787979D01*
X74415845Y-89791437D01*
X75105129Y-90157936D01*
X75148778Y-90175926D01*
X75192140Y-90194511D01*
X75199085Y-90196661D01*
X75946430Y-90422297D01*
X75992718Y-90431462D01*
X76038886Y-90441276D01*
X76046117Y-90442036D01*
X76823054Y-90518215D01*
X76823060Y-90518215D01*
X76848289Y-90520700D01*
X123151711Y-90520700D01*
X123172452Y-90518657D01*
X123805079Y-90467934D01*
X123847001Y-90460403D01*
X123889152Y-90454203D01*
X123896194Y-90452399D01*
X124651069Y-90253402D01*
X124695361Y-90236958D01*
X124739779Y-90221169D01*
X124746338Y-90218032D01*
X125448183Y-89876202D01*
X125488399Y-89851491D01*
X125528943Y-89827353D01*
X125534767Y-89823002D01*
X126156852Y-89351359D01*
X126191502Y-89319309D01*
X126226586Y-89287754D01*
X126231454Y-89282354D01*
X126750081Y-88698864D01*
X126750342Y-88698506D01*
X126750985Y-88697846D01*
X127284278Y-88094683D01*
X127882659Y-87633566D01*
X128557433Y-87293922D01*
X129284261Y-87088002D01*
X130036915Y-87023237D01*
X130799792Y-87103174D01*
X130799792Y-87103174D01*
G37*
X130799792Y-87103174D02*
X131193006Y-87203721D01*
X148414474Y-92552769D01*
X148703649Y-92674654D01*
X148942441Y-92836055D01*
X149145335Y-93040763D01*
X149304605Y-93280983D01*
X149414181Y-93547563D01*
X149472394Y-93843047D01*
X149479301Y-93985677D01*
X149479300Y-106001485D01*
X149448677Y-106313802D01*
X149365373Y-106589717D01*
X149230063Y-106844199D01*
X149047898Y-107067556D01*
X148825816Y-107251279D01*
X148560899Y-107394519D01*
X148426760Y-107443415D01*
X131204033Y-112792854D01*
X130440197Y-112952498D01*
X129684856Y-112964428D01*
X128940886Y-112833313D01*
X128235136Y-112563884D01*
X127593058Y-112165856D01*
X127029298Y-111645724D01*
X126765878Y-111319771D01*
X126763055Y-111316888D01*
X126760848Y-111313642D01*
X126756154Y-111308090D01*
X126339932Y-110822748D01*
X126309171Y-110793267D01*
X126279372Y-110762836D01*
X126273770Y-110758202D01*
X125668800Y-110264800D01*
X125629434Y-110238646D01*
X125590551Y-110212022D01*
X125584156Y-110208563D01*
X124894872Y-109842064D01*
X124851198Y-109824063D01*
X124807862Y-109805489D01*
X124800917Y-109803339D01*
X124053572Y-109577702D01*
X124007276Y-109568535D01*
X123961115Y-109558723D01*
X123953884Y-109557963D01*
X123176947Y-109481784D01*
X123176940Y-109481784D01*
X123151711Y-109479299D01*
X76848290Y-109479299D01*
X76827553Y-109481341D01*
X76194922Y-109532065D01*
X76153000Y-109539596D01*
X76110849Y-109545796D01*
X76103807Y-109547600D01*
X75348933Y-109746597D01*
X75304698Y-109763020D01*
X75260222Y-109778829D01*
X75253664Y-109781967D01*
X74551818Y-110123797D01*
X74511609Y-110148503D01*
X74471057Y-110172646D01*
X74465233Y-110176998D01*
X73843149Y-110648640D01*
X73808501Y-110680689D01*
X73773415Y-110712245D01*
X73768547Y-110717645D01*
X73249919Y-111301135D01*
X73249653Y-111301501D01*
X73249015Y-111302155D01*
X72715722Y-111905318D01*
X72117343Y-112366433D01*
X71442564Y-112706078D01*
X70715738Y-112911998D01*
X69963084Y-112976763D01*
X69200207Y-112896826D01*
X68807012Y-112796284D01*
X51585529Y-107447232D01*
X51296351Y-107325346D01*
X51057560Y-107163946D01*
X50854665Y-106959237D01*
X50695395Y-106719016D01*
X50585820Y-106452441D01*
X50527605Y-106156950D01*
X50520700Y-106014362D01*
X50520700Y-93998515D01*
X50551323Y-93686199D01*
X50634628Y-93410279D01*
X50769939Y-93155797D01*
X50952103Y-92932442D01*
X50985351Y-92904936D01*
X114534800Y-92904936D01*
X114534800Y-93095064D01*
X114571892Y-93281538D01*
X114644651Y-93457194D01*
X114750280Y-93615279D01*
X114884721Y-93749720D01*
X115042806Y-93855349D01*
X115168203Y-93907290D01*
X115168203Y-94900000D01*
X115174578Y-94964730D01*
X115193460Y-95026973D01*
X115224121Y-95084337D01*
X115265384Y-95134616D01*
X115315663Y-95175879D01*
X115373027Y-95206540D01*
X115435270Y-95225422D01*
X115500000Y-95231797D01*
X117500000Y-95231797D01*
X117564730Y-95225422D01*
X117626973Y-95206540D01*
X117684337Y-95175879D01*
X117734616Y-95134616D01*
X117775879Y-95084337D01*
X117806540Y-95026973D01*
X117825422Y-94964730D01*
X117831797Y-94900000D01*
X117831797Y-91100000D01*
X118668203Y-91100000D01*
X118668203Y-94900000D01*
X118674578Y-94964730D01*
X118693460Y-95026973D01*
X118724121Y-95084337D01*
X118765384Y-95134616D01*
X118815663Y-95175879D01*
X118873027Y-95206540D01*
X118935270Y-95225422D01*
X119000000Y-95231797D01*
X121000000Y-95231797D01*
X121064730Y-95225422D01*
X121126973Y-95206540D01*
X121184337Y-95175879D01*
X121234616Y-95134616D01*
X121275879Y-95084337D01*
X121306540Y-95026973D01*
X121325422Y-94964730D01*
X121331797Y-94900000D01*
X121331797Y-93907290D01*
X121457194Y-93855349D01*
X121615279Y-93749720D01*
X121749720Y-93615279D01*
X121855349Y-93457194D01*
X121928108Y-93281538D01*
X121965200Y-93095064D01*
X121965200Y-92904936D01*
X121928108Y-92718462D01*
X121855349Y-92542806D01*
X121749720Y-92384721D01*
X121615279Y-92250280D01*
X121457194Y-92144651D01*
X121331797Y-92092710D01*
X121331797Y-91100000D01*
X121325422Y-91035270D01*
X121306540Y-90973027D01*
X121275879Y-90915663D01*
X121234616Y-90865384D01*
X121184337Y-90824121D01*
X121126973Y-90793460D01*
X121064730Y-90774578D01*
X121000000Y-90768203D01*
X119000000Y-90768203D01*
X118935270Y-90774578D01*
X118873027Y-90793460D01*
X118815663Y-90824121D01*
X118765384Y-90865384D01*
X118724121Y-90915663D01*
X118693460Y-90973027D01*
X118674578Y-91035270D01*
X118668203Y-91100000D01*
X117831797Y-91100000D01*
X117825422Y-91035270D01*
X117806540Y-90973027D01*
X117775879Y-90915663D01*
X117734616Y-90865384D01*
X117684337Y-90824121D01*
X117626973Y-90793460D01*
X117564730Y-90774578D01*
X117500000Y-90768203D01*
X115500000Y-90768203D01*
X115435270Y-90774578D01*
X115373027Y-90793460D01*
X115315663Y-90824121D01*
X115265384Y-90865384D01*
X115224121Y-90915663D01*
X115193460Y-90973027D01*
X115174578Y-91035270D01*
X115168203Y-91100000D01*
X115168203Y-92092710D01*
X115042806Y-92144651D01*
X114884721Y-92250280D01*
X114750280Y-92384721D01*
X114644651Y-92542806D01*
X114571892Y-92718462D01*
X114534800Y-92904936D01*
X50985351Y-92904936D01*
X51174183Y-92748721D01*
X51439100Y-92605481D01*
X51573256Y-92556580D01*
X68795989Y-87207140D01*
X69559801Y-87047501D01*
X70315143Y-87035571D01*
X71059114Y-87166686D01*
X71764863Y-87436115D01*
X72406942Y-87834144D01*
X72970705Y-88354279D01*
X73234122Y-88680230D01*
X73236950Y-88683119D01*
X73239153Y-88686358D01*
X73243847Y-88691910D01*
X73660070Y-89177252D01*
X73690830Y-89206733D01*
X73720629Y-89237163D01*
X73726230Y-89241798D01*
X74331201Y-89735199D01*
X74370484Y-89761298D01*
X74409450Y-89787979D01*
X74415845Y-89791437D01*
X75105129Y-90157936D01*
X75148778Y-90175926D01*
X75192140Y-90194511D01*
X75199085Y-90196661D01*
X75946430Y-90422297D01*
X75992718Y-90431462D01*
X76038886Y-90441276D01*
X76046117Y-90442036D01*
X76823054Y-90518215D01*
X76823060Y-90518215D01*
X76848289Y-90520700D01*
X123151711Y-90520700D01*
X123172452Y-90518657D01*
X123805079Y-90467934D01*
X123847001Y-90460403D01*
X123889152Y-90454203D01*
X123896194Y-90452399D01*
X124651069Y-90253402D01*
X124695361Y-90236958D01*
X124739779Y-90221169D01*
X124746338Y-90218032D01*
X125448183Y-89876202D01*
X125488399Y-89851491D01*
X125528943Y-89827353D01*
X125534767Y-89823002D01*
X126156852Y-89351359D01*
X126191502Y-89319309D01*
X126226586Y-89287754D01*
X126231454Y-89282354D01*
X126750081Y-88698864D01*
X126750342Y-88698506D01*
X126750985Y-88697846D01*
X127284278Y-88094683D01*
X127882659Y-87633566D01*
X128557433Y-87293922D01*
X129284261Y-87088002D01*
X130036915Y-87023237D01*
X130799792Y-87103174D01*
M02*
