G04 #@! TF.GenerationSoftware,KiCad,Pcbnew,(5.1.4)-1*
G04 #@! TF.CreationDate,2020-09-24T22:32:13-04:00*
G04 #@! TF.ProjectId,Taillight,5461696c-6c69-4676-9874-2e6b69636164,rev?*
G04 #@! TF.SameCoordinates,Original*
G04 #@! TF.FileFunction,Legend,Top*
G04 #@! TF.FilePolarity,Positive*
%FSLAX46Y46*%
G04 Gerber Fmt 4.6, Leading zero omitted, Abs format (unit mm)*
G04 Created by KiCad (PCBNEW (5.1.4)-1) date 2020-09-24 22:32:13*
%MOMM*%
%LPD*%
G04 APERTURE LIST*
%ADD10C,0.203200*%
G04 APERTURE END LIST*
D10*
X64100000Y-97750000D02*
X64750000Y-97750000D01*
G36*
X64000000Y-98150000D02*
G01*
X64400000Y-98950000D01*
X64500000Y-99800000D01*
X64850000Y-99800000D01*
X64850000Y-98150000D01*
X63950000Y-98150000D01*
X64000000Y-98150000D01*
G37*
X64000000Y-98150000D02*
X64400000Y-98950000D01*
X64500000Y-99800000D01*
X64850000Y-99800000D01*
X64850000Y-98150000D01*
X63950000Y-98150000D01*
X64000000Y-98150000D01*
X64000000Y-98150000D02*
X64850000Y-98150000D01*
X64500000Y-99800000D02*
X64850000Y-99800000D01*
X57500000Y-100200000D02*
X57150000Y-100200000D01*
X57950000Y-101750000D02*
X57150000Y-101750000D01*
X64473111Y-100000000D02*
G75*
G03X64473111Y-100000000I-3473111J0D01*
G01*
X83600000Y-97750000D02*
X84250000Y-97750000D01*
G36*
X83500000Y-98150000D02*
G01*
X83900000Y-98950000D01*
X84000000Y-99800000D01*
X84350000Y-99800000D01*
X84350000Y-98150000D01*
X83450000Y-98150000D01*
X83500000Y-98150000D01*
G37*
X83500000Y-98150000D02*
X83900000Y-98950000D01*
X84000000Y-99800000D01*
X84350000Y-99800000D01*
X84350000Y-98150000D01*
X83450000Y-98150000D01*
X83500000Y-98150000D01*
X83500000Y-98150000D02*
X84350000Y-98150000D01*
X84000000Y-99800000D02*
X84350000Y-99800000D01*
X77000000Y-100200000D02*
X76650000Y-100200000D01*
X77450000Y-101750000D02*
X76650000Y-101750000D01*
X83973111Y-100000000D02*
G75*
G03X83973111Y-100000000I-3473111J0D01*
G01*
X103100000Y-97750000D02*
X103750000Y-97750000D01*
G36*
X103000000Y-98150000D02*
G01*
X103400000Y-98950000D01*
X103500000Y-99800000D01*
X103850000Y-99800000D01*
X103850000Y-98150000D01*
X102950000Y-98150000D01*
X103000000Y-98150000D01*
G37*
X103000000Y-98150000D02*
X103400000Y-98950000D01*
X103500000Y-99800000D01*
X103850000Y-99800000D01*
X103850000Y-98150000D01*
X102950000Y-98150000D01*
X103000000Y-98150000D01*
X103000000Y-98150000D02*
X103850000Y-98150000D01*
X103500000Y-99800000D02*
X103850000Y-99800000D01*
X96500000Y-100200000D02*
X96150000Y-100200000D01*
X96950000Y-101750000D02*
X96150000Y-101750000D01*
X103473111Y-100000000D02*
G75*
G03X103473111Y-100000000I-3473111J0D01*
G01*
X122600000Y-97750000D02*
X123250000Y-97750000D01*
G36*
X122500000Y-98150000D02*
G01*
X122900000Y-98950000D01*
X123000000Y-99800000D01*
X123350000Y-99800000D01*
X123350000Y-98150000D01*
X122450000Y-98150000D01*
X122500000Y-98150000D01*
G37*
X122500000Y-98150000D02*
X122900000Y-98950000D01*
X123000000Y-99800000D01*
X123350000Y-99800000D01*
X123350000Y-98150000D01*
X122450000Y-98150000D01*
X122500000Y-98150000D01*
X122500000Y-98150000D02*
X123350000Y-98150000D01*
X123000000Y-99800000D02*
X123350000Y-99800000D01*
X116000000Y-100200000D02*
X115650000Y-100200000D01*
X116450000Y-101750000D02*
X115650000Y-101750000D01*
X122973111Y-100000000D02*
G75*
G03X122973111Y-100000000I-3473111J0D01*
G01*
X142100000Y-97750000D02*
X142750000Y-97750000D01*
G36*
X142000000Y-98150000D02*
G01*
X142400000Y-98950000D01*
X142500000Y-99800000D01*
X142850000Y-99800000D01*
X142850000Y-98150000D01*
X141950000Y-98150000D01*
X142000000Y-98150000D01*
G37*
X142000000Y-98150000D02*
X142400000Y-98950000D01*
X142500000Y-99800000D01*
X142850000Y-99800000D01*
X142850000Y-98150000D01*
X141950000Y-98150000D01*
X142000000Y-98150000D01*
X142000000Y-98150000D02*
X142850000Y-98150000D01*
X142500000Y-99800000D02*
X142850000Y-99800000D01*
X135500000Y-100200000D02*
X135150000Y-100200000D01*
X135950000Y-101750000D02*
X135150000Y-101750000D01*
X142473111Y-100000000D02*
G75*
G03X142473111Y-100000000I-3473111J0D01*
G01*
M02*
