G04 #@! TF.GenerationSoftware,KiCad,Pcbnew,(5.1.4)-1*
G04 #@! TF.CreationDate,2020-09-24T22:32:13-04:00*
G04 #@! TF.ProjectId,Taillight,5461696c-6c69-4676-9874-2e6b69636164,rev?*
G04 #@! TF.SameCoordinates,Original*
G04 #@! TF.FileFunction,Soldermask,Top*
G04 #@! TF.FilePolarity,Negative*
%FSLAX46Y46*%
G04 Gerber Fmt 4.6, Leading zero omitted, Abs format (unit mm)*
G04 Created by KiCad (PCBNEW (5.1.4)-1) date 2020-09-24 22:32:13*
%MOMM*%
%LPD*%
G04 APERTURE LIST*
%ADD10C,0.800000*%
%ADD11C,6.400000*%
%ADD12C,0.100000*%
%ADD13C,2.750000*%
%ADD14C,6.000001*%
G04 APERTURE END LIST*
D10*
X131697056Y-107302944D03*
X130000000Y-106600000D03*
X128302944Y-107302944D03*
X127600000Y-109000000D03*
X128302944Y-110697056D03*
X130000000Y-111400000D03*
X131697056Y-110697056D03*
X132400000Y-109000000D03*
D11*
X130000000Y-109000000D03*
D10*
X71697056Y-107302944D03*
X70000000Y-106600000D03*
X68302944Y-107302944D03*
X67600000Y-109000000D03*
X68302944Y-110697056D03*
X70000000Y-111400000D03*
X71697056Y-110697056D03*
X72400000Y-109000000D03*
D11*
X70000000Y-109000000D03*
D10*
X131697056Y-89302944D03*
X130000000Y-88600000D03*
X128302944Y-89302944D03*
X127600000Y-91000000D03*
X128302944Y-92697056D03*
X130000000Y-93400000D03*
X131697056Y-92697056D03*
X132400000Y-91000000D03*
D11*
X130000000Y-91000000D03*
D10*
X71697056Y-89302944D03*
X70000000Y-88600000D03*
X68302944Y-89302944D03*
X67600000Y-91000000D03*
X68302944Y-92697056D03*
X70000000Y-93400000D03*
X71697056Y-92697056D03*
X72400000Y-91000000D03*
D11*
X70000000Y-91000000D03*
D12*
G36*
X68689943Y-97626655D02*
G01*
X68723312Y-97631605D01*
X68756035Y-97639802D01*
X68787797Y-97651166D01*
X68818293Y-97665590D01*
X68847227Y-97682932D01*
X68874323Y-97703028D01*
X68899318Y-97725682D01*
X68921972Y-97750677D01*
X68942068Y-97777773D01*
X68959410Y-97806707D01*
X68973834Y-97837203D01*
X68985198Y-97868965D01*
X68993395Y-97901688D01*
X68998345Y-97935057D01*
X69000000Y-97968750D01*
X69000000Y-100031250D01*
X68998345Y-100064943D01*
X68993395Y-100098312D01*
X68985198Y-100131035D01*
X68973834Y-100162797D01*
X68959410Y-100193293D01*
X68942068Y-100222227D01*
X68921972Y-100249323D01*
X68899318Y-100274318D01*
X68874323Y-100296972D01*
X68847227Y-100317068D01*
X68818293Y-100334410D01*
X68787797Y-100348834D01*
X68756035Y-100360198D01*
X68723312Y-100368395D01*
X68689943Y-100373345D01*
X68656250Y-100375000D01*
X65343750Y-100375000D01*
X65310057Y-100373345D01*
X65276688Y-100368395D01*
X65243965Y-100360198D01*
X65212203Y-100348834D01*
X65181707Y-100334410D01*
X65152773Y-100317068D01*
X65125677Y-100296972D01*
X65100682Y-100274318D01*
X65078028Y-100249323D01*
X65057932Y-100222227D01*
X65040590Y-100193293D01*
X65026166Y-100162797D01*
X65014802Y-100131035D01*
X65006605Y-100098312D01*
X65001655Y-100064943D01*
X65000000Y-100031250D01*
X65000000Y-97968750D01*
X65001655Y-97935057D01*
X65006605Y-97901688D01*
X65014802Y-97868965D01*
X65026166Y-97837203D01*
X65040590Y-97806707D01*
X65057932Y-97777773D01*
X65078028Y-97750677D01*
X65100682Y-97725682D01*
X65125677Y-97703028D01*
X65152773Y-97682932D01*
X65181707Y-97665590D01*
X65212203Y-97651166D01*
X65243965Y-97639802D01*
X65276688Y-97631605D01*
X65310057Y-97626655D01*
X65343750Y-97625000D01*
X68656250Y-97625000D01*
X68689943Y-97626655D01*
X68689943Y-97626655D01*
G37*
D13*
X67000000Y-99000000D03*
D12*
G36*
X56689943Y-99626655D02*
G01*
X56723312Y-99631605D01*
X56756035Y-99639802D01*
X56787797Y-99651166D01*
X56818293Y-99665590D01*
X56847227Y-99682932D01*
X56874323Y-99703028D01*
X56899318Y-99725682D01*
X56921972Y-99750677D01*
X56942068Y-99777773D01*
X56959410Y-99806707D01*
X56973834Y-99837203D01*
X56985198Y-99868965D01*
X56993395Y-99901688D01*
X56998345Y-99935057D01*
X57000000Y-99968750D01*
X57000000Y-102031250D01*
X56998345Y-102064943D01*
X56993395Y-102098312D01*
X56985198Y-102131035D01*
X56973834Y-102162797D01*
X56959410Y-102193293D01*
X56942068Y-102222227D01*
X56921972Y-102249323D01*
X56899318Y-102274318D01*
X56874323Y-102296972D01*
X56847227Y-102317068D01*
X56818293Y-102334410D01*
X56787797Y-102348834D01*
X56756035Y-102360198D01*
X56723312Y-102368395D01*
X56689943Y-102373345D01*
X56656250Y-102375000D01*
X53343750Y-102375000D01*
X53310057Y-102373345D01*
X53276688Y-102368395D01*
X53243965Y-102360198D01*
X53212203Y-102348834D01*
X53181707Y-102334410D01*
X53152773Y-102317068D01*
X53125677Y-102296972D01*
X53100682Y-102274318D01*
X53078028Y-102249323D01*
X53057932Y-102222227D01*
X53040590Y-102193293D01*
X53026166Y-102162797D01*
X53014802Y-102131035D01*
X53006605Y-102098312D01*
X53001655Y-102064943D01*
X53000000Y-102031250D01*
X53000000Y-99968750D01*
X53001655Y-99935057D01*
X53006605Y-99901688D01*
X53014802Y-99868965D01*
X53026166Y-99837203D01*
X53040590Y-99806707D01*
X53057932Y-99777773D01*
X53078028Y-99750677D01*
X53100682Y-99725682D01*
X53125677Y-99703028D01*
X53152773Y-99682932D01*
X53181707Y-99665590D01*
X53212203Y-99651166D01*
X53243965Y-99639802D01*
X53276688Y-99631605D01*
X53310057Y-99626655D01*
X53343750Y-99625000D01*
X56656250Y-99625000D01*
X56689943Y-99626655D01*
X56689943Y-99626655D01*
G37*
D13*
X55000000Y-101000000D03*
D14*
X61000000Y-100000000D03*
D12*
G36*
X88189943Y-97626655D02*
G01*
X88223312Y-97631605D01*
X88256035Y-97639802D01*
X88287797Y-97651166D01*
X88318293Y-97665590D01*
X88347227Y-97682932D01*
X88374323Y-97703028D01*
X88399318Y-97725682D01*
X88421972Y-97750677D01*
X88442068Y-97777773D01*
X88459410Y-97806707D01*
X88473834Y-97837203D01*
X88485198Y-97868965D01*
X88493395Y-97901688D01*
X88498345Y-97935057D01*
X88500000Y-97968750D01*
X88500000Y-100031250D01*
X88498345Y-100064943D01*
X88493395Y-100098312D01*
X88485198Y-100131035D01*
X88473834Y-100162797D01*
X88459410Y-100193293D01*
X88442068Y-100222227D01*
X88421972Y-100249323D01*
X88399318Y-100274318D01*
X88374323Y-100296972D01*
X88347227Y-100317068D01*
X88318293Y-100334410D01*
X88287797Y-100348834D01*
X88256035Y-100360198D01*
X88223312Y-100368395D01*
X88189943Y-100373345D01*
X88156250Y-100375000D01*
X84843750Y-100375000D01*
X84810057Y-100373345D01*
X84776688Y-100368395D01*
X84743965Y-100360198D01*
X84712203Y-100348834D01*
X84681707Y-100334410D01*
X84652773Y-100317068D01*
X84625677Y-100296972D01*
X84600682Y-100274318D01*
X84578028Y-100249323D01*
X84557932Y-100222227D01*
X84540590Y-100193293D01*
X84526166Y-100162797D01*
X84514802Y-100131035D01*
X84506605Y-100098312D01*
X84501655Y-100064943D01*
X84500000Y-100031250D01*
X84500000Y-97968750D01*
X84501655Y-97935057D01*
X84506605Y-97901688D01*
X84514802Y-97868965D01*
X84526166Y-97837203D01*
X84540590Y-97806707D01*
X84557932Y-97777773D01*
X84578028Y-97750677D01*
X84600682Y-97725682D01*
X84625677Y-97703028D01*
X84652773Y-97682932D01*
X84681707Y-97665590D01*
X84712203Y-97651166D01*
X84743965Y-97639802D01*
X84776688Y-97631605D01*
X84810057Y-97626655D01*
X84843750Y-97625000D01*
X88156250Y-97625000D01*
X88189943Y-97626655D01*
X88189943Y-97626655D01*
G37*
D13*
X86500000Y-99000000D03*
D12*
G36*
X76189943Y-99626655D02*
G01*
X76223312Y-99631605D01*
X76256035Y-99639802D01*
X76287797Y-99651166D01*
X76318293Y-99665590D01*
X76347227Y-99682932D01*
X76374323Y-99703028D01*
X76399318Y-99725682D01*
X76421972Y-99750677D01*
X76442068Y-99777773D01*
X76459410Y-99806707D01*
X76473834Y-99837203D01*
X76485198Y-99868965D01*
X76493395Y-99901688D01*
X76498345Y-99935057D01*
X76500000Y-99968750D01*
X76500000Y-102031250D01*
X76498345Y-102064943D01*
X76493395Y-102098312D01*
X76485198Y-102131035D01*
X76473834Y-102162797D01*
X76459410Y-102193293D01*
X76442068Y-102222227D01*
X76421972Y-102249323D01*
X76399318Y-102274318D01*
X76374323Y-102296972D01*
X76347227Y-102317068D01*
X76318293Y-102334410D01*
X76287797Y-102348834D01*
X76256035Y-102360198D01*
X76223312Y-102368395D01*
X76189943Y-102373345D01*
X76156250Y-102375000D01*
X72843750Y-102375000D01*
X72810057Y-102373345D01*
X72776688Y-102368395D01*
X72743965Y-102360198D01*
X72712203Y-102348834D01*
X72681707Y-102334410D01*
X72652773Y-102317068D01*
X72625677Y-102296972D01*
X72600682Y-102274318D01*
X72578028Y-102249323D01*
X72557932Y-102222227D01*
X72540590Y-102193293D01*
X72526166Y-102162797D01*
X72514802Y-102131035D01*
X72506605Y-102098312D01*
X72501655Y-102064943D01*
X72500000Y-102031250D01*
X72500000Y-99968750D01*
X72501655Y-99935057D01*
X72506605Y-99901688D01*
X72514802Y-99868965D01*
X72526166Y-99837203D01*
X72540590Y-99806707D01*
X72557932Y-99777773D01*
X72578028Y-99750677D01*
X72600682Y-99725682D01*
X72625677Y-99703028D01*
X72652773Y-99682932D01*
X72681707Y-99665590D01*
X72712203Y-99651166D01*
X72743965Y-99639802D01*
X72776688Y-99631605D01*
X72810057Y-99626655D01*
X72843750Y-99625000D01*
X76156250Y-99625000D01*
X76189943Y-99626655D01*
X76189943Y-99626655D01*
G37*
D13*
X74500000Y-101000000D03*
D14*
X80500000Y-100000000D03*
D12*
G36*
X107689943Y-97626655D02*
G01*
X107723312Y-97631605D01*
X107756035Y-97639802D01*
X107787797Y-97651166D01*
X107818293Y-97665590D01*
X107847227Y-97682932D01*
X107874323Y-97703028D01*
X107899318Y-97725682D01*
X107921972Y-97750677D01*
X107942068Y-97777773D01*
X107959410Y-97806707D01*
X107973834Y-97837203D01*
X107985198Y-97868965D01*
X107993395Y-97901688D01*
X107998345Y-97935057D01*
X108000000Y-97968750D01*
X108000000Y-100031250D01*
X107998345Y-100064943D01*
X107993395Y-100098312D01*
X107985198Y-100131035D01*
X107973834Y-100162797D01*
X107959410Y-100193293D01*
X107942068Y-100222227D01*
X107921972Y-100249323D01*
X107899318Y-100274318D01*
X107874323Y-100296972D01*
X107847227Y-100317068D01*
X107818293Y-100334410D01*
X107787797Y-100348834D01*
X107756035Y-100360198D01*
X107723312Y-100368395D01*
X107689943Y-100373345D01*
X107656250Y-100375000D01*
X104343750Y-100375000D01*
X104310057Y-100373345D01*
X104276688Y-100368395D01*
X104243965Y-100360198D01*
X104212203Y-100348834D01*
X104181707Y-100334410D01*
X104152773Y-100317068D01*
X104125677Y-100296972D01*
X104100682Y-100274318D01*
X104078028Y-100249323D01*
X104057932Y-100222227D01*
X104040590Y-100193293D01*
X104026166Y-100162797D01*
X104014802Y-100131035D01*
X104006605Y-100098312D01*
X104001655Y-100064943D01*
X104000000Y-100031250D01*
X104000000Y-97968750D01*
X104001655Y-97935057D01*
X104006605Y-97901688D01*
X104014802Y-97868965D01*
X104026166Y-97837203D01*
X104040590Y-97806707D01*
X104057932Y-97777773D01*
X104078028Y-97750677D01*
X104100682Y-97725682D01*
X104125677Y-97703028D01*
X104152773Y-97682932D01*
X104181707Y-97665590D01*
X104212203Y-97651166D01*
X104243965Y-97639802D01*
X104276688Y-97631605D01*
X104310057Y-97626655D01*
X104343750Y-97625000D01*
X107656250Y-97625000D01*
X107689943Y-97626655D01*
X107689943Y-97626655D01*
G37*
D13*
X106000000Y-99000000D03*
D12*
G36*
X95689943Y-99626655D02*
G01*
X95723312Y-99631605D01*
X95756035Y-99639802D01*
X95787797Y-99651166D01*
X95818293Y-99665590D01*
X95847227Y-99682932D01*
X95874323Y-99703028D01*
X95899318Y-99725682D01*
X95921972Y-99750677D01*
X95942068Y-99777773D01*
X95959410Y-99806707D01*
X95973834Y-99837203D01*
X95985198Y-99868965D01*
X95993395Y-99901688D01*
X95998345Y-99935057D01*
X96000000Y-99968750D01*
X96000000Y-102031250D01*
X95998345Y-102064943D01*
X95993395Y-102098312D01*
X95985198Y-102131035D01*
X95973834Y-102162797D01*
X95959410Y-102193293D01*
X95942068Y-102222227D01*
X95921972Y-102249323D01*
X95899318Y-102274318D01*
X95874323Y-102296972D01*
X95847227Y-102317068D01*
X95818293Y-102334410D01*
X95787797Y-102348834D01*
X95756035Y-102360198D01*
X95723312Y-102368395D01*
X95689943Y-102373345D01*
X95656250Y-102375000D01*
X92343750Y-102375000D01*
X92310057Y-102373345D01*
X92276688Y-102368395D01*
X92243965Y-102360198D01*
X92212203Y-102348834D01*
X92181707Y-102334410D01*
X92152773Y-102317068D01*
X92125677Y-102296972D01*
X92100682Y-102274318D01*
X92078028Y-102249323D01*
X92057932Y-102222227D01*
X92040590Y-102193293D01*
X92026166Y-102162797D01*
X92014802Y-102131035D01*
X92006605Y-102098312D01*
X92001655Y-102064943D01*
X92000000Y-102031250D01*
X92000000Y-99968750D01*
X92001655Y-99935057D01*
X92006605Y-99901688D01*
X92014802Y-99868965D01*
X92026166Y-99837203D01*
X92040590Y-99806707D01*
X92057932Y-99777773D01*
X92078028Y-99750677D01*
X92100682Y-99725682D01*
X92125677Y-99703028D01*
X92152773Y-99682932D01*
X92181707Y-99665590D01*
X92212203Y-99651166D01*
X92243965Y-99639802D01*
X92276688Y-99631605D01*
X92310057Y-99626655D01*
X92343750Y-99625000D01*
X95656250Y-99625000D01*
X95689943Y-99626655D01*
X95689943Y-99626655D01*
G37*
D13*
X94000000Y-101000000D03*
D14*
X100000000Y-100000000D03*
D12*
G36*
X127189943Y-97626655D02*
G01*
X127223312Y-97631605D01*
X127256035Y-97639802D01*
X127287797Y-97651166D01*
X127318293Y-97665590D01*
X127347227Y-97682932D01*
X127374323Y-97703028D01*
X127399318Y-97725682D01*
X127421972Y-97750677D01*
X127442068Y-97777773D01*
X127459410Y-97806707D01*
X127473834Y-97837203D01*
X127485198Y-97868965D01*
X127493395Y-97901688D01*
X127498345Y-97935057D01*
X127500000Y-97968750D01*
X127500000Y-100031250D01*
X127498345Y-100064943D01*
X127493395Y-100098312D01*
X127485198Y-100131035D01*
X127473834Y-100162797D01*
X127459410Y-100193293D01*
X127442068Y-100222227D01*
X127421972Y-100249323D01*
X127399318Y-100274318D01*
X127374323Y-100296972D01*
X127347227Y-100317068D01*
X127318293Y-100334410D01*
X127287797Y-100348834D01*
X127256035Y-100360198D01*
X127223312Y-100368395D01*
X127189943Y-100373345D01*
X127156250Y-100375000D01*
X123843750Y-100375000D01*
X123810057Y-100373345D01*
X123776688Y-100368395D01*
X123743965Y-100360198D01*
X123712203Y-100348834D01*
X123681707Y-100334410D01*
X123652773Y-100317068D01*
X123625677Y-100296972D01*
X123600682Y-100274318D01*
X123578028Y-100249323D01*
X123557932Y-100222227D01*
X123540590Y-100193293D01*
X123526166Y-100162797D01*
X123514802Y-100131035D01*
X123506605Y-100098312D01*
X123501655Y-100064943D01*
X123500000Y-100031250D01*
X123500000Y-97968750D01*
X123501655Y-97935057D01*
X123506605Y-97901688D01*
X123514802Y-97868965D01*
X123526166Y-97837203D01*
X123540590Y-97806707D01*
X123557932Y-97777773D01*
X123578028Y-97750677D01*
X123600682Y-97725682D01*
X123625677Y-97703028D01*
X123652773Y-97682932D01*
X123681707Y-97665590D01*
X123712203Y-97651166D01*
X123743965Y-97639802D01*
X123776688Y-97631605D01*
X123810057Y-97626655D01*
X123843750Y-97625000D01*
X127156250Y-97625000D01*
X127189943Y-97626655D01*
X127189943Y-97626655D01*
G37*
D13*
X125500000Y-99000000D03*
D12*
G36*
X115189943Y-99626655D02*
G01*
X115223312Y-99631605D01*
X115256035Y-99639802D01*
X115287797Y-99651166D01*
X115318293Y-99665590D01*
X115347227Y-99682932D01*
X115374323Y-99703028D01*
X115399318Y-99725682D01*
X115421972Y-99750677D01*
X115442068Y-99777773D01*
X115459410Y-99806707D01*
X115473834Y-99837203D01*
X115485198Y-99868965D01*
X115493395Y-99901688D01*
X115498345Y-99935057D01*
X115500000Y-99968750D01*
X115500000Y-102031250D01*
X115498345Y-102064943D01*
X115493395Y-102098312D01*
X115485198Y-102131035D01*
X115473834Y-102162797D01*
X115459410Y-102193293D01*
X115442068Y-102222227D01*
X115421972Y-102249323D01*
X115399318Y-102274318D01*
X115374323Y-102296972D01*
X115347227Y-102317068D01*
X115318293Y-102334410D01*
X115287797Y-102348834D01*
X115256035Y-102360198D01*
X115223312Y-102368395D01*
X115189943Y-102373345D01*
X115156250Y-102375000D01*
X111843750Y-102375000D01*
X111810057Y-102373345D01*
X111776688Y-102368395D01*
X111743965Y-102360198D01*
X111712203Y-102348834D01*
X111681707Y-102334410D01*
X111652773Y-102317068D01*
X111625677Y-102296972D01*
X111600682Y-102274318D01*
X111578028Y-102249323D01*
X111557932Y-102222227D01*
X111540590Y-102193293D01*
X111526166Y-102162797D01*
X111514802Y-102131035D01*
X111506605Y-102098312D01*
X111501655Y-102064943D01*
X111500000Y-102031250D01*
X111500000Y-99968750D01*
X111501655Y-99935057D01*
X111506605Y-99901688D01*
X111514802Y-99868965D01*
X111526166Y-99837203D01*
X111540590Y-99806707D01*
X111557932Y-99777773D01*
X111578028Y-99750677D01*
X111600682Y-99725682D01*
X111625677Y-99703028D01*
X111652773Y-99682932D01*
X111681707Y-99665590D01*
X111712203Y-99651166D01*
X111743965Y-99639802D01*
X111776688Y-99631605D01*
X111810057Y-99626655D01*
X111843750Y-99625000D01*
X115156250Y-99625000D01*
X115189943Y-99626655D01*
X115189943Y-99626655D01*
G37*
D13*
X113500000Y-101000000D03*
D14*
X119500000Y-100000000D03*
D12*
G36*
X146689943Y-97626655D02*
G01*
X146723312Y-97631605D01*
X146756035Y-97639802D01*
X146787797Y-97651166D01*
X146818293Y-97665590D01*
X146847227Y-97682932D01*
X146874323Y-97703028D01*
X146899318Y-97725682D01*
X146921972Y-97750677D01*
X146942068Y-97777773D01*
X146959410Y-97806707D01*
X146973834Y-97837203D01*
X146985198Y-97868965D01*
X146993395Y-97901688D01*
X146998345Y-97935057D01*
X147000000Y-97968750D01*
X147000000Y-100031250D01*
X146998345Y-100064943D01*
X146993395Y-100098312D01*
X146985198Y-100131035D01*
X146973834Y-100162797D01*
X146959410Y-100193293D01*
X146942068Y-100222227D01*
X146921972Y-100249323D01*
X146899318Y-100274318D01*
X146874323Y-100296972D01*
X146847227Y-100317068D01*
X146818293Y-100334410D01*
X146787797Y-100348834D01*
X146756035Y-100360198D01*
X146723312Y-100368395D01*
X146689943Y-100373345D01*
X146656250Y-100375000D01*
X143343750Y-100375000D01*
X143310057Y-100373345D01*
X143276688Y-100368395D01*
X143243965Y-100360198D01*
X143212203Y-100348834D01*
X143181707Y-100334410D01*
X143152773Y-100317068D01*
X143125677Y-100296972D01*
X143100682Y-100274318D01*
X143078028Y-100249323D01*
X143057932Y-100222227D01*
X143040590Y-100193293D01*
X143026166Y-100162797D01*
X143014802Y-100131035D01*
X143006605Y-100098312D01*
X143001655Y-100064943D01*
X143000000Y-100031250D01*
X143000000Y-97968750D01*
X143001655Y-97935057D01*
X143006605Y-97901688D01*
X143014802Y-97868965D01*
X143026166Y-97837203D01*
X143040590Y-97806707D01*
X143057932Y-97777773D01*
X143078028Y-97750677D01*
X143100682Y-97725682D01*
X143125677Y-97703028D01*
X143152773Y-97682932D01*
X143181707Y-97665590D01*
X143212203Y-97651166D01*
X143243965Y-97639802D01*
X143276688Y-97631605D01*
X143310057Y-97626655D01*
X143343750Y-97625000D01*
X146656250Y-97625000D01*
X146689943Y-97626655D01*
X146689943Y-97626655D01*
G37*
D13*
X145000000Y-99000000D03*
D12*
G36*
X134689943Y-99626655D02*
G01*
X134723312Y-99631605D01*
X134756035Y-99639802D01*
X134787797Y-99651166D01*
X134818293Y-99665590D01*
X134847227Y-99682932D01*
X134874323Y-99703028D01*
X134899318Y-99725682D01*
X134921972Y-99750677D01*
X134942068Y-99777773D01*
X134959410Y-99806707D01*
X134973834Y-99837203D01*
X134985198Y-99868965D01*
X134993395Y-99901688D01*
X134998345Y-99935057D01*
X135000000Y-99968750D01*
X135000000Y-102031250D01*
X134998345Y-102064943D01*
X134993395Y-102098312D01*
X134985198Y-102131035D01*
X134973834Y-102162797D01*
X134959410Y-102193293D01*
X134942068Y-102222227D01*
X134921972Y-102249323D01*
X134899318Y-102274318D01*
X134874323Y-102296972D01*
X134847227Y-102317068D01*
X134818293Y-102334410D01*
X134787797Y-102348834D01*
X134756035Y-102360198D01*
X134723312Y-102368395D01*
X134689943Y-102373345D01*
X134656250Y-102375000D01*
X131343750Y-102375000D01*
X131310057Y-102373345D01*
X131276688Y-102368395D01*
X131243965Y-102360198D01*
X131212203Y-102348834D01*
X131181707Y-102334410D01*
X131152773Y-102317068D01*
X131125677Y-102296972D01*
X131100682Y-102274318D01*
X131078028Y-102249323D01*
X131057932Y-102222227D01*
X131040590Y-102193293D01*
X131026166Y-102162797D01*
X131014802Y-102131035D01*
X131006605Y-102098312D01*
X131001655Y-102064943D01*
X131000000Y-102031250D01*
X131000000Y-99968750D01*
X131001655Y-99935057D01*
X131006605Y-99901688D01*
X131014802Y-99868965D01*
X131026166Y-99837203D01*
X131040590Y-99806707D01*
X131057932Y-99777773D01*
X131078028Y-99750677D01*
X131100682Y-99725682D01*
X131125677Y-99703028D01*
X131152773Y-99682932D01*
X131181707Y-99665590D01*
X131212203Y-99651166D01*
X131243965Y-99639802D01*
X131276688Y-99631605D01*
X131310057Y-99626655D01*
X131343750Y-99625000D01*
X134656250Y-99625000D01*
X134689943Y-99626655D01*
X134689943Y-99626655D01*
G37*
D13*
X133000000Y-101000000D03*
D14*
X139000000Y-100000000D03*
M02*
