M48
; DRILL file {KiCad (5.1.4)-1} date 9/24/2020 10:32:23 PM
; FORMAT={-:-/ absolute / inch / decimal}
; #@! TF.CreationDate,2020-09-24T22:32:23-04:00
; #@! TF.GenerationSoftware,Kicad,Pcbnew,(5.1.4)-1
; #@! TF.FileFunction,Plated,1,2,PTH
FMAT,2
INCH
T1C0.0197
T2C0.0250
T3C0.1260
%
G90
G05
T1
X2.6614Y-3.5827
X2.6891Y-3.5159
X2.6891Y-3.6495
X2.7559Y-3.4882
X2.7559Y-3.6772
X2.8227Y-3.5159
X2.8227Y-3.6495
X2.8504Y-3.5827
X5.0236Y-4.2913
X5.0513Y-4.2245
X5.0513Y-4.3582
X5.1181Y-4.1969
X5.1181Y-4.3858
X5.1849Y-4.2245
X5.1849Y-4.3582
X5.2126Y-4.2913
X2.6614Y-4.2913
X2.6891Y-4.2245
X2.6891Y-4.3582
X2.7559Y-4.1969
X2.7559Y-4.3858
X2.8227Y-4.2245
X2.8227Y-4.3582
X2.8504Y-4.2913
X5.0236Y-3.5827
X5.0513Y-3.5159
X5.0513Y-3.6495
X5.1181Y-3.4882
X5.1181Y-3.6772
X5.1849Y-3.5159
X5.1849Y-3.6495
X5.2126Y-3.5827
T2
X2.0472Y-3.7795
X2.0472Y-4.0945
X2.0866Y-3.7008
X2.0866Y-3.8583
X2.0866Y-4.1732
X2.126Y-3.7795
X2.126Y-4.0945
X2.1654Y-3.7008
X2.1654Y-4.1732
X2.2047Y-4.0945
X2.2441Y-3.7008
X2.2441Y-4.1732
X2.2835Y-3.622
X2.2835Y-4.0945
X2.2835Y-4.252
X2.3228Y-3.7008
X2.3228Y-3.937
X2.3228Y-4.1732
X2.3622Y-3.622
X2.3622Y-4.0945
X2.3622Y-4.252
X2.4016Y-3.7008
X2.4016Y-3.8583
X2.4016Y-3.937
X2.4016Y-4.0157
X2.4016Y-4.1732
X2.4409Y-3.622
X2.4409Y-4.0945
X2.4409Y-4.252
X2.4803Y-3.7008
X2.4803Y-3.937
X2.4803Y-4.1732
X2.5197Y-3.622
X2.5197Y-4.0945
X2.5197Y-4.252
X2.5591Y-3.7008
X2.5591Y-4.1732
X2.5984Y-3.622
X2.5984Y-4.0945
X2.5984Y-4.252
X2.6378Y-3.7008
X2.6378Y-4.0157
X2.6378Y-4.1732
X2.6772Y-4.0945
X2.7165Y-4.0157
X2.7559Y-4.0945
X2.8346Y-3.8583
X2.8346Y-4.0945
X2.874Y-3.7008
X2.874Y-4.1732
X2.9134Y-3.622
X2.9134Y-3.8583
X2.9134Y-4.0945
X2.9134Y-4.252
X2.9528Y-3.7008
X2.9528Y-4.1732
X2.9921Y-3.622
X2.9921Y-3.8583
X2.9921Y-4.0945
X2.9921Y-4.252
X3.0315Y-3.7008
X3.0315Y-4.1732
X3.0709Y-3.622
X3.0709Y-4.0945
X3.0709Y-4.252
X3.0906Y-3.937
X3.1102Y-3.7008
X3.1102Y-4.1732
X3.1496Y-3.622
X3.1496Y-4.0945
X3.1496Y-4.252
X3.1693Y-3.8583
X3.1693Y-3.937
X3.1693Y-4.0157
X3.189Y-3.7008
X3.189Y-4.1732
X3.2283Y-3.622
X3.2283Y-4.0945
X3.2283Y-4.252
X3.248Y-3.937
X3.2677Y-3.7008
X3.2677Y-4.1732
X3.3071Y-3.622
X3.3071Y-4.0945
X3.3071Y-4.252
X3.3465Y-3.7008
X3.3465Y-4.0157
X3.3465Y-4.1732
X3.3858Y-3.622
X3.3858Y-4.0945
X3.3858Y-4.252
X3.4252Y-3.7008
X3.4252Y-4.0157
X3.4252Y-4.1732
X3.4646Y-3.622
X3.4646Y-4.0945
X3.4646Y-4.252
X3.5039Y-3.7008
X3.5039Y-4.0157
X3.5039Y-4.1732
X3.5433Y-3.622
X3.5433Y-4.0945
X3.5433Y-4.252
X3.5827Y-3.7008
X3.5827Y-4.1732
X3.622Y-3.622
X3.622Y-3.8583
X3.622Y-4.0945
X3.622Y-4.252
X3.6614Y-3.7008
X3.6614Y-4.1732
X3.7008Y-3.622
X3.7008Y-3.8583
X3.7008Y-4.0945
X3.7008Y-4.252
X3.7402Y-3.7008
X3.7402Y-4.1732
X3.7795Y-3.622
X3.7795Y-4.0945
X3.7795Y-4.252
X3.8189Y-3.7008
X3.8189Y-4.1732
X3.8583Y-3.622
X3.8583Y-3.937
X3.8583Y-4.0945
X3.8583Y-4.252
X3.8976Y-3.7008
X3.8976Y-4.1732
X3.937Y-3.622
X3.937Y-3.8583
X3.937Y-3.937
X3.937Y-4.0157
X3.937Y-4.0945
X3.937Y-4.252
X3.9764Y-3.7008
X3.9764Y-4.1732
X4.0157Y-3.622
X4.0157Y-3.937
X4.0157Y-4.0945
X4.0157Y-4.252
X4.0551Y-3.7008
X4.0551Y-4.1732
X4.0945Y-3.622
X4.0945Y-4.0945
X4.0945Y-4.252
X4.1339Y-3.7008
X4.1339Y-4.0157
X4.1339Y-4.1732
X4.1732Y-3.622
X4.1732Y-4.0945
X4.1732Y-4.252
X4.2126Y-3.7008
X4.2126Y-4.0157
X4.2126Y-4.1732
X4.252Y-3.622
X4.252Y-4.0945
X4.252Y-4.252
X4.2913Y-3.7008
X4.2913Y-4.0157
X4.2913Y-4.1732
X4.3307Y-3.622
X4.3307Y-4.0945
X4.3307Y-4.252
X4.3701Y-3.7008
X4.3701Y-4.1732
X4.4094Y-3.622
X4.4094Y-3.8583
X4.4094Y-4.0945
X4.4094Y-4.252
X4.4488Y-4.1732
X4.4882Y-3.8583
X4.4882Y-4.0945
X4.4882Y-4.252
X4.5276Y-4.1732
X4.5472Y-3.6614
X4.5669Y-4.0945
X4.5669Y-4.252
X4.6063Y-4.1732
X4.626Y-3.937
X4.6457Y-4.0945
X4.6457Y-4.252
X4.685Y-4.1732
X4.7047Y-3.8583
X4.7047Y-3.937
X4.7047Y-4.0157
X4.7244Y-4.0945
X4.7244Y-4.252
X4.7638Y-3.6614
X4.7638Y-4.1732
X4.7835Y-3.937
X4.8031Y-4.0945
X4.8031Y-4.252
X4.8425Y-4.1732
X4.8819Y-3.622
X4.8819Y-4.0945
X4.8819Y-4.252
X4.9213Y-3.7008
X4.9213Y-4.0157
X4.9213Y-4.1732
X4.9606Y-3.622
X4.9606Y-4.0945
X4.9606Y-4.252
X5.0Y-3.7008
X5.0Y-4.0157
X5.0Y-4.1732
X5.0394Y-4.0945
X5.1181Y-3.8583
X5.1181Y-4.0945
X5.1969Y-3.8583
X5.1969Y-4.0945
X5.2362Y-3.7008
X5.2362Y-4.1732
X5.2756Y-3.622
X5.2756Y-3.8583
X5.2756Y-4.0945
X5.2756Y-4.252
X5.315Y-3.7008
X5.315Y-4.1732
X5.3543Y-3.622
X5.3543Y-4.0945
X5.3543Y-4.252
X5.3937Y-3.7008
X5.3937Y-3.937
X5.3937Y-4.1732
X5.4331Y-3.622
X5.4331Y-4.0945
X5.4331Y-4.252
X5.4724Y-3.7008
X5.4724Y-3.8583
X5.4724Y-3.937
X5.4724Y-4.0157
X5.4724Y-4.1732
X5.5118Y-3.622
X5.5118Y-4.0945
X5.5118Y-4.252
X5.5512Y-3.7008
X5.5512Y-3.937
X5.5512Y-4.1732
X5.5906Y-3.622
X5.5906Y-4.0945
X5.5906Y-4.252
X5.6299Y-3.7008
X5.6299Y-4.0157
X5.6299Y-4.1732
X5.6693Y-4.0945
X5.7087Y-3.7008
X5.7087Y-4.0157
X5.7087Y-4.1732
X5.748Y-4.0945
X5.7874Y-3.7008
X5.7874Y-4.0157
X5.7874Y-4.1732
X5.8268Y-3.7795
X5.8268Y-4.0945
T3
X5.1181Y-4.2913
X2.7559Y-4.2913
X5.1181Y-3.5827
X2.7559Y-3.5827
T0
M30
