G04 #@! TF.GenerationSoftware,KiCad,Pcbnew,(5.1.4)-1*
G04 #@! TF.CreationDate,2020-09-26T21:24:12-04:00*
G04 #@! TF.ProjectId,SOC Indicator Sub,534f4320-496e-4646-9963-61746f722053,rev?*
G04 #@! TF.SameCoordinates,Original*
G04 #@! TF.FileFunction,Copper,L1,Top*
G04 #@! TF.FilePolarity,Positive*
%FSLAX46Y46*%
G04 Gerber Fmt 4.6, Leading zero omitted, Abs format (unit mm)*
G04 Created by KiCad (PCBNEW (5.1.4)-1) date 2020-09-26 21:24:12*
%MOMM*%
%LPD*%
G04 APERTURE LIST*
%ADD10C,1.800000*%
%ADD11R,1.800000X1.800000*%
%ADD12O,1.700000X1.700000*%
%ADD13R,1.700000X1.700000*%
%ADD14C,0.254000*%
%ADD15C,0.152400*%
G04 APERTURE END LIST*
D10*
X100000000Y-98730000D03*
D11*
X100000000Y-101270000D03*
D10*
X105000000Y-101270000D03*
D11*
X105000000Y-98730000D03*
D10*
X110000000Y-98730000D03*
D11*
X110000000Y-101270000D03*
D10*
X115000000Y-101270000D03*
D11*
X115000000Y-98730000D03*
D10*
X120000000Y-98730000D03*
D11*
X120000000Y-101270000D03*
D10*
X125000000Y-101270000D03*
D11*
X125000000Y-98730000D03*
D10*
X130000000Y-98730000D03*
D11*
X130000000Y-101270000D03*
D10*
X135000000Y-101270000D03*
D11*
X135000000Y-98730000D03*
D10*
X140000000Y-98730000D03*
D11*
X140000000Y-101270000D03*
D10*
X145000000Y-101270000D03*
D11*
X145000000Y-98730000D03*
D12*
X111000000Y-93460000D03*
X111000000Y-96000000D03*
X113540000Y-93460000D03*
X113540000Y-96000000D03*
X116080000Y-93460000D03*
X116080000Y-96000000D03*
X118620000Y-93460000D03*
X118620000Y-96000000D03*
X121160000Y-93460000D03*
D13*
X121160000Y-96000000D03*
D14*
X131154000Y-101270000D02*
X135000000Y-101270000D01*
X130000000Y-101270000D02*
X131154000Y-101270000D01*
X130000000Y-98730000D02*
X135000000Y-98730000D01*
X130000000Y-98730000D02*
X128070000Y-98730000D01*
X128070000Y-98730000D02*
X126800000Y-100000000D01*
X126800000Y-100000000D02*
X124100000Y-100000000D01*
X124060201Y-99960201D02*
X119360201Y-99960201D01*
X124100000Y-100000000D02*
X124060201Y-99960201D01*
X119360201Y-99960201D02*
X118700000Y-99300000D01*
X118700000Y-99300000D02*
X118700000Y-98100000D01*
X118700000Y-98100000D02*
X119900000Y-96900000D01*
X119900000Y-94740000D02*
X118620000Y-93460000D01*
X119900000Y-96900000D02*
X119900000Y-94740000D01*
X121154000Y-101270000D02*
X125000000Y-101270000D01*
X120000000Y-101270000D02*
X121154000Y-101270000D01*
X117300000Y-97220000D02*
X116080000Y-96000000D01*
X117300000Y-100300000D02*
X117300000Y-97220000D01*
X120000000Y-101270000D02*
X118270000Y-101270000D01*
X118270000Y-101270000D02*
X117300000Y-100300000D01*
X120000000Y-98730000D02*
X125000000Y-98730000D01*
X111154000Y-101270000D02*
X115000000Y-101270000D01*
X110000000Y-101270000D02*
X111154000Y-101270000D01*
X115000000Y-101270000D02*
X116300000Y-99970000D01*
X116300000Y-99970000D02*
X116300000Y-97700000D01*
X116300000Y-97700000D02*
X115900000Y-97300000D01*
X114840000Y-97300000D02*
X113540000Y-96000000D01*
X115900000Y-97300000D02*
X114840000Y-97300000D01*
X112230000Y-94770000D02*
X113540000Y-93460000D01*
X112230000Y-98730000D02*
X112230000Y-94770000D01*
X112230000Y-98730000D02*
X115000000Y-98730000D01*
X110000000Y-98730000D02*
X112230000Y-98730000D01*
X100000000Y-101270000D02*
X105000000Y-101270000D01*
X106272792Y-101270000D02*
X106400000Y-101142792D01*
X105000000Y-101270000D02*
X106272792Y-101270000D01*
X106400000Y-101142792D02*
X106400000Y-100000000D01*
X106400000Y-100000000D02*
X109100000Y-97300000D01*
X109700000Y-97300000D02*
X111000000Y-96000000D01*
X109100000Y-97300000D02*
X109700000Y-97300000D01*
X100000000Y-98730000D02*
X105000000Y-98730000D01*
X105000000Y-98730000D02*
X106870000Y-98730000D01*
X106870000Y-98730000D02*
X109400000Y-96200000D01*
X109400000Y-95060000D02*
X111000000Y-93460000D01*
X109400000Y-96200000D02*
X109400000Y-95060000D01*
D15*
G36*
X122945321Y-89572614D02*
G01*
X122960062Y-89577065D01*
X122973653Y-89584291D01*
X122985587Y-89594024D01*
X122995400Y-89605886D01*
X123002724Y-89619431D01*
X123007277Y-89634138D01*
X123010899Y-89668601D01*
X123010898Y-95020580D01*
X123012759Y-95039474D01*
X123012672Y-95051948D01*
X123013243Y-95057772D01*
X123054044Y-95445965D01*
X123061672Y-95483127D01*
X123068799Y-95520486D01*
X123070491Y-95526088D01*
X123185915Y-95898963D01*
X123200619Y-95933941D01*
X123214864Y-95969199D01*
X123217611Y-95974366D01*
X123403262Y-96317721D01*
X123424499Y-96349206D01*
X123445303Y-96380997D01*
X123449001Y-96385532D01*
X123697808Y-96686287D01*
X123724752Y-96713044D01*
X123751337Y-96740191D01*
X123755846Y-96743921D01*
X124058331Y-96990622D01*
X124089936Y-97011620D01*
X124121311Y-97033103D01*
X124126459Y-97035886D01*
X124471101Y-97219136D01*
X124506193Y-97233600D01*
X124541134Y-97248575D01*
X124546724Y-97250306D01*
X124920396Y-97363124D01*
X124957680Y-97370506D01*
X124994812Y-97378399D01*
X125000632Y-97379011D01*
X125389101Y-97417101D01*
X125389112Y-97417101D01*
X125409418Y-97419101D01*
X144979508Y-97419101D01*
X145500909Y-97470224D01*
X145982735Y-97615697D01*
X145984983Y-97616893D01*
X145944813Y-97604708D01*
X145900000Y-97600294D01*
X145298450Y-97601400D01*
X145241300Y-97658550D01*
X145241300Y-98488700D01*
X146071450Y-98488700D01*
X146128600Y-98431550D01*
X146129706Y-97830000D01*
X146125292Y-97785187D01*
X146112221Y-97742095D01*
X146090994Y-97702382D01*
X146062427Y-97667573D01*
X146029542Y-97640585D01*
X146427137Y-97851990D01*
X146817169Y-98170091D01*
X147137994Y-98557902D01*
X147377381Y-99000638D01*
X147526216Y-99481442D01*
X147578826Y-99981995D01*
X147533209Y-100483235D01*
X147391103Y-100966068D01*
X147157920Y-101412107D01*
X146842545Y-101804355D01*
X146456987Y-102127876D01*
X146015931Y-102370350D01*
X145536181Y-102522535D01*
X145017001Y-102580771D01*
X144998511Y-102580900D01*
X100020509Y-102580900D01*
X99499092Y-102529775D01*
X99237352Y-102450751D01*
X100900000Y-102450751D01*
X100954772Y-102445356D01*
X101007439Y-102429380D01*
X101055977Y-102403436D01*
X101098521Y-102368521D01*
X101133436Y-102325977D01*
X101159380Y-102277439D01*
X101175356Y-102224772D01*
X101180751Y-102170000D01*
X101180751Y-101676400D01*
X103891762Y-101676400D01*
X103954829Y-101828656D01*
X104083900Y-102021824D01*
X104248176Y-102186100D01*
X104441344Y-102315171D01*
X104655982Y-102404077D01*
X104883839Y-102449400D01*
X105116161Y-102449400D01*
X105344018Y-102404077D01*
X105558656Y-102315171D01*
X105751824Y-102186100D01*
X105916100Y-102021824D01*
X106045171Y-101828656D01*
X106108238Y-101676400D01*
X106252839Y-101676400D01*
X106272792Y-101678365D01*
X106292745Y-101676400D01*
X106292752Y-101676400D01*
X106352460Y-101670519D01*
X106429067Y-101647281D01*
X106499668Y-101609544D01*
X106561550Y-101558758D01*
X106574275Y-101543253D01*
X106673251Y-101444277D01*
X106688758Y-101431550D01*
X106739544Y-101369668D01*
X106777281Y-101299067D01*
X106800519Y-101222460D01*
X106806400Y-101162752D01*
X106806400Y-101162746D01*
X106808365Y-101142793D01*
X106806400Y-101122840D01*
X106806400Y-100168336D01*
X109268337Y-97706400D01*
X109409061Y-97706400D01*
X109248176Y-97813900D01*
X109083900Y-97978176D01*
X108954829Y-98171344D01*
X108865923Y-98385982D01*
X108820600Y-98613839D01*
X108820600Y-98846161D01*
X108865923Y-99074018D01*
X108954829Y-99288656D01*
X109083900Y-99481824D01*
X109248176Y-99646100D01*
X109441344Y-99775171D01*
X109655982Y-99864077D01*
X109883839Y-99909400D01*
X110116161Y-99909400D01*
X110344018Y-99864077D01*
X110558656Y-99775171D01*
X110751824Y-99646100D01*
X110916100Y-99481824D01*
X111045171Y-99288656D01*
X111108238Y-99136400D01*
X112210040Y-99136400D01*
X112230000Y-99138366D01*
X112249960Y-99136400D01*
X113819249Y-99136400D01*
X113819249Y-99630000D01*
X113824644Y-99684772D01*
X113840620Y-99737439D01*
X113866564Y-99785977D01*
X113901479Y-99828521D01*
X113944023Y-99863436D01*
X113992561Y-99889380D01*
X114045228Y-99905356D01*
X114100000Y-99910751D01*
X115784512Y-99910751D01*
X115496274Y-100198989D01*
X115344018Y-100135923D01*
X115116161Y-100090600D01*
X114883839Y-100090600D01*
X114655982Y-100135923D01*
X114441344Y-100224829D01*
X114248176Y-100353900D01*
X114083900Y-100518176D01*
X113954829Y-100711344D01*
X113891762Y-100863600D01*
X111180751Y-100863600D01*
X111180751Y-100370000D01*
X111175356Y-100315228D01*
X111159380Y-100262561D01*
X111133436Y-100214023D01*
X111098521Y-100171479D01*
X111055977Y-100136564D01*
X111007439Y-100110620D01*
X110954772Y-100094644D01*
X110900000Y-100089249D01*
X109100000Y-100089249D01*
X109045228Y-100094644D01*
X108992561Y-100110620D01*
X108944023Y-100136564D01*
X108901479Y-100171479D01*
X108866564Y-100214023D01*
X108840620Y-100262561D01*
X108824644Y-100315228D01*
X108819249Y-100370000D01*
X108819249Y-102170000D01*
X108824644Y-102224772D01*
X108840620Y-102277439D01*
X108866564Y-102325977D01*
X108901479Y-102368521D01*
X108944023Y-102403436D01*
X108992561Y-102429380D01*
X109045228Y-102445356D01*
X109100000Y-102450751D01*
X110900000Y-102450751D01*
X110954772Y-102445356D01*
X111007439Y-102429380D01*
X111055977Y-102403436D01*
X111098521Y-102368521D01*
X111133436Y-102325977D01*
X111159380Y-102277439D01*
X111175356Y-102224772D01*
X111180751Y-102170000D01*
X111180751Y-101676400D01*
X113891762Y-101676400D01*
X113954829Y-101828656D01*
X114083900Y-102021824D01*
X114248176Y-102186100D01*
X114441344Y-102315171D01*
X114655982Y-102404077D01*
X114883839Y-102449400D01*
X115116161Y-102449400D01*
X115344018Y-102404077D01*
X115558656Y-102315171D01*
X115751824Y-102186100D01*
X115916100Y-102021824D01*
X116045171Y-101828656D01*
X116134077Y-101614018D01*
X116179400Y-101386161D01*
X116179400Y-101153839D01*
X116134077Y-100925982D01*
X116071011Y-100773726D01*
X116573261Y-100271476D01*
X116588758Y-100258758D01*
X116601477Y-100243260D01*
X116601482Y-100243255D01*
X116620337Y-100220279D01*
X116639544Y-100196876D01*
X116677281Y-100126275D01*
X116682030Y-100110620D01*
X116700519Y-100049669D01*
X116703159Y-100022862D01*
X116706400Y-99989960D01*
X116706400Y-99989953D01*
X116708365Y-99970000D01*
X116706400Y-99950047D01*
X116706400Y-97719952D01*
X116708365Y-97699999D01*
X116706400Y-97680046D01*
X116706400Y-97680040D01*
X116700749Y-97622671D01*
X116700519Y-97620331D01*
X116688273Y-97579962D01*
X116677281Y-97543725D01*
X116639544Y-97473124D01*
X116588758Y-97411242D01*
X116573254Y-97398518D01*
X116289014Y-97114278D01*
X116301401Y-97113058D01*
X116514294Y-97048478D01*
X116540001Y-97034737D01*
X116893601Y-97388338D01*
X116893600Y-100280047D01*
X116891635Y-100300000D01*
X116893600Y-100319953D01*
X116893600Y-100319959D01*
X116899481Y-100379667D01*
X116922719Y-100456274D01*
X116960456Y-100526875D01*
X117011242Y-100588758D01*
X117026746Y-100601482D01*
X117968518Y-101543254D01*
X117981242Y-101558758D01*
X118043124Y-101609544D01*
X118113725Y-101647281D01*
X118172502Y-101665110D01*
X118190331Y-101670519D01*
X118198335Y-101671307D01*
X118250040Y-101676400D01*
X118250046Y-101676400D01*
X118269999Y-101678365D01*
X118289952Y-101676400D01*
X118819249Y-101676400D01*
X118819249Y-102170000D01*
X118824644Y-102224772D01*
X118840620Y-102277439D01*
X118866564Y-102325977D01*
X118901479Y-102368521D01*
X118944023Y-102403436D01*
X118992561Y-102429380D01*
X119045228Y-102445356D01*
X119100000Y-102450751D01*
X120900000Y-102450751D01*
X120954772Y-102445356D01*
X121007439Y-102429380D01*
X121055977Y-102403436D01*
X121098521Y-102368521D01*
X121133436Y-102325977D01*
X121159380Y-102277439D01*
X121175356Y-102224772D01*
X121180751Y-102170000D01*
X121180751Y-101676400D01*
X123891762Y-101676400D01*
X123954829Y-101828656D01*
X124083900Y-102021824D01*
X124248176Y-102186100D01*
X124441344Y-102315171D01*
X124655982Y-102404077D01*
X124883839Y-102449400D01*
X125116161Y-102449400D01*
X125344018Y-102404077D01*
X125558656Y-102315171D01*
X125751824Y-102186100D01*
X125916100Y-102021824D01*
X126045171Y-101828656D01*
X126134077Y-101614018D01*
X126179400Y-101386161D01*
X126179400Y-101153839D01*
X126134077Y-100925982D01*
X126045171Y-100711344D01*
X125916100Y-100518176D01*
X125804324Y-100406400D01*
X126780047Y-100406400D01*
X126800000Y-100408365D01*
X126819953Y-100406400D01*
X126819960Y-100406400D01*
X126879668Y-100400519D01*
X126956275Y-100377281D01*
X126969896Y-100370000D01*
X128819249Y-100370000D01*
X128819249Y-102170000D01*
X128824644Y-102224772D01*
X128840620Y-102277439D01*
X128866564Y-102325977D01*
X128901479Y-102368521D01*
X128944023Y-102403436D01*
X128992561Y-102429380D01*
X129045228Y-102445356D01*
X129100000Y-102450751D01*
X130900000Y-102450751D01*
X130954772Y-102445356D01*
X131007439Y-102429380D01*
X131055977Y-102403436D01*
X131098521Y-102368521D01*
X131133436Y-102325977D01*
X131159380Y-102277439D01*
X131175356Y-102224772D01*
X131180751Y-102170000D01*
X131180751Y-101676400D01*
X133891762Y-101676400D01*
X133954829Y-101828656D01*
X134083900Y-102021824D01*
X134248176Y-102186100D01*
X134441344Y-102315171D01*
X134655982Y-102404077D01*
X134883839Y-102449400D01*
X135116161Y-102449400D01*
X135344018Y-102404077D01*
X135558656Y-102315171D01*
X135751824Y-102186100D01*
X135916100Y-102021824D01*
X136045171Y-101828656D01*
X136134077Y-101614018D01*
X136179400Y-101386161D01*
X136179400Y-101153839D01*
X136134077Y-100925982D01*
X136045171Y-100711344D01*
X135916100Y-100518176D01*
X135767924Y-100370000D01*
X138819249Y-100370000D01*
X138819249Y-102170000D01*
X138824644Y-102224772D01*
X138840620Y-102277439D01*
X138866564Y-102325977D01*
X138901479Y-102368521D01*
X138944023Y-102403436D01*
X138992561Y-102429380D01*
X139045228Y-102445356D01*
X139100000Y-102450751D01*
X140900000Y-102450751D01*
X140954772Y-102445356D01*
X141007439Y-102429380D01*
X141055977Y-102403436D01*
X141098521Y-102368521D01*
X141133436Y-102325977D01*
X141159380Y-102277439D01*
X141175356Y-102224772D01*
X141180751Y-102170000D01*
X141180751Y-101153839D01*
X143820600Y-101153839D01*
X143820600Y-101386161D01*
X143865923Y-101614018D01*
X143954829Y-101828656D01*
X144083900Y-102021824D01*
X144248176Y-102186100D01*
X144441344Y-102315171D01*
X144655982Y-102404077D01*
X144883839Y-102449400D01*
X145116161Y-102449400D01*
X145344018Y-102404077D01*
X145558656Y-102315171D01*
X145751824Y-102186100D01*
X145916100Y-102021824D01*
X146045171Y-101828656D01*
X146134077Y-101614018D01*
X146179400Y-101386161D01*
X146179400Y-101153839D01*
X146134077Y-100925982D01*
X146045171Y-100711344D01*
X145916100Y-100518176D01*
X145751824Y-100353900D01*
X145558656Y-100224829D01*
X145344018Y-100135923D01*
X145116161Y-100090600D01*
X144883839Y-100090600D01*
X144655982Y-100135923D01*
X144441344Y-100224829D01*
X144248176Y-100353900D01*
X144083900Y-100518176D01*
X143954829Y-100711344D01*
X143865923Y-100925982D01*
X143820600Y-101153839D01*
X141180751Y-101153839D01*
X141180751Y-100370000D01*
X141175356Y-100315228D01*
X141159380Y-100262561D01*
X141133436Y-100214023D01*
X141098521Y-100171479D01*
X141055977Y-100136564D01*
X141007439Y-100110620D01*
X140954772Y-100094644D01*
X140900000Y-100089249D01*
X139100000Y-100089249D01*
X139045228Y-100094644D01*
X138992561Y-100110620D01*
X138944023Y-100136564D01*
X138901479Y-100171479D01*
X138866564Y-100214023D01*
X138840620Y-100262561D01*
X138824644Y-100315228D01*
X138819249Y-100370000D01*
X135767924Y-100370000D01*
X135751824Y-100353900D01*
X135558656Y-100224829D01*
X135344018Y-100135923D01*
X135116161Y-100090600D01*
X134883839Y-100090600D01*
X134655982Y-100135923D01*
X134441344Y-100224829D01*
X134248176Y-100353900D01*
X134083900Y-100518176D01*
X133954829Y-100711344D01*
X133891762Y-100863600D01*
X131180751Y-100863600D01*
X131180751Y-100370000D01*
X131175356Y-100315228D01*
X131159380Y-100262561D01*
X131133436Y-100214023D01*
X131098521Y-100171479D01*
X131055977Y-100136564D01*
X131007439Y-100110620D01*
X130954772Y-100094644D01*
X130900000Y-100089249D01*
X129100000Y-100089249D01*
X129045228Y-100094644D01*
X128992561Y-100110620D01*
X128944023Y-100136564D01*
X128901479Y-100171479D01*
X128866564Y-100214023D01*
X128840620Y-100262561D01*
X128824644Y-100315228D01*
X128819249Y-100370000D01*
X126969896Y-100370000D01*
X127026876Y-100339544D01*
X127088758Y-100288758D01*
X127101482Y-100273254D01*
X128238336Y-99136400D01*
X128891762Y-99136400D01*
X128954829Y-99288656D01*
X129083900Y-99481824D01*
X129248176Y-99646100D01*
X129441344Y-99775171D01*
X129655982Y-99864077D01*
X129883839Y-99909400D01*
X130116161Y-99909400D01*
X130344018Y-99864077D01*
X130558656Y-99775171D01*
X130751824Y-99646100D01*
X130916100Y-99481824D01*
X131045171Y-99288656D01*
X131108238Y-99136400D01*
X133819249Y-99136400D01*
X133819249Y-99630000D01*
X133824644Y-99684772D01*
X133840620Y-99737439D01*
X133866564Y-99785977D01*
X133901479Y-99828521D01*
X133944023Y-99863436D01*
X133992561Y-99889380D01*
X134045228Y-99905356D01*
X134100000Y-99910751D01*
X135900000Y-99910751D01*
X135954772Y-99905356D01*
X136007439Y-99889380D01*
X136055977Y-99863436D01*
X136098521Y-99828521D01*
X136133436Y-99785977D01*
X136159380Y-99737439D01*
X136175356Y-99684772D01*
X136179494Y-99642754D01*
X139428496Y-99642754D01*
X139543896Y-99768298D01*
X139755222Y-99837329D01*
X139975953Y-99863805D01*
X140197609Y-99846711D01*
X140411672Y-99786702D01*
X140456104Y-99768298D01*
X140571504Y-99642754D01*
X140558750Y-99630000D01*
X143870294Y-99630000D01*
X143874708Y-99674813D01*
X143887779Y-99717905D01*
X143909006Y-99757618D01*
X143937573Y-99792427D01*
X143972382Y-99820994D01*
X144012095Y-99842221D01*
X144055187Y-99855292D01*
X144100000Y-99859706D01*
X144701550Y-99858600D01*
X144758700Y-99801450D01*
X144758700Y-98971300D01*
X145241300Y-98971300D01*
X145241300Y-99801450D01*
X145298450Y-99858600D01*
X145900000Y-99859706D01*
X145944813Y-99855292D01*
X145987905Y-99842221D01*
X146027618Y-99820994D01*
X146062427Y-99792427D01*
X146090994Y-99757618D01*
X146112221Y-99717905D01*
X146125292Y-99674813D01*
X146129706Y-99630000D01*
X146128600Y-99028450D01*
X146071450Y-98971300D01*
X145241300Y-98971300D01*
X144758700Y-98971300D01*
X143928550Y-98971300D01*
X143871400Y-99028450D01*
X143870294Y-99630000D01*
X140558750Y-99630000D01*
X140000000Y-99071250D01*
X139428496Y-99642754D01*
X136179494Y-99642754D01*
X136180751Y-99630000D01*
X136180751Y-98705953D01*
X138866195Y-98705953D01*
X138883289Y-98927609D01*
X138943298Y-99141672D01*
X138961702Y-99186104D01*
X139087246Y-99301504D01*
X139658750Y-98730000D01*
X140341250Y-98730000D01*
X140912754Y-99301504D01*
X141038298Y-99186104D01*
X141107329Y-98974778D01*
X141133805Y-98754047D01*
X141116711Y-98532391D01*
X141056702Y-98318328D01*
X141038298Y-98273896D01*
X140912754Y-98158496D01*
X140341250Y-98730000D01*
X139658750Y-98730000D01*
X139087246Y-98158496D01*
X138961702Y-98273896D01*
X138892671Y-98485222D01*
X138866195Y-98705953D01*
X136180751Y-98705953D01*
X136180751Y-97830000D01*
X136179495Y-97817246D01*
X139428496Y-97817246D01*
X140000000Y-98388750D01*
X140558750Y-97830000D01*
X143870294Y-97830000D01*
X143871400Y-98431550D01*
X143928550Y-98488700D01*
X144758700Y-98488700D01*
X144758700Y-97658550D01*
X144701550Y-97601400D01*
X144100000Y-97600294D01*
X144055187Y-97604708D01*
X144012095Y-97617779D01*
X143972382Y-97639006D01*
X143937573Y-97667573D01*
X143909006Y-97702382D01*
X143887779Y-97742095D01*
X143874708Y-97785187D01*
X143870294Y-97830000D01*
X140558750Y-97830000D01*
X140571504Y-97817246D01*
X140456104Y-97691702D01*
X140244778Y-97622671D01*
X140024047Y-97596195D01*
X139802391Y-97613289D01*
X139588328Y-97673298D01*
X139543896Y-97691702D01*
X139428496Y-97817246D01*
X136179495Y-97817246D01*
X136175356Y-97775228D01*
X136159380Y-97722561D01*
X136133436Y-97674023D01*
X136098521Y-97631479D01*
X136055977Y-97596564D01*
X136007439Y-97570620D01*
X135954772Y-97554644D01*
X135900000Y-97549249D01*
X134100000Y-97549249D01*
X134045228Y-97554644D01*
X133992561Y-97570620D01*
X133944023Y-97596564D01*
X133901479Y-97631479D01*
X133866564Y-97674023D01*
X133840620Y-97722561D01*
X133824644Y-97775228D01*
X133819249Y-97830000D01*
X133819249Y-98323600D01*
X131108238Y-98323600D01*
X131045171Y-98171344D01*
X130916100Y-97978176D01*
X130751824Y-97813900D01*
X130558656Y-97684829D01*
X130344018Y-97595923D01*
X130116161Y-97550600D01*
X129883839Y-97550600D01*
X129655982Y-97595923D01*
X129441344Y-97684829D01*
X129248176Y-97813900D01*
X129083900Y-97978176D01*
X128954829Y-98171344D01*
X128891762Y-98323600D01*
X128089952Y-98323600D01*
X128069999Y-98321635D01*
X128050046Y-98323600D01*
X128050040Y-98323600D01*
X127998335Y-98328693D01*
X127990331Y-98329481D01*
X127972502Y-98334890D01*
X127913725Y-98352719D01*
X127843124Y-98390456D01*
X127781242Y-98441242D01*
X127768518Y-98456746D01*
X126631664Y-99593600D01*
X126180751Y-99593600D01*
X126180751Y-97830000D01*
X126175356Y-97775228D01*
X126159380Y-97722561D01*
X126133436Y-97674023D01*
X126098521Y-97631479D01*
X126055977Y-97596564D01*
X126007439Y-97570620D01*
X125954772Y-97554644D01*
X125900000Y-97549249D01*
X124100000Y-97549249D01*
X124045228Y-97554644D01*
X123992561Y-97570620D01*
X123944023Y-97596564D01*
X123901479Y-97631479D01*
X123866564Y-97674023D01*
X123840620Y-97722561D01*
X123824644Y-97775228D01*
X123819249Y-97830000D01*
X123819249Y-98323600D01*
X121108238Y-98323600D01*
X121045171Y-98171344D01*
X120916100Y-97978176D01*
X120751824Y-97813900D01*
X120558656Y-97684829D01*
X120344018Y-97595923D01*
X120116161Y-97550600D01*
X119883839Y-97550600D01*
X119809312Y-97565424D01*
X120173255Y-97201481D01*
X120188758Y-97188758D01*
X120239544Y-97126876D01*
X120242431Y-97121474D01*
X120255228Y-97125356D01*
X120310000Y-97130751D01*
X122010000Y-97130751D01*
X122064772Y-97125356D01*
X122117439Y-97109380D01*
X122165977Y-97083436D01*
X122208521Y-97048521D01*
X122243436Y-97005977D01*
X122269380Y-96957439D01*
X122285356Y-96904772D01*
X122290751Y-96850000D01*
X122290751Y-95150000D01*
X122285356Y-95095228D01*
X122269380Y-95042561D01*
X122243436Y-94994023D01*
X122208521Y-94951479D01*
X122165977Y-94916564D01*
X122117439Y-94890620D01*
X122064772Y-94874644D01*
X122010000Y-94869249D01*
X120310000Y-94869249D01*
X120306400Y-94869604D01*
X120306400Y-94759952D01*
X120308365Y-94739999D01*
X120306400Y-94720046D01*
X120306400Y-94720040D01*
X120300519Y-94660332D01*
X120277281Y-94583725D01*
X120239544Y-94513124D01*
X120188758Y-94451242D01*
X120173254Y-94438518D01*
X119654737Y-93920001D01*
X119668478Y-93894294D01*
X119678036Y-93862785D01*
X120159416Y-93862785D01*
X120257221Y-94050250D01*
X120389720Y-94215032D01*
X120551820Y-94350798D01*
X120737292Y-94452332D01*
X120757217Y-94460572D01*
X120918700Y-94452539D01*
X120918700Y-93701300D01*
X121401300Y-93701300D01*
X121401300Y-94452539D01*
X121562783Y-94460572D01*
X121582708Y-94452332D01*
X121768180Y-94350798D01*
X121930280Y-94215032D01*
X122062779Y-94050250D01*
X122160584Y-93862785D01*
X122154125Y-93701300D01*
X121401300Y-93701300D01*
X120918700Y-93701300D01*
X120165875Y-93701300D01*
X120159416Y-93862785D01*
X119678036Y-93862785D01*
X119733058Y-93681401D01*
X119754864Y-93460000D01*
X119733058Y-93238599D01*
X119678037Y-93057215D01*
X120159416Y-93057215D01*
X120165875Y-93218700D01*
X120918700Y-93218700D01*
X120918700Y-92467461D01*
X121401300Y-92467461D01*
X121401300Y-93218700D01*
X122154125Y-93218700D01*
X122160584Y-93057215D01*
X122062779Y-92869750D01*
X121930280Y-92704968D01*
X121768180Y-92569202D01*
X121582708Y-92467668D01*
X121562783Y-92459428D01*
X121401300Y-92467461D01*
X120918700Y-92467461D01*
X120757217Y-92459428D01*
X120737292Y-92467668D01*
X120551820Y-92569202D01*
X120389720Y-92704968D01*
X120257221Y-92869750D01*
X120159416Y-93057215D01*
X119678037Y-93057215D01*
X119668478Y-93025706D01*
X119563605Y-92829503D01*
X119422470Y-92657530D01*
X119250497Y-92516395D01*
X119054294Y-92411522D01*
X118841401Y-92346942D01*
X118675477Y-92330600D01*
X118564523Y-92330600D01*
X118398599Y-92346942D01*
X118185706Y-92411522D01*
X117989503Y-92516395D01*
X117817530Y-92657530D01*
X117676395Y-92829503D01*
X117571522Y-93025706D01*
X117506942Y-93238599D01*
X117485136Y-93460000D01*
X117506942Y-93681401D01*
X117571522Y-93894294D01*
X117676395Y-94090497D01*
X117817530Y-94262470D01*
X117989503Y-94403605D01*
X118185706Y-94508478D01*
X118398599Y-94573058D01*
X118564523Y-94589400D01*
X118675477Y-94589400D01*
X118841401Y-94573058D01*
X119054294Y-94508478D01*
X119080001Y-94494737D01*
X119493601Y-94908337D01*
X119493601Y-95284203D01*
X119422470Y-95197530D01*
X119250497Y-95056395D01*
X119054294Y-94951522D01*
X118841401Y-94886942D01*
X118675477Y-94870600D01*
X118564523Y-94870600D01*
X118398599Y-94886942D01*
X118185706Y-94951522D01*
X117989503Y-95056395D01*
X117817530Y-95197530D01*
X117676395Y-95369503D01*
X117571522Y-95565706D01*
X117506942Y-95778599D01*
X117485136Y-96000000D01*
X117506942Y-96221401D01*
X117571522Y-96434294D01*
X117676395Y-96630497D01*
X117817530Y-96802470D01*
X117989503Y-96943605D01*
X118185706Y-97048478D01*
X118398599Y-97113058D01*
X118564523Y-97129400D01*
X118675477Y-97129400D01*
X118841401Y-97113058D01*
X119054294Y-97048478D01*
X119250497Y-96943605D01*
X119422470Y-96802470D01*
X119493600Y-96715798D01*
X119493600Y-96731664D01*
X118426741Y-97798523D01*
X118411243Y-97811242D01*
X118398524Y-97826740D01*
X118398518Y-97826746D01*
X118382955Y-97845710D01*
X118360457Y-97873124D01*
X118343248Y-97905320D01*
X118322719Y-97943726D01*
X118299481Y-98020332D01*
X118291635Y-98100000D01*
X118293601Y-98119962D01*
X118293600Y-99280047D01*
X118291635Y-99300000D01*
X118293600Y-99319953D01*
X118293600Y-99319959D01*
X118299481Y-99379667D01*
X118322719Y-99456274D01*
X118360456Y-99526875D01*
X118411242Y-99588758D01*
X118426746Y-99601482D01*
X118955626Y-100130362D01*
X118944023Y-100136564D01*
X118901479Y-100171479D01*
X118866564Y-100214023D01*
X118840620Y-100262561D01*
X118824644Y-100315228D01*
X118819249Y-100370000D01*
X118819249Y-100863600D01*
X118438336Y-100863600D01*
X117706400Y-100131664D01*
X117706400Y-97239953D01*
X117708365Y-97220000D01*
X117706400Y-97200047D01*
X117706400Y-97200040D01*
X117700519Y-97140332D01*
X117677281Y-97063725D01*
X117639544Y-96993124D01*
X117616348Y-96964860D01*
X117601482Y-96946745D01*
X117601477Y-96946740D01*
X117588758Y-96931242D01*
X117573259Y-96918523D01*
X117114737Y-96460001D01*
X117128478Y-96434294D01*
X117193058Y-96221401D01*
X117214864Y-96000000D01*
X117193058Y-95778599D01*
X117128478Y-95565706D01*
X117023605Y-95369503D01*
X116882470Y-95197530D01*
X116710497Y-95056395D01*
X116514294Y-94951522D01*
X116301401Y-94886942D01*
X116135477Y-94870600D01*
X116024523Y-94870600D01*
X115858599Y-94886942D01*
X115645706Y-94951522D01*
X115449503Y-95056395D01*
X115277530Y-95197530D01*
X115136395Y-95369503D01*
X115031522Y-95565706D01*
X114966942Y-95778599D01*
X114945136Y-96000000D01*
X114966942Y-96221401D01*
X115031522Y-96434294D01*
X115136395Y-96630497D01*
X115277530Y-96802470D01*
X115388572Y-96893600D01*
X115008337Y-96893600D01*
X114574737Y-96460001D01*
X114588478Y-96434294D01*
X114653058Y-96221401D01*
X114674864Y-96000000D01*
X114653058Y-95778599D01*
X114588478Y-95565706D01*
X114483605Y-95369503D01*
X114342470Y-95197530D01*
X114170497Y-95056395D01*
X113974294Y-94951522D01*
X113761401Y-94886942D01*
X113595477Y-94870600D01*
X113484523Y-94870600D01*
X113318599Y-94886942D01*
X113105706Y-94951522D01*
X112909503Y-95056395D01*
X112737530Y-95197530D01*
X112636400Y-95320757D01*
X112636400Y-94938336D01*
X113079999Y-94494737D01*
X113105706Y-94508478D01*
X113318599Y-94573058D01*
X113484523Y-94589400D01*
X113595477Y-94589400D01*
X113761401Y-94573058D01*
X113974294Y-94508478D01*
X114170497Y-94403605D01*
X114342470Y-94262470D01*
X114483605Y-94090497D01*
X114588478Y-93894294D01*
X114653058Y-93681401D01*
X114674864Y-93460000D01*
X114945136Y-93460000D01*
X114966942Y-93681401D01*
X115031522Y-93894294D01*
X115136395Y-94090497D01*
X115277530Y-94262470D01*
X115449503Y-94403605D01*
X115645706Y-94508478D01*
X115858599Y-94573058D01*
X116024523Y-94589400D01*
X116135477Y-94589400D01*
X116301401Y-94573058D01*
X116514294Y-94508478D01*
X116710497Y-94403605D01*
X116882470Y-94262470D01*
X117023605Y-94090497D01*
X117128478Y-93894294D01*
X117193058Y-93681401D01*
X117214864Y-93460000D01*
X117193058Y-93238599D01*
X117128478Y-93025706D01*
X117023605Y-92829503D01*
X116882470Y-92657530D01*
X116710497Y-92516395D01*
X116514294Y-92411522D01*
X116301401Y-92346942D01*
X116135477Y-92330600D01*
X116024523Y-92330600D01*
X115858599Y-92346942D01*
X115645706Y-92411522D01*
X115449503Y-92516395D01*
X115277530Y-92657530D01*
X115136395Y-92829503D01*
X115031522Y-93025706D01*
X114966942Y-93238599D01*
X114945136Y-93460000D01*
X114674864Y-93460000D01*
X114653058Y-93238599D01*
X114588478Y-93025706D01*
X114483605Y-92829503D01*
X114342470Y-92657530D01*
X114170497Y-92516395D01*
X113974294Y-92411522D01*
X113761401Y-92346942D01*
X113595477Y-92330600D01*
X113484523Y-92330600D01*
X113318599Y-92346942D01*
X113105706Y-92411522D01*
X112909503Y-92516395D01*
X112737530Y-92657530D01*
X112596395Y-92829503D01*
X112491522Y-93025706D01*
X112426942Y-93238599D01*
X112405136Y-93460000D01*
X112426942Y-93681401D01*
X112491522Y-93894294D01*
X112505263Y-93920001D01*
X111956741Y-94468523D01*
X111941243Y-94481242D01*
X111928524Y-94496740D01*
X111928518Y-94496746D01*
X111907549Y-94522298D01*
X111890457Y-94543124D01*
X111874457Y-94573058D01*
X111852719Y-94613726D01*
X111829481Y-94690332D01*
X111821635Y-94770000D01*
X111823601Y-94789963D01*
X111823601Y-95223278D01*
X111802470Y-95197530D01*
X111630497Y-95056395D01*
X111434294Y-94951522D01*
X111221401Y-94886942D01*
X111055477Y-94870600D01*
X110944523Y-94870600D01*
X110778599Y-94886942D01*
X110565706Y-94951522D01*
X110369503Y-95056395D01*
X110197530Y-95197530D01*
X110056395Y-95369503D01*
X109951522Y-95565706D01*
X109886942Y-95778599D01*
X109865136Y-96000000D01*
X109886942Y-96221401D01*
X109951522Y-96434294D01*
X109965263Y-96460001D01*
X109531664Y-96893600D01*
X109281136Y-96893600D01*
X109673255Y-96501481D01*
X109688758Y-96488758D01*
X109739544Y-96426876D01*
X109777281Y-96356275D01*
X109795804Y-96295211D01*
X109800519Y-96279669D01*
X109802681Y-96257719D01*
X109806400Y-96219960D01*
X109806400Y-96219954D01*
X109808365Y-96200001D01*
X109806400Y-96180048D01*
X109806400Y-95228336D01*
X110539999Y-94494737D01*
X110565706Y-94508478D01*
X110778599Y-94573058D01*
X110944523Y-94589400D01*
X111055477Y-94589400D01*
X111221401Y-94573058D01*
X111434294Y-94508478D01*
X111630497Y-94403605D01*
X111802470Y-94262470D01*
X111943605Y-94090497D01*
X112048478Y-93894294D01*
X112113058Y-93681401D01*
X112134864Y-93460000D01*
X112113058Y-93238599D01*
X112048478Y-93025706D01*
X111943605Y-92829503D01*
X111802470Y-92657530D01*
X111630497Y-92516395D01*
X111434294Y-92411522D01*
X111221401Y-92346942D01*
X111055477Y-92330600D01*
X110944523Y-92330600D01*
X110778599Y-92346942D01*
X110565706Y-92411522D01*
X110369503Y-92516395D01*
X110197530Y-92657530D01*
X110056395Y-92829503D01*
X109951522Y-93025706D01*
X109886942Y-93238599D01*
X109865136Y-93460000D01*
X109886942Y-93681401D01*
X109951522Y-93894294D01*
X109965263Y-93920001D01*
X109149099Y-94736165D01*
X109149099Y-89670498D01*
X109152611Y-89634678D01*
X109157062Y-89619936D01*
X109164288Y-89606345D01*
X109174019Y-89594415D01*
X109185886Y-89584597D01*
X109199431Y-89577273D01*
X109214135Y-89572722D01*
X109248585Y-89569101D01*
X122909491Y-89569101D01*
X122945321Y-89572614D01*
X122945321Y-89572614D01*
G37*
X122945321Y-89572614D02*
X122960062Y-89577065D01*
X122973653Y-89584291D01*
X122985587Y-89594024D01*
X122995400Y-89605886D01*
X123002724Y-89619431D01*
X123007277Y-89634138D01*
X123010899Y-89668601D01*
X123010898Y-95020580D01*
X123012759Y-95039474D01*
X123012672Y-95051948D01*
X123013243Y-95057772D01*
X123054044Y-95445965D01*
X123061672Y-95483127D01*
X123068799Y-95520486D01*
X123070491Y-95526088D01*
X123185915Y-95898963D01*
X123200619Y-95933941D01*
X123214864Y-95969199D01*
X123217611Y-95974366D01*
X123403262Y-96317721D01*
X123424499Y-96349206D01*
X123445303Y-96380997D01*
X123449001Y-96385532D01*
X123697808Y-96686287D01*
X123724752Y-96713044D01*
X123751337Y-96740191D01*
X123755846Y-96743921D01*
X124058331Y-96990622D01*
X124089936Y-97011620D01*
X124121311Y-97033103D01*
X124126459Y-97035886D01*
X124471101Y-97219136D01*
X124506193Y-97233600D01*
X124541134Y-97248575D01*
X124546724Y-97250306D01*
X124920396Y-97363124D01*
X124957680Y-97370506D01*
X124994812Y-97378399D01*
X125000632Y-97379011D01*
X125389101Y-97417101D01*
X125389112Y-97417101D01*
X125409418Y-97419101D01*
X144979508Y-97419101D01*
X145500909Y-97470224D01*
X145982735Y-97615697D01*
X145984983Y-97616893D01*
X145944813Y-97604708D01*
X145900000Y-97600294D01*
X145298450Y-97601400D01*
X145241300Y-97658550D01*
X145241300Y-98488700D01*
X146071450Y-98488700D01*
X146128600Y-98431550D01*
X146129706Y-97830000D01*
X146125292Y-97785187D01*
X146112221Y-97742095D01*
X146090994Y-97702382D01*
X146062427Y-97667573D01*
X146029542Y-97640585D01*
X146427137Y-97851990D01*
X146817169Y-98170091D01*
X147137994Y-98557902D01*
X147377381Y-99000638D01*
X147526216Y-99481442D01*
X147578826Y-99981995D01*
X147533209Y-100483235D01*
X147391103Y-100966068D01*
X147157920Y-101412107D01*
X146842545Y-101804355D01*
X146456987Y-102127876D01*
X146015931Y-102370350D01*
X145536181Y-102522535D01*
X145017001Y-102580771D01*
X144998511Y-102580900D01*
X100020509Y-102580900D01*
X99499092Y-102529775D01*
X99237352Y-102450751D01*
X100900000Y-102450751D01*
X100954772Y-102445356D01*
X101007439Y-102429380D01*
X101055977Y-102403436D01*
X101098521Y-102368521D01*
X101133436Y-102325977D01*
X101159380Y-102277439D01*
X101175356Y-102224772D01*
X101180751Y-102170000D01*
X101180751Y-101676400D01*
X103891762Y-101676400D01*
X103954829Y-101828656D01*
X104083900Y-102021824D01*
X104248176Y-102186100D01*
X104441344Y-102315171D01*
X104655982Y-102404077D01*
X104883839Y-102449400D01*
X105116161Y-102449400D01*
X105344018Y-102404077D01*
X105558656Y-102315171D01*
X105751824Y-102186100D01*
X105916100Y-102021824D01*
X106045171Y-101828656D01*
X106108238Y-101676400D01*
X106252839Y-101676400D01*
X106272792Y-101678365D01*
X106292745Y-101676400D01*
X106292752Y-101676400D01*
X106352460Y-101670519D01*
X106429067Y-101647281D01*
X106499668Y-101609544D01*
X106561550Y-101558758D01*
X106574275Y-101543253D01*
X106673251Y-101444277D01*
X106688758Y-101431550D01*
X106739544Y-101369668D01*
X106777281Y-101299067D01*
X106800519Y-101222460D01*
X106806400Y-101162752D01*
X106806400Y-101162746D01*
X106808365Y-101142793D01*
X106806400Y-101122840D01*
X106806400Y-100168336D01*
X109268337Y-97706400D01*
X109409061Y-97706400D01*
X109248176Y-97813900D01*
X109083900Y-97978176D01*
X108954829Y-98171344D01*
X108865923Y-98385982D01*
X108820600Y-98613839D01*
X108820600Y-98846161D01*
X108865923Y-99074018D01*
X108954829Y-99288656D01*
X109083900Y-99481824D01*
X109248176Y-99646100D01*
X109441344Y-99775171D01*
X109655982Y-99864077D01*
X109883839Y-99909400D01*
X110116161Y-99909400D01*
X110344018Y-99864077D01*
X110558656Y-99775171D01*
X110751824Y-99646100D01*
X110916100Y-99481824D01*
X111045171Y-99288656D01*
X111108238Y-99136400D01*
X112210040Y-99136400D01*
X112230000Y-99138366D01*
X112249960Y-99136400D01*
X113819249Y-99136400D01*
X113819249Y-99630000D01*
X113824644Y-99684772D01*
X113840620Y-99737439D01*
X113866564Y-99785977D01*
X113901479Y-99828521D01*
X113944023Y-99863436D01*
X113992561Y-99889380D01*
X114045228Y-99905356D01*
X114100000Y-99910751D01*
X115784512Y-99910751D01*
X115496274Y-100198989D01*
X115344018Y-100135923D01*
X115116161Y-100090600D01*
X114883839Y-100090600D01*
X114655982Y-100135923D01*
X114441344Y-100224829D01*
X114248176Y-100353900D01*
X114083900Y-100518176D01*
X113954829Y-100711344D01*
X113891762Y-100863600D01*
X111180751Y-100863600D01*
X111180751Y-100370000D01*
X111175356Y-100315228D01*
X111159380Y-100262561D01*
X111133436Y-100214023D01*
X111098521Y-100171479D01*
X111055977Y-100136564D01*
X111007439Y-100110620D01*
X110954772Y-100094644D01*
X110900000Y-100089249D01*
X109100000Y-100089249D01*
X109045228Y-100094644D01*
X108992561Y-100110620D01*
X108944023Y-100136564D01*
X108901479Y-100171479D01*
X108866564Y-100214023D01*
X108840620Y-100262561D01*
X108824644Y-100315228D01*
X108819249Y-100370000D01*
X108819249Y-102170000D01*
X108824644Y-102224772D01*
X108840620Y-102277439D01*
X108866564Y-102325977D01*
X108901479Y-102368521D01*
X108944023Y-102403436D01*
X108992561Y-102429380D01*
X109045228Y-102445356D01*
X109100000Y-102450751D01*
X110900000Y-102450751D01*
X110954772Y-102445356D01*
X111007439Y-102429380D01*
X111055977Y-102403436D01*
X111098521Y-102368521D01*
X111133436Y-102325977D01*
X111159380Y-102277439D01*
X111175356Y-102224772D01*
X111180751Y-102170000D01*
X111180751Y-101676400D01*
X113891762Y-101676400D01*
X113954829Y-101828656D01*
X114083900Y-102021824D01*
X114248176Y-102186100D01*
X114441344Y-102315171D01*
X114655982Y-102404077D01*
X114883839Y-102449400D01*
X115116161Y-102449400D01*
X115344018Y-102404077D01*
X115558656Y-102315171D01*
X115751824Y-102186100D01*
X115916100Y-102021824D01*
X116045171Y-101828656D01*
X116134077Y-101614018D01*
X116179400Y-101386161D01*
X116179400Y-101153839D01*
X116134077Y-100925982D01*
X116071011Y-100773726D01*
X116573261Y-100271476D01*
X116588758Y-100258758D01*
X116601477Y-100243260D01*
X116601482Y-100243255D01*
X116620337Y-100220279D01*
X116639544Y-100196876D01*
X116677281Y-100126275D01*
X116682030Y-100110620D01*
X116700519Y-100049669D01*
X116703159Y-100022862D01*
X116706400Y-99989960D01*
X116706400Y-99989953D01*
X116708365Y-99970000D01*
X116706400Y-99950047D01*
X116706400Y-97719952D01*
X116708365Y-97699999D01*
X116706400Y-97680046D01*
X116706400Y-97680040D01*
X116700749Y-97622671D01*
X116700519Y-97620331D01*
X116688273Y-97579962D01*
X116677281Y-97543725D01*
X116639544Y-97473124D01*
X116588758Y-97411242D01*
X116573254Y-97398518D01*
X116289014Y-97114278D01*
X116301401Y-97113058D01*
X116514294Y-97048478D01*
X116540001Y-97034737D01*
X116893601Y-97388338D01*
X116893600Y-100280047D01*
X116891635Y-100300000D01*
X116893600Y-100319953D01*
X116893600Y-100319959D01*
X116899481Y-100379667D01*
X116922719Y-100456274D01*
X116960456Y-100526875D01*
X117011242Y-100588758D01*
X117026746Y-100601482D01*
X117968518Y-101543254D01*
X117981242Y-101558758D01*
X118043124Y-101609544D01*
X118113725Y-101647281D01*
X118172502Y-101665110D01*
X118190331Y-101670519D01*
X118198335Y-101671307D01*
X118250040Y-101676400D01*
X118250046Y-101676400D01*
X118269999Y-101678365D01*
X118289952Y-101676400D01*
X118819249Y-101676400D01*
X118819249Y-102170000D01*
X118824644Y-102224772D01*
X118840620Y-102277439D01*
X118866564Y-102325977D01*
X118901479Y-102368521D01*
X118944023Y-102403436D01*
X118992561Y-102429380D01*
X119045228Y-102445356D01*
X119100000Y-102450751D01*
X120900000Y-102450751D01*
X120954772Y-102445356D01*
X121007439Y-102429380D01*
X121055977Y-102403436D01*
X121098521Y-102368521D01*
X121133436Y-102325977D01*
X121159380Y-102277439D01*
X121175356Y-102224772D01*
X121180751Y-102170000D01*
X121180751Y-101676400D01*
X123891762Y-101676400D01*
X123954829Y-101828656D01*
X124083900Y-102021824D01*
X124248176Y-102186100D01*
X124441344Y-102315171D01*
X124655982Y-102404077D01*
X124883839Y-102449400D01*
X125116161Y-102449400D01*
X125344018Y-102404077D01*
X125558656Y-102315171D01*
X125751824Y-102186100D01*
X125916100Y-102021824D01*
X126045171Y-101828656D01*
X126134077Y-101614018D01*
X126179400Y-101386161D01*
X126179400Y-101153839D01*
X126134077Y-100925982D01*
X126045171Y-100711344D01*
X125916100Y-100518176D01*
X125804324Y-100406400D01*
X126780047Y-100406400D01*
X126800000Y-100408365D01*
X126819953Y-100406400D01*
X126819960Y-100406400D01*
X126879668Y-100400519D01*
X126956275Y-100377281D01*
X126969896Y-100370000D01*
X128819249Y-100370000D01*
X128819249Y-102170000D01*
X128824644Y-102224772D01*
X128840620Y-102277439D01*
X128866564Y-102325977D01*
X128901479Y-102368521D01*
X128944023Y-102403436D01*
X128992561Y-102429380D01*
X129045228Y-102445356D01*
X129100000Y-102450751D01*
X130900000Y-102450751D01*
X130954772Y-102445356D01*
X131007439Y-102429380D01*
X131055977Y-102403436D01*
X131098521Y-102368521D01*
X131133436Y-102325977D01*
X131159380Y-102277439D01*
X131175356Y-102224772D01*
X131180751Y-102170000D01*
X131180751Y-101676400D01*
X133891762Y-101676400D01*
X133954829Y-101828656D01*
X134083900Y-102021824D01*
X134248176Y-102186100D01*
X134441344Y-102315171D01*
X134655982Y-102404077D01*
X134883839Y-102449400D01*
X135116161Y-102449400D01*
X135344018Y-102404077D01*
X135558656Y-102315171D01*
X135751824Y-102186100D01*
X135916100Y-102021824D01*
X136045171Y-101828656D01*
X136134077Y-101614018D01*
X136179400Y-101386161D01*
X136179400Y-101153839D01*
X136134077Y-100925982D01*
X136045171Y-100711344D01*
X135916100Y-100518176D01*
X135767924Y-100370000D01*
X138819249Y-100370000D01*
X138819249Y-102170000D01*
X138824644Y-102224772D01*
X138840620Y-102277439D01*
X138866564Y-102325977D01*
X138901479Y-102368521D01*
X138944023Y-102403436D01*
X138992561Y-102429380D01*
X139045228Y-102445356D01*
X139100000Y-102450751D01*
X140900000Y-102450751D01*
X140954772Y-102445356D01*
X141007439Y-102429380D01*
X141055977Y-102403436D01*
X141098521Y-102368521D01*
X141133436Y-102325977D01*
X141159380Y-102277439D01*
X141175356Y-102224772D01*
X141180751Y-102170000D01*
X141180751Y-101153839D01*
X143820600Y-101153839D01*
X143820600Y-101386161D01*
X143865923Y-101614018D01*
X143954829Y-101828656D01*
X144083900Y-102021824D01*
X144248176Y-102186100D01*
X144441344Y-102315171D01*
X144655982Y-102404077D01*
X144883839Y-102449400D01*
X145116161Y-102449400D01*
X145344018Y-102404077D01*
X145558656Y-102315171D01*
X145751824Y-102186100D01*
X145916100Y-102021824D01*
X146045171Y-101828656D01*
X146134077Y-101614018D01*
X146179400Y-101386161D01*
X146179400Y-101153839D01*
X146134077Y-100925982D01*
X146045171Y-100711344D01*
X145916100Y-100518176D01*
X145751824Y-100353900D01*
X145558656Y-100224829D01*
X145344018Y-100135923D01*
X145116161Y-100090600D01*
X144883839Y-100090600D01*
X144655982Y-100135923D01*
X144441344Y-100224829D01*
X144248176Y-100353900D01*
X144083900Y-100518176D01*
X143954829Y-100711344D01*
X143865923Y-100925982D01*
X143820600Y-101153839D01*
X141180751Y-101153839D01*
X141180751Y-100370000D01*
X141175356Y-100315228D01*
X141159380Y-100262561D01*
X141133436Y-100214023D01*
X141098521Y-100171479D01*
X141055977Y-100136564D01*
X141007439Y-100110620D01*
X140954772Y-100094644D01*
X140900000Y-100089249D01*
X139100000Y-100089249D01*
X139045228Y-100094644D01*
X138992561Y-100110620D01*
X138944023Y-100136564D01*
X138901479Y-100171479D01*
X138866564Y-100214023D01*
X138840620Y-100262561D01*
X138824644Y-100315228D01*
X138819249Y-100370000D01*
X135767924Y-100370000D01*
X135751824Y-100353900D01*
X135558656Y-100224829D01*
X135344018Y-100135923D01*
X135116161Y-100090600D01*
X134883839Y-100090600D01*
X134655982Y-100135923D01*
X134441344Y-100224829D01*
X134248176Y-100353900D01*
X134083900Y-100518176D01*
X133954829Y-100711344D01*
X133891762Y-100863600D01*
X131180751Y-100863600D01*
X131180751Y-100370000D01*
X131175356Y-100315228D01*
X131159380Y-100262561D01*
X131133436Y-100214023D01*
X131098521Y-100171479D01*
X131055977Y-100136564D01*
X131007439Y-100110620D01*
X130954772Y-100094644D01*
X130900000Y-100089249D01*
X129100000Y-100089249D01*
X129045228Y-100094644D01*
X128992561Y-100110620D01*
X128944023Y-100136564D01*
X128901479Y-100171479D01*
X128866564Y-100214023D01*
X128840620Y-100262561D01*
X128824644Y-100315228D01*
X128819249Y-100370000D01*
X126969896Y-100370000D01*
X127026876Y-100339544D01*
X127088758Y-100288758D01*
X127101482Y-100273254D01*
X128238336Y-99136400D01*
X128891762Y-99136400D01*
X128954829Y-99288656D01*
X129083900Y-99481824D01*
X129248176Y-99646100D01*
X129441344Y-99775171D01*
X129655982Y-99864077D01*
X129883839Y-99909400D01*
X130116161Y-99909400D01*
X130344018Y-99864077D01*
X130558656Y-99775171D01*
X130751824Y-99646100D01*
X130916100Y-99481824D01*
X131045171Y-99288656D01*
X131108238Y-99136400D01*
X133819249Y-99136400D01*
X133819249Y-99630000D01*
X133824644Y-99684772D01*
X133840620Y-99737439D01*
X133866564Y-99785977D01*
X133901479Y-99828521D01*
X133944023Y-99863436D01*
X133992561Y-99889380D01*
X134045228Y-99905356D01*
X134100000Y-99910751D01*
X135900000Y-99910751D01*
X135954772Y-99905356D01*
X136007439Y-99889380D01*
X136055977Y-99863436D01*
X136098521Y-99828521D01*
X136133436Y-99785977D01*
X136159380Y-99737439D01*
X136175356Y-99684772D01*
X136179494Y-99642754D01*
X139428496Y-99642754D01*
X139543896Y-99768298D01*
X139755222Y-99837329D01*
X139975953Y-99863805D01*
X140197609Y-99846711D01*
X140411672Y-99786702D01*
X140456104Y-99768298D01*
X140571504Y-99642754D01*
X140558750Y-99630000D01*
X143870294Y-99630000D01*
X143874708Y-99674813D01*
X143887779Y-99717905D01*
X143909006Y-99757618D01*
X143937573Y-99792427D01*
X143972382Y-99820994D01*
X144012095Y-99842221D01*
X144055187Y-99855292D01*
X144100000Y-99859706D01*
X144701550Y-99858600D01*
X144758700Y-99801450D01*
X144758700Y-98971300D01*
X145241300Y-98971300D01*
X145241300Y-99801450D01*
X145298450Y-99858600D01*
X145900000Y-99859706D01*
X145944813Y-99855292D01*
X145987905Y-99842221D01*
X146027618Y-99820994D01*
X146062427Y-99792427D01*
X146090994Y-99757618D01*
X146112221Y-99717905D01*
X146125292Y-99674813D01*
X146129706Y-99630000D01*
X146128600Y-99028450D01*
X146071450Y-98971300D01*
X145241300Y-98971300D01*
X144758700Y-98971300D01*
X143928550Y-98971300D01*
X143871400Y-99028450D01*
X143870294Y-99630000D01*
X140558750Y-99630000D01*
X140000000Y-99071250D01*
X139428496Y-99642754D01*
X136179494Y-99642754D01*
X136180751Y-99630000D01*
X136180751Y-98705953D01*
X138866195Y-98705953D01*
X138883289Y-98927609D01*
X138943298Y-99141672D01*
X138961702Y-99186104D01*
X139087246Y-99301504D01*
X139658750Y-98730000D01*
X140341250Y-98730000D01*
X140912754Y-99301504D01*
X141038298Y-99186104D01*
X141107329Y-98974778D01*
X141133805Y-98754047D01*
X141116711Y-98532391D01*
X141056702Y-98318328D01*
X141038298Y-98273896D01*
X140912754Y-98158496D01*
X140341250Y-98730000D01*
X139658750Y-98730000D01*
X139087246Y-98158496D01*
X138961702Y-98273896D01*
X138892671Y-98485222D01*
X138866195Y-98705953D01*
X136180751Y-98705953D01*
X136180751Y-97830000D01*
X136179495Y-97817246D01*
X139428496Y-97817246D01*
X140000000Y-98388750D01*
X140558750Y-97830000D01*
X143870294Y-97830000D01*
X143871400Y-98431550D01*
X143928550Y-98488700D01*
X144758700Y-98488700D01*
X144758700Y-97658550D01*
X144701550Y-97601400D01*
X144100000Y-97600294D01*
X144055187Y-97604708D01*
X144012095Y-97617779D01*
X143972382Y-97639006D01*
X143937573Y-97667573D01*
X143909006Y-97702382D01*
X143887779Y-97742095D01*
X143874708Y-97785187D01*
X143870294Y-97830000D01*
X140558750Y-97830000D01*
X140571504Y-97817246D01*
X140456104Y-97691702D01*
X140244778Y-97622671D01*
X140024047Y-97596195D01*
X139802391Y-97613289D01*
X139588328Y-97673298D01*
X139543896Y-97691702D01*
X139428496Y-97817246D01*
X136179495Y-97817246D01*
X136175356Y-97775228D01*
X136159380Y-97722561D01*
X136133436Y-97674023D01*
X136098521Y-97631479D01*
X136055977Y-97596564D01*
X136007439Y-97570620D01*
X135954772Y-97554644D01*
X135900000Y-97549249D01*
X134100000Y-97549249D01*
X134045228Y-97554644D01*
X133992561Y-97570620D01*
X133944023Y-97596564D01*
X133901479Y-97631479D01*
X133866564Y-97674023D01*
X133840620Y-97722561D01*
X133824644Y-97775228D01*
X133819249Y-97830000D01*
X133819249Y-98323600D01*
X131108238Y-98323600D01*
X131045171Y-98171344D01*
X130916100Y-97978176D01*
X130751824Y-97813900D01*
X130558656Y-97684829D01*
X130344018Y-97595923D01*
X130116161Y-97550600D01*
X129883839Y-97550600D01*
X129655982Y-97595923D01*
X129441344Y-97684829D01*
X129248176Y-97813900D01*
X129083900Y-97978176D01*
X128954829Y-98171344D01*
X128891762Y-98323600D01*
X128089952Y-98323600D01*
X128069999Y-98321635D01*
X128050046Y-98323600D01*
X128050040Y-98323600D01*
X127998335Y-98328693D01*
X127990331Y-98329481D01*
X127972502Y-98334890D01*
X127913725Y-98352719D01*
X127843124Y-98390456D01*
X127781242Y-98441242D01*
X127768518Y-98456746D01*
X126631664Y-99593600D01*
X126180751Y-99593600D01*
X126180751Y-97830000D01*
X126175356Y-97775228D01*
X126159380Y-97722561D01*
X126133436Y-97674023D01*
X126098521Y-97631479D01*
X126055977Y-97596564D01*
X126007439Y-97570620D01*
X125954772Y-97554644D01*
X125900000Y-97549249D01*
X124100000Y-97549249D01*
X124045228Y-97554644D01*
X123992561Y-97570620D01*
X123944023Y-97596564D01*
X123901479Y-97631479D01*
X123866564Y-97674023D01*
X123840620Y-97722561D01*
X123824644Y-97775228D01*
X123819249Y-97830000D01*
X123819249Y-98323600D01*
X121108238Y-98323600D01*
X121045171Y-98171344D01*
X120916100Y-97978176D01*
X120751824Y-97813900D01*
X120558656Y-97684829D01*
X120344018Y-97595923D01*
X120116161Y-97550600D01*
X119883839Y-97550600D01*
X119809312Y-97565424D01*
X120173255Y-97201481D01*
X120188758Y-97188758D01*
X120239544Y-97126876D01*
X120242431Y-97121474D01*
X120255228Y-97125356D01*
X120310000Y-97130751D01*
X122010000Y-97130751D01*
X122064772Y-97125356D01*
X122117439Y-97109380D01*
X122165977Y-97083436D01*
X122208521Y-97048521D01*
X122243436Y-97005977D01*
X122269380Y-96957439D01*
X122285356Y-96904772D01*
X122290751Y-96850000D01*
X122290751Y-95150000D01*
X122285356Y-95095228D01*
X122269380Y-95042561D01*
X122243436Y-94994023D01*
X122208521Y-94951479D01*
X122165977Y-94916564D01*
X122117439Y-94890620D01*
X122064772Y-94874644D01*
X122010000Y-94869249D01*
X120310000Y-94869249D01*
X120306400Y-94869604D01*
X120306400Y-94759952D01*
X120308365Y-94739999D01*
X120306400Y-94720046D01*
X120306400Y-94720040D01*
X120300519Y-94660332D01*
X120277281Y-94583725D01*
X120239544Y-94513124D01*
X120188758Y-94451242D01*
X120173254Y-94438518D01*
X119654737Y-93920001D01*
X119668478Y-93894294D01*
X119678036Y-93862785D01*
X120159416Y-93862785D01*
X120257221Y-94050250D01*
X120389720Y-94215032D01*
X120551820Y-94350798D01*
X120737292Y-94452332D01*
X120757217Y-94460572D01*
X120918700Y-94452539D01*
X120918700Y-93701300D01*
X121401300Y-93701300D01*
X121401300Y-94452539D01*
X121562783Y-94460572D01*
X121582708Y-94452332D01*
X121768180Y-94350798D01*
X121930280Y-94215032D01*
X122062779Y-94050250D01*
X122160584Y-93862785D01*
X122154125Y-93701300D01*
X121401300Y-93701300D01*
X120918700Y-93701300D01*
X120165875Y-93701300D01*
X120159416Y-93862785D01*
X119678036Y-93862785D01*
X119733058Y-93681401D01*
X119754864Y-93460000D01*
X119733058Y-93238599D01*
X119678037Y-93057215D01*
X120159416Y-93057215D01*
X120165875Y-93218700D01*
X120918700Y-93218700D01*
X120918700Y-92467461D01*
X121401300Y-92467461D01*
X121401300Y-93218700D01*
X122154125Y-93218700D01*
X122160584Y-93057215D01*
X122062779Y-92869750D01*
X121930280Y-92704968D01*
X121768180Y-92569202D01*
X121582708Y-92467668D01*
X121562783Y-92459428D01*
X121401300Y-92467461D01*
X120918700Y-92467461D01*
X120757217Y-92459428D01*
X120737292Y-92467668D01*
X120551820Y-92569202D01*
X120389720Y-92704968D01*
X120257221Y-92869750D01*
X120159416Y-93057215D01*
X119678037Y-93057215D01*
X119668478Y-93025706D01*
X119563605Y-92829503D01*
X119422470Y-92657530D01*
X119250497Y-92516395D01*
X119054294Y-92411522D01*
X118841401Y-92346942D01*
X118675477Y-92330600D01*
X118564523Y-92330600D01*
X118398599Y-92346942D01*
X118185706Y-92411522D01*
X117989503Y-92516395D01*
X117817530Y-92657530D01*
X117676395Y-92829503D01*
X117571522Y-93025706D01*
X117506942Y-93238599D01*
X117485136Y-93460000D01*
X117506942Y-93681401D01*
X117571522Y-93894294D01*
X117676395Y-94090497D01*
X117817530Y-94262470D01*
X117989503Y-94403605D01*
X118185706Y-94508478D01*
X118398599Y-94573058D01*
X118564523Y-94589400D01*
X118675477Y-94589400D01*
X118841401Y-94573058D01*
X119054294Y-94508478D01*
X119080001Y-94494737D01*
X119493601Y-94908337D01*
X119493601Y-95284203D01*
X119422470Y-95197530D01*
X119250497Y-95056395D01*
X119054294Y-94951522D01*
X118841401Y-94886942D01*
X118675477Y-94870600D01*
X118564523Y-94870600D01*
X118398599Y-94886942D01*
X118185706Y-94951522D01*
X117989503Y-95056395D01*
X117817530Y-95197530D01*
X117676395Y-95369503D01*
X117571522Y-95565706D01*
X117506942Y-95778599D01*
X117485136Y-96000000D01*
X117506942Y-96221401D01*
X117571522Y-96434294D01*
X117676395Y-96630497D01*
X117817530Y-96802470D01*
X117989503Y-96943605D01*
X118185706Y-97048478D01*
X118398599Y-97113058D01*
X118564523Y-97129400D01*
X118675477Y-97129400D01*
X118841401Y-97113058D01*
X119054294Y-97048478D01*
X119250497Y-96943605D01*
X119422470Y-96802470D01*
X119493600Y-96715798D01*
X119493600Y-96731664D01*
X118426741Y-97798523D01*
X118411243Y-97811242D01*
X118398524Y-97826740D01*
X118398518Y-97826746D01*
X118382955Y-97845710D01*
X118360457Y-97873124D01*
X118343248Y-97905320D01*
X118322719Y-97943726D01*
X118299481Y-98020332D01*
X118291635Y-98100000D01*
X118293601Y-98119962D01*
X118293600Y-99280047D01*
X118291635Y-99300000D01*
X118293600Y-99319953D01*
X118293600Y-99319959D01*
X118299481Y-99379667D01*
X118322719Y-99456274D01*
X118360456Y-99526875D01*
X118411242Y-99588758D01*
X118426746Y-99601482D01*
X118955626Y-100130362D01*
X118944023Y-100136564D01*
X118901479Y-100171479D01*
X118866564Y-100214023D01*
X118840620Y-100262561D01*
X118824644Y-100315228D01*
X118819249Y-100370000D01*
X118819249Y-100863600D01*
X118438336Y-100863600D01*
X117706400Y-100131664D01*
X117706400Y-97239953D01*
X117708365Y-97220000D01*
X117706400Y-97200047D01*
X117706400Y-97200040D01*
X117700519Y-97140332D01*
X117677281Y-97063725D01*
X117639544Y-96993124D01*
X117616348Y-96964860D01*
X117601482Y-96946745D01*
X117601477Y-96946740D01*
X117588758Y-96931242D01*
X117573259Y-96918523D01*
X117114737Y-96460001D01*
X117128478Y-96434294D01*
X117193058Y-96221401D01*
X117214864Y-96000000D01*
X117193058Y-95778599D01*
X117128478Y-95565706D01*
X117023605Y-95369503D01*
X116882470Y-95197530D01*
X116710497Y-95056395D01*
X116514294Y-94951522D01*
X116301401Y-94886942D01*
X116135477Y-94870600D01*
X116024523Y-94870600D01*
X115858599Y-94886942D01*
X115645706Y-94951522D01*
X115449503Y-95056395D01*
X115277530Y-95197530D01*
X115136395Y-95369503D01*
X115031522Y-95565706D01*
X114966942Y-95778599D01*
X114945136Y-96000000D01*
X114966942Y-96221401D01*
X115031522Y-96434294D01*
X115136395Y-96630497D01*
X115277530Y-96802470D01*
X115388572Y-96893600D01*
X115008337Y-96893600D01*
X114574737Y-96460001D01*
X114588478Y-96434294D01*
X114653058Y-96221401D01*
X114674864Y-96000000D01*
X114653058Y-95778599D01*
X114588478Y-95565706D01*
X114483605Y-95369503D01*
X114342470Y-95197530D01*
X114170497Y-95056395D01*
X113974294Y-94951522D01*
X113761401Y-94886942D01*
X113595477Y-94870600D01*
X113484523Y-94870600D01*
X113318599Y-94886942D01*
X113105706Y-94951522D01*
X112909503Y-95056395D01*
X112737530Y-95197530D01*
X112636400Y-95320757D01*
X112636400Y-94938336D01*
X113079999Y-94494737D01*
X113105706Y-94508478D01*
X113318599Y-94573058D01*
X113484523Y-94589400D01*
X113595477Y-94589400D01*
X113761401Y-94573058D01*
X113974294Y-94508478D01*
X114170497Y-94403605D01*
X114342470Y-94262470D01*
X114483605Y-94090497D01*
X114588478Y-93894294D01*
X114653058Y-93681401D01*
X114674864Y-93460000D01*
X114945136Y-93460000D01*
X114966942Y-93681401D01*
X115031522Y-93894294D01*
X115136395Y-94090497D01*
X115277530Y-94262470D01*
X115449503Y-94403605D01*
X115645706Y-94508478D01*
X115858599Y-94573058D01*
X116024523Y-94589400D01*
X116135477Y-94589400D01*
X116301401Y-94573058D01*
X116514294Y-94508478D01*
X116710497Y-94403605D01*
X116882470Y-94262470D01*
X117023605Y-94090497D01*
X117128478Y-93894294D01*
X117193058Y-93681401D01*
X117214864Y-93460000D01*
X117193058Y-93238599D01*
X117128478Y-93025706D01*
X117023605Y-92829503D01*
X116882470Y-92657530D01*
X116710497Y-92516395D01*
X116514294Y-92411522D01*
X116301401Y-92346942D01*
X116135477Y-92330600D01*
X116024523Y-92330600D01*
X115858599Y-92346942D01*
X115645706Y-92411522D01*
X115449503Y-92516395D01*
X115277530Y-92657530D01*
X115136395Y-92829503D01*
X115031522Y-93025706D01*
X114966942Y-93238599D01*
X114945136Y-93460000D01*
X114674864Y-93460000D01*
X114653058Y-93238599D01*
X114588478Y-93025706D01*
X114483605Y-92829503D01*
X114342470Y-92657530D01*
X114170497Y-92516395D01*
X113974294Y-92411522D01*
X113761401Y-92346942D01*
X113595477Y-92330600D01*
X113484523Y-92330600D01*
X113318599Y-92346942D01*
X113105706Y-92411522D01*
X112909503Y-92516395D01*
X112737530Y-92657530D01*
X112596395Y-92829503D01*
X112491522Y-93025706D01*
X112426942Y-93238599D01*
X112405136Y-93460000D01*
X112426942Y-93681401D01*
X112491522Y-93894294D01*
X112505263Y-93920001D01*
X111956741Y-94468523D01*
X111941243Y-94481242D01*
X111928524Y-94496740D01*
X111928518Y-94496746D01*
X111907549Y-94522298D01*
X111890457Y-94543124D01*
X111874457Y-94573058D01*
X111852719Y-94613726D01*
X111829481Y-94690332D01*
X111821635Y-94770000D01*
X111823601Y-94789963D01*
X111823601Y-95223278D01*
X111802470Y-95197530D01*
X111630497Y-95056395D01*
X111434294Y-94951522D01*
X111221401Y-94886942D01*
X111055477Y-94870600D01*
X110944523Y-94870600D01*
X110778599Y-94886942D01*
X110565706Y-94951522D01*
X110369503Y-95056395D01*
X110197530Y-95197530D01*
X110056395Y-95369503D01*
X109951522Y-95565706D01*
X109886942Y-95778599D01*
X109865136Y-96000000D01*
X109886942Y-96221401D01*
X109951522Y-96434294D01*
X109965263Y-96460001D01*
X109531664Y-96893600D01*
X109281136Y-96893600D01*
X109673255Y-96501481D01*
X109688758Y-96488758D01*
X109739544Y-96426876D01*
X109777281Y-96356275D01*
X109795804Y-96295211D01*
X109800519Y-96279669D01*
X109802681Y-96257719D01*
X109806400Y-96219960D01*
X109806400Y-96219954D01*
X109808365Y-96200001D01*
X109806400Y-96180048D01*
X109806400Y-95228336D01*
X110539999Y-94494737D01*
X110565706Y-94508478D01*
X110778599Y-94573058D01*
X110944523Y-94589400D01*
X111055477Y-94589400D01*
X111221401Y-94573058D01*
X111434294Y-94508478D01*
X111630497Y-94403605D01*
X111802470Y-94262470D01*
X111943605Y-94090497D01*
X112048478Y-93894294D01*
X112113058Y-93681401D01*
X112134864Y-93460000D01*
X112113058Y-93238599D01*
X112048478Y-93025706D01*
X111943605Y-92829503D01*
X111802470Y-92657530D01*
X111630497Y-92516395D01*
X111434294Y-92411522D01*
X111221401Y-92346942D01*
X111055477Y-92330600D01*
X110944523Y-92330600D01*
X110778599Y-92346942D01*
X110565706Y-92411522D01*
X110369503Y-92516395D01*
X110197530Y-92657530D01*
X110056395Y-92829503D01*
X109951522Y-93025706D01*
X109886942Y-93238599D01*
X109865136Y-93460000D01*
X109886942Y-93681401D01*
X109951522Y-93894294D01*
X109965263Y-93920001D01*
X109149099Y-94736165D01*
X109149099Y-89670498D01*
X109152611Y-89634678D01*
X109157062Y-89619936D01*
X109164288Y-89606345D01*
X109174019Y-89594415D01*
X109185886Y-89584597D01*
X109199431Y-89577273D01*
X109214135Y-89572722D01*
X109248585Y-89569101D01*
X122909491Y-89569101D01*
X122945321Y-89572614D01*
M02*
