G04 #@! TF.GenerationSoftware,KiCad,Pcbnew,(5.1.4)-1*
G04 #@! TF.CreationDate,2020-09-26T21:24:12-04:00*
G04 #@! TF.ProjectId,SOC Indicator Sub,534f4320-496e-4646-9963-61746f722053,rev?*
G04 #@! TF.SameCoordinates,Original*
G04 #@! TF.FileFunction,Legend,Top*
G04 #@! TF.FilePolarity,Positive*
%FSLAX46Y46*%
G04 Gerber Fmt 4.6, Leading zero omitted, Abs format (unit mm)*
G04 Created by KiCad (PCBNEW (5.1.4)-1) date 2020-09-26 21:24:12*
%MOMM*%
%LPD*%
G04 APERTURE LIST*
%ADD10C,0.120000*%
G04 APERTURE END LIST*
D10*
X101080000Y-101560000D02*
X101236000Y-101560000D01*
X98764000Y-101560000D02*
X98920000Y-101560000D01*
X101079837Y-98958870D02*
G75*
G02X101080000Y-101040961I-1079837J-1041130D01*
G01*
X98920163Y-98958870D02*
G75*
G03X98920000Y-101040961I1079837J-1041130D01*
G01*
X101078608Y-98327665D02*
G75*
G02X101235516Y-101560000I-1078608J-1672335D01*
G01*
X98921392Y-98327665D02*
G75*
G03X98764484Y-101560000I1078608J-1672335D01*
G01*
X103920163Y-101041130D02*
G75*
G02X103920000Y-98959039I1079837J1041130D01*
G01*
X106079837Y-101041130D02*
G75*
G03X106080000Y-98959039I-1079837J1041130D01*
G01*
X103921392Y-101672335D02*
G75*
G02X103764484Y-98440000I1078608J1672335D01*
G01*
X106078608Y-101672335D02*
G75*
G03X106235516Y-98440000I-1078608J1672335D01*
G01*
X103920000Y-98440000D02*
X103764000Y-98440000D01*
X106236000Y-98440000D02*
X106080000Y-98440000D01*
X111079837Y-98958870D02*
G75*
G02X111080000Y-101040961I-1079837J-1041130D01*
G01*
X108920163Y-98958870D02*
G75*
G03X108920000Y-101040961I1079837J-1041130D01*
G01*
X111078608Y-98327665D02*
G75*
G02X111235516Y-101560000I-1078608J-1672335D01*
G01*
X108921392Y-98327665D02*
G75*
G03X108764484Y-101560000I1078608J-1672335D01*
G01*
X111080000Y-101560000D02*
X111236000Y-101560000D01*
X108764000Y-101560000D02*
X108920000Y-101560000D01*
X113920163Y-101041130D02*
G75*
G02X113920000Y-98959039I1079837J1041130D01*
G01*
X116079837Y-101041130D02*
G75*
G03X116080000Y-98959039I-1079837J1041130D01*
G01*
X113921392Y-101672335D02*
G75*
G02X113764484Y-98440000I1078608J1672335D01*
G01*
X116078608Y-101672335D02*
G75*
G03X116235516Y-98440000I-1078608J1672335D01*
G01*
X113920000Y-98440000D02*
X113764000Y-98440000D01*
X116236000Y-98440000D02*
X116080000Y-98440000D01*
X121079837Y-98958870D02*
G75*
G02X121080000Y-101040961I-1079837J-1041130D01*
G01*
X118920163Y-98958870D02*
G75*
G03X118920000Y-101040961I1079837J-1041130D01*
G01*
X121078608Y-98327665D02*
G75*
G02X121235516Y-101560000I-1078608J-1672335D01*
G01*
X118921392Y-98327665D02*
G75*
G03X118764484Y-101560000I1078608J-1672335D01*
G01*
X121080000Y-101560000D02*
X121236000Y-101560000D01*
X118764000Y-101560000D02*
X118920000Y-101560000D01*
X123920163Y-101041130D02*
G75*
G02X123920000Y-98959039I1079837J1041130D01*
G01*
X126079837Y-101041130D02*
G75*
G03X126080000Y-98959039I-1079837J1041130D01*
G01*
X123921392Y-101672335D02*
G75*
G02X123764484Y-98440000I1078608J1672335D01*
G01*
X126078608Y-101672335D02*
G75*
G03X126235516Y-98440000I-1078608J1672335D01*
G01*
X123920000Y-98440000D02*
X123764000Y-98440000D01*
X126236000Y-98440000D02*
X126080000Y-98440000D01*
X131079837Y-98958870D02*
G75*
G02X131080000Y-101040961I-1079837J-1041130D01*
G01*
X128920163Y-98958870D02*
G75*
G03X128920000Y-101040961I1079837J-1041130D01*
G01*
X131078608Y-98327665D02*
G75*
G02X131235516Y-101560000I-1078608J-1672335D01*
G01*
X128921392Y-98327665D02*
G75*
G03X128764484Y-101560000I1078608J-1672335D01*
G01*
X131080000Y-101560000D02*
X131236000Y-101560000D01*
X128764000Y-101560000D02*
X128920000Y-101560000D01*
X133920163Y-101041130D02*
G75*
G02X133920000Y-98959039I1079837J1041130D01*
G01*
X136079837Y-101041130D02*
G75*
G03X136080000Y-98959039I-1079837J1041130D01*
G01*
X133921392Y-101672335D02*
G75*
G02X133764484Y-98440000I1078608J1672335D01*
G01*
X136078608Y-101672335D02*
G75*
G03X136235516Y-98440000I-1078608J1672335D01*
G01*
X133920000Y-98440000D02*
X133764000Y-98440000D01*
X136236000Y-98440000D02*
X136080000Y-98440000D01*
X141079837Y-98958870D02*
G75*
G02X141080000Y-101040961I-1079837J-1041130D01*
G01*
X138920163Y-98958870D02*
G75*
G03X138920000Y-101040961I1079837J-1041130D01*
G01*
X141078608Y-98327665D02*
G75*
G02X141235516Y-101560000I-1078608J-1672335D01*
G01*
X138921392Y-98327665D02*
G75*
G03X138764484Y-101560000I1078608J-1672335D01*
G01*
X141080000Y-101560000D02*
X141236000Y-101560000D01*
X138764000Y-101560000D02*
X138920000Y-101560000D01*
X143920163Y-101041130D02*
G75*
G02X143920000Y-98959039I1079837J1041130D01*
G01*
X146079837Y-101041130D02*
G75*
G03X146080000Y-98959039I-1079837J1041130D01*
G01*
X143921392Y-101672335D02*
G75*
G02X143764484Y-98440000I1078608J1672335D01*
G01*
X146078608Y-101672335D02*
G75*
G03X146235516Y-98440000I-1078608J1672335D01*
G01*
X143920000Y-98440000D02*
X143764000Y-98440000D01*
X146236000Y-98440000D02*
X146080000Y-98440000D01*
M02*
