M48
; DRILL file {KiCad (5.1.4)-1} date 9/26/2020 9:24:17 PM
; FORMAT={-:-/ absolute / inch / decimal}
; #@! TF.CreationDate,2020-09-26T21:24:17-04:00
; #@! TF.GenerationSoftware,Kicad,Pcbnew,(5.1.4)-1
; #@! TF.FileFunction,Plated,1,2,PTH
FMAT,2
INCH
T1C0.0354
T2C0.0394
%
G90
G05
T1
X5.315Y-3.987
X4.3307Y-3.987
X4.5276Y-3.987
X5.7087Y-3.887
X5.7087Y-3.987
X3.937Y-3.887
X3.937Y-3.987
X5.315Y-3.887
X4.3307Y-3.887
X4.1339Y-3.887
X4.1339Y-3.987
X4.7244Y-3.887
X4.7244Y-3.987
X5.5118Y-3.887
X5.5118Y-3.987
X5.1181Y-3.887
X5.1181Y-3.987
X4.5276Y-3.887
X4.9213Y-3.887
X4.9213Y-3.987
T2
X4.3701Y-3.6795
X4.3701Y-3.7795
X4.4701Y-3.6795
X4.4701Y-3.7795
X4.5701Y-3.6795
X4.5701Y-3.7795
X4.6701Y-3.6795
X4.6701Y-3.7795
X4.7701Y-3.6795
X4.7701Y-3.7795
T0
M30
