G04 #@! TF.GenerationSoftware,KiCad,Pcbnew,(5.1.4)-1*
G04 #@! TF.CreationDate,2020-09-26T21:24:13-04:00*
G04 #@! TF.ProjectId,SOC Indicator Sub,534f4320-496e-4646-9963-61746f722053,rev?*
G04 #@! TF.SameCoordinates,Original*
G04 #@! TF.FileFunction,Soldermask,Bot*
G04 #@! TF.FilePolarity,Negative*
%FSLAX46Y46*%
G04 Gerber Fmt 4.6, Leading zero omitted, Abs format (unit mm)*
G04 Created by KiCad (PCBNEW (5.1.4)-1) date 2020-09-26 21:24:13*
%MOMM*%
%LPD*%
G04 APERTURE LIST*
%ADD10C,0.100000*%
G04 APERTURE END LIST*
D10*
G36*
X145277395Y-100355546D02*
G01*
X145450466Y-100427234D01*
X145450467Y-100427235D01*
X145606227Y-100531310D01*
X145738690Y-100663773D01*
X145738691Y-100663775D01*
X145842766Y-100819534D01*
X145914454Y-100992605D01*
X145951000Y-101176333D01*
X145951000Y-101363667D01*
X145914454Y-101547395D01*
X145842766Y-101720466D01*
X145842765Y-101720467D01*
X145738690Y-101876227D01*
X145606227Y-102008690D01*
X145527818Y-102061081D01*
X145450466Y-102112766D01*
X145277395Y-102184454D01*
X145093667Y-102221000D01*
X144906333Y-102221000D01*
X144722605Y-102184454D01*
X144549534Y-102112766D01*
X144472182Y-102061081D01*
X144393773Y-102008690D01*
X144261310Y-101876227D01*
X144157235Y-101720467D01*
X144157234Y-101720466D01*
X144085546Y-101547395D01*
X144049000Y-101363667D01*
X144049000Y-101176333D01*
X144085546Y-100992605D01*
X144157234Y-100819534D01*
X144261309Y-100663775D01*
X144261310Y-100663773D01*
X144393773Y-100531310D01*
X144549533Y-100427235D01*
X144549534Y-100427234D01*
X144722605Y-100355546D01*
X144906333Y-100319000D01*
X145093667Y-100319000D01*
X145277395Y-100355546D01*
X145277395Y-100355546D01*
G37*
G36*
X100951000Y-102221000D02*
G01*
X99049000Y-102221000D01*
X99049000Y-100319000D01*
X100951000Y-100319000D01*
X100951000Y-102221000D01*
X100951000Y-102221000D01*
G37*
G36*
X105277395Y-100355546D02*
G01*
X105450466Y-100427234D01*
X105450467Y-100427235D01*
X105606227Y-100531310D01*
X105738690Y-100663773D01*
X105738691Y-100663775D01*
X105842766Y-100819534D01*
X105914454Y-100992605D01*
X105951000Y-101176333D01*
X105951000Y-101363667D01*
X105914454Y-101547395D01*
X105842766Y-101720466D01*
X105842765Y-101720467D01*
X105738690Y-101876227D01*
X105606227Y-102008690D01*
X105527818Y-102061081D01*
X105450466Y-102112766D01*
X105277395Y-102184454D01*
X105093667Y-102221000D01*
X104906333Y-102221000D01*
X104722605Y-102184454D01*
X104549534Y-102112766D01*
X104472182Y-102061081D01*
X104393773Y-102008690D01*
X104261310Y-101876227D01*
X104157235Y-101720467D01*
X104157234Y-101720466D01*
X104085546Y-101547395D01*
X104049000Y-101363667D01*
X104049000Y-101176333D01*
X104085546Y-100992605D01*
X104157234Y-100819534D01*
X104261309Y-100663775D01*
X104261310Y-100663773D01*
X104393773Y-100531310D01*
X104549533Y-100427235D01*
X104549534Y-100427234D01*
X104722605Y-100355546D01*
X104906333Y-100319000D01*
X105093667Y-100319000D01*
X105277395Y-100355546D01*
X105277395Y-100355546D01*
G37*
G36*
X110951000Y-102221000D02*
G01*
X109049000Y-102221000D01*
X109049000Y-100319000D01*
X110951000Y-100319000D01*
X110951000Y-102221000D01*
X110951000Y-102221000D01*
G37*
G36*
X115277395Y-100355546D02*
G01*
X115450466Y-100427234D01*
X115450467Y-100427235D01*
X115606227Y-100531310D01*
X115738690Y-100663773D01*
X115738691Y-100663775D01*
X115842766Y-100819534D01*
X115914454Y-100992605D01*
X115951000Y-101176333D01*
X115951000Y-101363667D01*
X115914454Y-101547395D01*
X115842766Y-101720466D01*
X115842765Y-101720467D01*
X115738690Y-101876227D01*
X115606227Y-102008690D01*
X115527818Y-102061081D01*
X115450466Y-102112766D01*
X115277395Y-102184454D01*
X115093667Y-102221000D01*
X114906333Y-102221000D01*
X114722605Y-102184454D01*
X114549534Y-102112766D01*
X114472182Y-102061081D01*
X114393773Y-102008690D01*
X114261310Y-101876227D01*
X114157235Y-101720467D01*
X114157234Y-101720466D01*
X114085546Y-101547395D01*
X114049000Y-101363667D01*
X114049000Y-101176333D01*
X114085546Y-100992605D01*
X114157234Y-100819534D01*
X114261309Y-100663775D01*
X114261310Y-100663773D01*
X114393773Y-100531310D01*
X114549533Y-100427235D01*
X114549534Y-100427234D01*
X114722605Y-100355546D01*
X114906333Y-100319000D01*
X115093667Y-100319000D01*
X115277395Y-100355546D01*
X115277395Y-100355546D01*
G37*
G36*
X120951000Y-102221000D02*
G01*
X119049000Y-102221000D01*
X119049000Y-100319000D01*
X120951000Y-100319000D01*
X120951000Y-102221000D01*
X120951000Y-102221000D01*
G37*
G36*
X125277395Y-100355546D02*
G01*
X125450466Y-100427234D01*
X125450467Y-100427235D01*
X125606227Y-100531310D01*
X125738690Y-100663773D01*
X125738691Y-100663775D01*
X125842766Y-100819534D01*
X125914454Y-100992605D01*
X125951000Y-101176333D01*
X125951000Y-101363667D01*
X125914454Y-101547395D01*
X125842766Y-101720466D01*
X125842765Y-101720467D01*
X125738690Y-101876227D01*
X125606227Y-102008690D01*
X125527818Y-102061081D01*
X125450466Y-102112766D01*
X125277395Y-102184454D01*
X125093667Y-102221000D01*
X124906333Y-102221000D01*
X124722605Y-102184454D01*
X124549534Y-102112766D01*
X124472182Y-102061081D01*
X124393773Y-102008690D01*
X124261310Y-101876227D01*
X124157235Y-101720467D01*
X124157234Y-101720466D01*
X124085546Y-101547395D01*
X124049000Y-101363667D01*
X124049000Y-101176333D01*
X124085546Y-100992605D01*
X124157234Y-100819534D01*
X124261309Y-100663775D01*
X124261310Y-100663773D01*
X124393773Y-100531310D01*
X124549533Y-100427235D01*
X124549534Y-100427234D01*
X124722605Y-100355546D01*
X124906333Y-100319000D01*
X125093667Y-100319000D01*
X125277395Y-100355546D01*
X125277395Y-100355546D01*
G37*
G36*
X130951000Y-102221000D02*
G01*
X129049000Y-102221000D01*
X129049000Y-100319000D01*
X130951000Y-100319000D01*
X130951000Y-102221000D01*
X130951000Y-102221000D01*
G37*
G36*
X140951000Y-102221000D02*
G01*
X139049000Y-102221000D01*
X139049000Y-100319000D01*
X140951000Y-100319000D01*
X140951000Y-102221000D01*
X140951000Y-102221000D01*
G37*
G36*
X135277395Y-100355546D02*
G01*
X135450466Y-100427234D01*
X135450467Y-100427235D01*
X135606227Y-100531310D01*
X135738690Y-100663773D01*
X135738691Y-100663775D01*
X135842766Y-100819534D01*
X135914454Y-100992605D01*
X135951000Y-101176333D01*
X135951000Y-101363667D01*
X135914454Y-101547395D01*
X135842766Y-101720466D01*
X135842765Y-101720467D01*
X135738690Y-101876227D01*
X135606227Y-102008690D01*
X135527818Y-102061081D01*
X135450466Y-102112766D01*
X135277395Y-102184454D01*
X135093667Y-102221000D01*
X134906333Y-102221000D01*
X134722605Y-102184454D01*
X134549534Y-102112766D01*
X134472182Y-102061081D01*
X134393773Y-102008690D01*
X134261310Y-101876227D01*
X134157235Y-101720467D01*
X134157234Y-101720466D01*
X134085546Y-101547395D01*
X134049000Y-101363667D01*
X134049000Y-101176333D01*
X134085546Y-100992605D01*
X134157234Y-100819534D01*
X134261309Y-100663775D01*
X134261310Y-100663773D01*
X134393773Y-100531310D01*
X134549533Y-100427235D01*
X134549534Y-100427234D01*
X134722605Y-100355546D01*
X134906333Y-100319000D01*
X135093667Y-100319000D01*
X135277395Y-100355546D01*
X135277395Y-100355546D01*
G37*
G36*
X100277395Y-97815546D02*
G01*
X100450466Y-97887234D01*
X100450467Y-97887235D01*
X100606227Y-97991310D01*
X100738690Y-98123773D01*
X100738691Y-98123775D01*
X100842766Y-98279534D01*
X100914454Y-98452605D01*
X100951000Y-98636333D01*
X100951000Y-98823667D01*
X100914454Y-99007395D01*
X100842766Y-99180466D01*
X100842765Y-99180467D01*
X100738690Y-99336227D01*
X100606227Y-99468690D01*
X100527818Y-99521081D01*
X100450466Y-99572766D01*
X100277395Y-99644454D01*
X100093667Y-99681000D01*
X99906333Y-99681000D01*
X99722605Y-99644454D01*
X99549534Y-99572766D01*
X99472182Y-99521081D01*
X99393773Y-99468690D01*
X99261310Y-99336227D01*
X99157235Y-99180467D01*
X99157234Y-99180466D01*
X99085546Y-99007395D01*
X99049000Y-98823667D01*
X99049000Y-98636333D01*
X99085546Y-98452605D01*
X99157234Y-98279534D01*
X99261309Y-98123775D01*
X99261310Y-98123773D01*
X99393773Y-97991310D01*
X99549533Y-97887235D01*
X99549534Y-97887234D01*
X99722605Y-97815546D01*
X99906333Y-97779000D01*
X100093667Y-97779000D01*
X100277395Y-97815546D01*
X100277395Y-97815546D01*
G37*
G36*
X140277395Y-97815546D02*
G01*
X140450466Y-97887234D01*
X140450467Y-97887235D01*
X140606227Y-97991310D01*
X140738690Y-98123773D01*
X140738691Y-98123775D01*
X140842766Y-98279534D01*
X140914454Y-98452605D01*
X140951000Y-98636333D01*
X140951000Y-98823667D01*
X140914454Y-99007395D01*
X140842766Y-99180466D01*
X140842765Y-99180467D01*
X140738690Y-99336227D01*
X140606227Y-99468690D01*
X140527818Y-99521081D01*
X140450466Y-99572766D01*
X140277395Y-99644454D01*
X140093667Y-99681000D01*
X139906333Y-99681000D01*
X139722605Y-99644454D01*
X139549534Y-99572766D01*
X139472182Y-99521081D01*
X139393773Y-99468690D01*
X139261310Y-99336227D01*
X139157235Y-99180467D01*
X139157234Y-99180466D01*
X139085546Y-99007395D01*
X139049000Y-98823667D01*
X139049000Y-98636333D01*
X139085546Y-98452605D01*
X139157234Y-98279534D01*
X139261309Y-98123775D01*
X139261310Y-98123773D01*
X139393773Y-97991310D01*
X139549533Y-97887235D01*
X139549534Y-97887234D01*
X139722605Y-97815546D01*
X139906333Y-97779000D01*
X140093667Y-97779000D01*
X140277395Y-97815546D01*
X140277395Y-97815546D01*
G37*
G36*
X135951000Y-99681000D02*
G01*
X134049000Y-99681000D01*
X134049000Y-97779000D01*
X135951000Y-97779000D01*
X135951000Y-99681000D01*
X135951000Y-99681000D01*
G37*
G36*
X105951000Y-99681000D02*
G01*
X104049000Y-99681000D01*
X104049000Y-97779000D01*
X105951000Y-97779000D01*
X105951000Y-99681000D01*
X105951000Y-99681000D01*
G37*
G36*
X110277395Y-97815546D02*
G01*
X110450466Y-97887234D01*
X110450467Y-97887235D01*
X110606227Y-97991310D01*
X110738690Y-98123773D01*
X110738691Y-98123775D01*
X110842766Y-98279534D01*
X110914454Y-98452605D01*
X110951000Y-98636333D01*
X110951000Y-98823667D01*
X110914454Y-99007395D01*
X110842766Y-99180466D01*
X110842765Y-99180467D01*
X110738690Y-99336227D01*
X110606227Y-99468690D01*
X110527818Y-99521081D01*
X110450466Y-99572766D01*
X110277395Y-99644454D01*
X110093667Y-99681000D01*
X109906333Y-99681000D01*
X109722605Y-99644454D01*
X109549534Y-99572766D01*
X109472182Y-99521081D01*
X109393773Y-99468690D01*
X109261310Y-99336227D01*
X109157235Y-99180467D01*
X109157234Y-99180466D01*
X109085546Y-99007395D01*
X109049000Y-98823667D01*
X109049000Y-98636333D01*
X109085546Y-98452605D01*
X109157234Y-98279534D01*
X109261309Y-98123775D01*
X109261310Y-98123773D01*
X109393773Y-97991310D01*
X109549533Y-97887235D01*
X109549534Y-97887234D01*
X109722605Y-97815546D01*
X109906333Y-97779000D01*
X110093667Y-97779000D01*
X110277395Y-97815546D01*
X110277395Y-97815546D01*
G37*
G36*
X115951000Y-99681000D02*
G01*
X114049000Y-99681000D01*
X114049000Y-97779000D01*
X115951000Y-97779000D01*
X115951000Y-99681000D01*
X115951000Y-99681000D01*
G37*
G36*
X120277395Y-97815546D02*
G01*
X120450466Y-97887234D01*
X120450467Y-97887235D01*
X120606227Y-97991310D01*
X120738690Y-98123773D01*
X120738691Y-98123775D01*
X120842766Y-98279534D01*
X120914454Y-98452605D01*
X120951000Y-98636333D01*
X120951000Y-98823667D01*
X120914454Y-99007395D01*
X120842766Y-99180466D01*
X120842765Y-99180467D01*
X120738690Y-99336227D01*
X120606227Y-99468690D01*
X120527818Y-99521081D01*
X120450466Y-99572766D01*
X120277395Y-99644454D01*
X120093667Y-99681000D01*
X119906333Y-99681000D01*
X119722605Y-99644454D01*
X119549534Y-99572766D01*
X119472182Y-99521081D01*
X119393773Y-99468690D01*
X119261310Y-99336227D01*
X119157235Y-99180467D01*
X119157234Y-99180466D01*
X119085546Y-99007395D01*
X119049000Y-98823667D01*
X119049000Y-98636333D01*
X119085546Y-98452605D01*
X119157234Y-98279534D01*
X119261309Y-98123775D01*
X119261310Y-98123773D01*
X119393773Y-97991310D01*
X119549533Y-97887235D01*
X119549534Y-97887234D01*
X119722605Y-97815546D01*
X119906333Y-97779000D01*
X120093667Y-97779000D01*
X120277395Y-97815546D01*
X120277395Y-97815546D01*
G37*
G36*
X145951000Y-99681000D02*
G01*
X144049000Y-99681000D01*
X144049000Y-97779000D01*
X145951000Y-97779000D01*
X145951000Y-99681000D01*
X145951000Y-99681000D01*
G37*
G36*
X130277395Y-97815546D02*
G01*
X130450466Y-97887234D01*
X130450467Y-97887235D01*
X130606227Y-97991310D01*
X130738690Y-98123773D01*
X130738691Y-98123775D01*
X130842766Y-98279534D01*
X130914454Y-98452605D01*
X130951000Y-98636333D01*
X130951000Y-98823667D01*
X130914454Y-99007395D01*
X130842766Y-99180466D01*
X130842765Y-99180467D01*
X130738690Y-99336227D01*
X130606227Y-99468690D01*
X130527818Y-99521081D01*
X130450466Y-99572766D01*
X130277395Y-99644454D01*
X130093667Y-99681000D01*
X129906333Y-99681000D01*
X129722605Y-99644454D01*
X129549534Y-99572766D01*
X129472182Y-99521081D01*
X129393773Y-99468690D01*
X129261310Y-99336227D01*
X129157235Y-99180467D01*
X129157234Y-99180466D01*
X129085546Y-99007395D01*
X129049000Y-98823667D01*
X129049000Y-98636333D01*
X129085546Y-98452605D01*
X129157234Y-98279534D01*
X129261309Y-98123775D01*
X129261310Y-98123773D01*
X129393773Y-97991310D01*
X129549533Y-97887235D01*
X129549534Y-97887234D01*
X129722605Y-97815546D01*
X129906333Y-97779000D01*
X130093667Y-97779000D01*
X130277395Y-97815546D01*
X130277395Y-97815546D01*
G37*
G36*
X125951000Y-99681000D02*
G01*
X124049000Y-99681000D01*
X124049000Y-97779000D01*
X125951000Y-97779000D01*
X125951000Y-99681000D01*
X125951000Y-99681000D01*
G37*
G36*
X122061000Y-96901000D02*
G01*
X120259000Y-96901000D01*
X120259000Y-95099000D01*
X122061000Y-95099000D01*
X122061000Y-96901000D01*
X122061000Y-96901000D01*
G37*
G36*
X118730443Y-95105519D02*
G01*
X118796627Y-95112037D01*
X118966466Y-95163557D01*
X119122991Y-95247222D01*
X119158729Y-95276552D01*
X119260186Y-95359814D01*
X119343448Y-95461271D01*
X119372778Y-95497009D01*
X119456443Y-95653534D01*
X119507963Y-95823373D01*
X119525359Y-96000000D01*
X119507963Y-96176627D01*
X119456443Y-96346466D01*
X119372778Y-96502991D01*
X119343448Y-96538729D01*
X119260186Y-96640186D01*
X119158729Y-96723448D01*
X119122991Y-96752778D01*
X118966466Y-96836443D01*
X118796627Y-96887963D01*
X118730443Y-96894481D01*
X118664260Y-96901000D01*
X118575740Y-96901000D01*
X118509558Y-96894482D01*
X118443373Y-96887963D01*
X118273534Y-96836443D01*
X118117009Y-96752778D01*
X118081271Y-96723448D01*
X117979814Y-96640186D01*
X117896552Y-96538729D01*
X117867222Y-96502991D01*
X117783557Y-96346466D01*
X117732037Y-96176627D01*
X117714641Y-96000000D01*
X117732037Y-95823373D01*
X117783557Y-95653534D01*
X117867222Y-95497009D01*
X117896552Y-95461271D01*
X117979814Y-95359814D01*
X118081271Y-95276552D01*
X118117009Y-95247222D01*
X118273534Y-95163557D01*
X118443373Y-95112037D01*
X118509558Y-95105518D01*
X118575740Y-95099000D01*
X118664260Y-95099000D01*
X118730443Y-95105519D01*
X118730443Y-95105519D01*
G37*
G36*
X116190443Y-95105519D02*
G01*
X116256627Y-95112037D01*
X116426466Y-95163557D01*
X116582991Y-95247222D01*
X116618729Y-95276552D01*
X116720186Y-95359814D01*
X116803448Y-95461271D01*
X116832778Y-95497009D01*
X116916443Y-95653534D01*
X116967963Y-95823373D01*
X116985359Y-96000000D01*
X116967963Y-96176627D01*
X116916443Y-96346466D01*
X116832778Y-96502991D01*
X116803448Y-96538729D01*
X116720186Y-96640186D01*
X116618729Y-96723448D01*
X116582991Y-96752778D01*
X116426466Y-96836443D01*
X116256627Y-96887963D01*
X116190443Y-96894481D01*
X116124260Y-96901000D01*
X116035740Y-96901000D01*
X115969558Y-96894482D01*
X115903373Y-96887963D01*
X115733534Y-96836443D01*
X115577009Y-96752778D01*
X115541271Y-96723448D01*
X115439814Y-96640186D01*
X115356552Y-96538729D01*
X115327222Y-96502991D01*
X115243557Y-96346466D01*
X115192037Y-96176627D01*
X115174641Y-96000000D01*
X115192037Y-95823373D01*
X115243557Y-95653534D01*
X115327222Y-95497009D01*
X115356552Y-95461271D01*
X115439814Y-95359814D01*
X115541271Y-95276552D01*
X115577009Y-95247222D01*
X115733534Y-95163557D01*
X115903373Y-95112037D01*
X115969558Y-95105518D01*
X116035740Y-95099000D01*
X116124260Y-95099000D01*
X116190443Y-95105519D01*
X116190443Y-95105519D01*
G37*
G36*
X113650443Y-95105519D02*
G01*
X113716627Y-95112037D01*
X113886466Y-95163557D01*
X114042991Y-95247222D01*
X114078729Y-95276552D01*
X114180186Y-95359814D01*
X114263448Y-95461271D01*
X114292778Y-95497009D01*
X114376443Y-95653534D01*
X114427963Y-95823373D01*
X114445359Y-96000000D01*
X114427963Y-96176627D01*
X114376443Y-96346466D01*
X114292778Y-96502991D01*
X114263448Y-96538729D01*
X114180186Y-96640186D01*
X114078729Y-96723448D01*
X114042991Y-96752778D01*
X113886466Y-96836443D01*
X113716627Y-96887963D01*
X113650443Y-96894481D01*
X113584260Y-96901000D01*
X113495740Y-96901000D01*
X113429558Y-96894482D01*
X113363373Y-96887963D01*
X113193534Y-96836443D01*
X113037009Y-96752778D01*
X113001271Y-96723448D01*
X112899814Y-96640186D01*
X112816552Y-96538729D01*
X112787222Y-96502991D01*
X112703557Y-96346466D01*
X112652037Y-96176627D01*
X112634641Y-96000000D01*
X112652037Y-95823373D01*
X112703557Y-95653534D01*
X112787222Y-95497009D01*
X112816552Y-95461271D01*
X112899814Y-95359814D01*
X113001271Y-95276552D01*
X113037009Y-95247222D01*
X113193534Y-95163557D01*
X113363373Y-95112037D01*
X113429558Y-95105518D01*
X113495740Y-95099000D01*
X113584260Y-95099000D01*
X113650443Y-95105519D01*
X113650443Y-95105519D01*
G37*
G36*
X111110443Y-95105519D02*
G01*
X111176627Y-95112037D01*
X111346466Y-95163557D01*
X111502991Y-95247222D01*
X111538729Y-95276552D01*
X111640186Y-95359814D01*
X111723448Y-95461271D01*
X111752778Y-95497009D01*
X111836443Y-95653534D01*
X111887963Y-95823373D01*
X111905359Y-96000000D01*
X111887963Y-96176627D01*
X111836443Y-96346466D01*
X111752778Y-96502991D01*
X111723448Y-96538729D01*
X111640186Y-96640186D01*
X111538729Y-96723448D01*
X111502991Y-96752778D01*
X111346466Y-96836443D01*
X111176627Y-96887963D01*
X111110443Y-96894481D01*
X111044260Y-96901000D01*
X110955740Y-96901000D01*
X110889558Y-96894482D01*
X110823373Y-96887963D01*
X110653534Y-96836443D01*
X110497009Y-96752778D01*
X110461271Y-96723448D01*
X110359814Y-96640186D01*
X110276552Y-96538729D01*
X110247222Y-96502991D01*
X110163557Y-96346466D01*
X110112037Y-96176627D01*
X110094641Y-96000000D01*
X110112037Y-95823373D01*
X110163557Y-95653534D01*
X110247222Y-95497009D01*
X110276552Y-95461271D01*
X110359814Y-95359814D01*
X110461271Y-95276552D01*
X110497009Y-95247222D01*
X110653534Y-95163557D01*
X110823373Y-95112037D01*
X110889558Y-95105518D01*
X110955740Y-95099000D01*
X111044260Y-95099000D01*
X111110443Y-95105519D01*
X111110443Y-95105519D01*
G37*
G36*
X111110442Y-92565518D02*
G01*
X111176627Y-92572037D01*
X111346466Y-92623557D01*
X111502991Y-92707222D01*
X111538729Y-92736552D01*
X111640186Y-92819814D01*
X111723448Y-92921271D01*
X111752778Y-92957009D01*
X111836443Y-93113534D01*
X111887963Y-93283373D01*
X111905359Y-93460000D01*
X111887963Y-93636627D01*
X111836443Y-93806466D01*
X111752778Y-93962991D01*
X111723448Y-93998729D01*
X111640186Y-94100186D01*
X111538729Y-94183448D01*
X111502991Y-94212778D01*
X111346466Y-94296443D01*
X111176627Y-94347963D01*
X111110443Y-94354481D01*
X111044260Y-94361000D01*
X110955740Y-94361000D01*
X110889557Y-94354481D01*
X110823373Y-94347963D01*
X110653534Y-94296443D01*
X110497009Y-94212778D01*
X110461271Y-94183448D01*
X110359814Y-94100186D01*
X110276552Y-93998729D01*
X110247222Y-93962991D01*
X110163557Y-93806466D01*
X110112037Y-93636627D01*
X110094641Y-93460000D01*
X110112037Y-93283373D01*
X110163557Y-93113534D01*
X110247222Y-92957009D01*
X110276552Y-92921271D01*
X110359814Y-92819814D01*
X110461271Y-92736552D01*
X110497009Y-92707222D01*
X110653534Y-92623557D01*
X110823373Y-92572037D01*
X110889558Y-92565518D01*
X110955740Y-92559000D01*
X111044260Y-92559000D01*
X111110442Y-92565518D01*
X111110442Y-92565518D01*
G37*
G36*
X121270442Y-92565518D02*
G01*
X121336627Y-92572037D01*
X121506466Y-92623557D01*
X121662991Y-92707222D01*
X121698729Y-92736552D01*
X121800186Y-92819814D01*
X121883448Y-92921271D01*
X121912778Y-92957009D01*
X121996443Y-93113534D01*
X122047963Y-93283373D01*
X122065359Y-93460000D01*
X122047963Y-93636627D01*
X121996443Y-93806466D01*
X121912778Y-93962991D01*
X121883448Y-93998729D01*
X121800186Y-94100186D01*
X121698729Y-94183448D01*
X121662991Y-94212778D01*
X121506466Y-94296443D01*
X121336627Y-94347963D01*
X121270443Y-94354481D01*
X121204260Y-94361000D01*
X121115740Y-94361000D01*
X121049557Y-94354481D01*
X120983373Y-94347963D01*
X120813534Y-94296443D01*
X120657009Y-94212778D01*
X120621271Y-94183448D01*
X120519814Y-94100186D01*
X120436552Y-93998729D01*
X120407222Y-93962991D01*
X120323557Y-93806466D01*
X120272037Y-93636627D01*
X120254641Y-93460000D01*
X120272037Y-93283373D01*
X120323557Y-93113534D01*
X120407222Y-92957009D01*
X120436552Y-92921271D01*
X120519814Y-92819814D01*
X120621271Y-92736552D01*
X120657009Y-92707222D01*
X120813534Y-92623557D01*
X120983373Y-92572037D01*
X121049558Y-92565518D01*
X121115740Y-92559000D01*
X121204260Y-92559000D01*
X121270442Y-92565518D01*
X121270442Y-92565518D01*
G37*
G36*
X113650442Y-92565518D02*
G01*
X113716627Y-92572037D01*
X113886466Y-92623557D01*
X114042991Y-92707222D01*
X114078729Y-92736552D01*
X114180186Y-92819814D01*
X114263448Y-92921271D01*
X114292778Y-92957009D01*
X114376443Y-93113534D01*
X114427963Y-93283373D01*
X114445359Y-93460000D01*
X114427963Y-93636627D01*
X114376443Y-93806466D01*
X114292778Y-93962991D01*
X114263448Y-93998729D01*
X114180186Y-94100186D01*
X114078729Y-94183448D01*
X114042991Y-94212778D01*
X113886466Y-94296443D01*
X113716627Y-94347963D01*
X113650443Y-94354481D01*
X113584260Y-94361000D01*
X113495740Y-94361000D01*
X113429557Y-94354481D01*
X113363373Y-94347963D01*
X113193534Y-94296443D01*
X113037009Y-94212778D01*
X113001271Y-94183448D01*
X112899814Y-94100186D01*
X112816552Y-93998729D01*
X112787222Y-93962991D01*
X112703557Y-93806466D01*
X112652037Y-93636627D01*
X112634641Y-93460000D01*
X112652037Y-93283373D01*
X112703557Y-93113534D01*
X112787222Y-92957009D01*
X112816552Y-92921271D01*
X112899814Y-92819814D01*
X113001271Y-92736552D01*
X113037009Y-92707222D01*
X113193534Y-92623557D01*
X113363373Y-92572037D01*
X113429558Y-92565518D01*
X113495740Y-92559000D01*
X113584260Y-92559000D01*
X113650442Y-92565518D01*
X113650442Y-92565518D01*
G37*
G36*
X118730442Y-92565518D02*
G01*
X118796627Y-92572037D01*
X118966466Y-92623557D01*
X119122991Y-92707222D01*
X119158729Y-92736552D01*
X119260186Y-92819814D01*
X119343448Y-92921271D01*
X119372778Y-92957009D01*
X119456443Y-93113534D01*
X119507963Y-93283373D01*
X119525359Y-93460000D01*
X119507963Y-93636627D01*
X119456443Y-93806466D01*
X119372778Y-93962991D01*
X119343448Y-93998729D01*
X119260186Y-94100186D01*
X119158729Y-94183448D01*
X119122991Y-94212778D01*
X118966466Y-94296443D01*
X118796627Y-94347963D01*
X118730443Y-94354481D01*
X118664260Y-94361000D01*
X118575740Y-94361000D01*
X118509557Y-94354481D01*
X118443373Y-94347963D01*
X118273534Y-94296443D01*
X118117009Y-94212778D01*
X118081271Y-94183448D01*
X117979814Y-94100186D01*
X117896552Y-93998729D01*
X117867222Y-93962991D01*
X117783557Y-93806466D01*
X117732037Y-93636627D01*
X117714641Y-93460000D01*
X117732037Y-93283373D01*
X117783557Y-93113534D01*
X117867222Y-92957009D01*
X117896552Y-92921271D01*
X117979814Y-92819814D01*
X118081271Y-92736552D01*
X118117009Y-92707222D01*
X118273534Y-92623557D01*
X118443373Y-92572037D01*
X118509558Y-92565518D01*
X118575740Y-92559000D01*
X118664260Y-92559000D01*
X118730442Y-92565518D01*
X118730442Y-92565518D01*
G37*
G36*
X116190442Y-92565518D02*
G01*
X116256627Y-92572037D01*
X116426466Y-92623557D01*
X116582991Y-92707222D01*
X116618729Y-92736552D01*
X116720186Y-92819814D01*
X116803448Y-92921271D01*
X116832778Y-92957009D01*
X116916443Y-93113534D01*
X116967963Y-93283373D01*
X116985359Y-93460000D01*
X116967963Y-93636627D01*
X116916443Y-93806466D01*
X116832778Y-93962991D01*
X116803448Y-93998729D01*
X116720186Y-94100186D01*
X116618729Y-94183448D01*
X116582991Y-94212778D01*
X116426466Y-94296443D01*
X116256627Y-94347963D01*
X116190443Y-94354481D01*
X116124260Y-94361000D01*
X116035740Y-94361000D01*
X115969557Y-94354481D01*
X115903373Y-94347963D01*
X115733534Y-94296443D01*
X115577009Y-94212778D01*
X115541271Y-94183448D01*
X115439814Y-94100186D01*
X115356552Y-93998729D01*
X115327222Y-93962991D01*
X115243557Y-93806466D01*
X115192037Y-93636627D01*
X115174641Y-93460000D01*
X115192037Y-93283373D01*
X115243557Y-93113534D01*
X115327222Y-92957009D01*
X115356552Y-92921271D01*
X115439814Y-92819814D01*
X115541271Y-92736552D01*
X115577009Y-92707222D01*
X115733534Y-92623557D01*
X115903373Y-92572037D01*
X115969558Y-92565518D01*
X116035740Y-92559000D01*
X116124260Y-92559000D01*
X116190442Y-92565518D01*
X116190442Y-92565518D01*
G37*
M02*
