G04 #@! TF.GenerationSoftware,KiCad,Pcbnew,(5.1.4)-1*
G04 #@! TF.CreationDate,2020-09-24T22:40:22-04:00*
G04 #@! TF.ProjectId,Headlight Left,48656164-6c69-4676-9874-204c6566742e,rev?*
G04 #@! TF.SameCoordinates,Original*
G04 #@! TF.FileFunction,Soldermask,Top*
G04 #@! TF.FilePolarity,Negative*
%FSLAX46Y46*%
G04 Gerber Fmt 4.6, Leading zero omitted, Abs format (unit mm)*
G04 Created by KiCad (PCBNEW (5.1.4)-1) date 2020-09-24 22:40:22*
%MOMM*%
%LPD*%
G04 APERTURE LIST*
%ADD10C,0.800000*%
%ADD11C,6.400000*%
%ADD12C,0.100000*%
%ADD13C,2.750000*%
%ADD14C,6.000001*%
G04 APERTURE END LIST*
D10*
X101697056Y-98302944D03*
X100000000Y-97600000D03*
X98302944Y-98302944D03*
X97600000Y-100000000D03*
X98302944Y-101697056D03*
X100000000Y-102400000D03*
X101697056Y-101697056D03*
X102400000Y-100000000D03*
D11*
X100000000Y-100000000D03*
D10*
X138697056Y-98302944D03*
X137000000Y-97600000D03*
X135302944Y-98302944D03*
X134600000Y-100000000D03*
X135302944Y-101697056D03*
X137000000Y-102400000D03*
X138697056Y-101697056D03*
X139400000Y-100000000D03*
D11*
X137000000Y-100000000D03*
D12*
G36*
X122721421Y-93010854D02*
G01*
X122754934Y-93014709D01*
X122787908Y-93021831D01*
X122820025Y-93032150D01*
X122850976Y-93045568D01*
X122880462Y-93061955D01*
X122908201Y-93081153D01*
X122933924Y-93102977D01*
X122957384Y-93127218D01*
X122978355Y-93153641D01*
X122996635Y-93181993D01*
X124652885Y-96050703D01*
X124668298Y-96080710D01*
X124680696Y-96112083D01*
X124689959Y-96144521D01*
X124695998Y-96177710D01*
X124698755Y-96211331D01*
X124698203Y-96245060D01*
X124694348Y-96278573D01*
X124687226Y-96311547D01*
X124676907Y-96343664D01*
X124663489Y-96374615D01*
X124647102Y-96404101D01*
X124627904Y-96431840D01*
X124606080Y-96457563D01*
X124581839Y-96481023D01*
X124555416Y-96501994D01*
X124527064Y-96520274D01*
X122740886Y-97551524D01*
X122710879Y-97566937D01*
X122679506Y-97579335D01*
X122647068Y-97588598D01*
X122613879Y-97594637D01*
X122580258Y-97597394D01*
X122546529Y-97596842D01*
X122513016Y-97592987D01*
X122480042Y-97585865D01*
X122447925Y-97575546D01*
X122416974Y-97562128D01*
X122387488Y-97545741D01*
X122359749Y-97526543D01*
X122334026Y-97504719D01*
X122310566Y-97480478D01*
X122289595Y-97454055D01*
X122271315Y-97425703D01*
X120615065Y-94556993D01*
X120599652Y-94526986D01*
X120587254Y-94495613D01*
X120577991Y-94463175D01*
X120571952Y-94429986D01*
X120569195Y-94396365D01*
X120569747Y-94362636D01*
X120573602Y-94329123D01*
X120580724Y-94296149D01*
X120591043Y-94264032D01*
X120604461Y-94233081D01*
X120620848Y-94203595D01*
X120640046Y-94175856D01*
X120661870Y-94150133D01*
X120686111Y-94126673D01*
X120712534Y-94105702D01*
X120740886Y-94087422D01*
X122527064Y-93056172D01*
X122557071Y-93040759D01*
X122588444Y-93028361D01*
X122620882Y-93019098D01*
X122654071Y-93013059D01*
X122687692Y-93010302D01*
X122721421Y-93010854D01*
X122721421Y-93010854D01*
G37*
D13*
X122633975Y-95303848D03*
D12*
G36*
X130453471Y-102403158D02*
G01*
X130486984Y-102407013D01*
X130519958Y-102414135D01*
X130552075Y-102424454D01*
X130583026Y-102437872D01*
X130612512Y-102454259D01*
X130640251Y-102473457D01*
X130665974Y-102495281D01*
X130689434Y-102519522D01*
X130710405Y-102545945D01*
X130728685Y-102574297D01*
X132384935Y-105443007D01*
X132400348Y-105473014D01*
X132412746Y-105504387D01*
X132422009Y-105536825D01*
X132428048Y-105570014D01*
X132430805Y-105603635D01*
X132430253Y-105637364D01*
X132426398Y-105670877D01*
X132419276Y-105703851D01*
X132408957Y-105735968D01*
X132395539Y-105766919D01*
X132379152Y-105796405D01*
X132359954Y-105824144D01*
X132338130Y-105849867D01*
X132313889Y-105873327D01*
X132287466Y-105894298D01*
X132259114Y-105912578D01*
X130472936Y-106943828D01*
X130442929Y-106959241D01*
X130411556Y-106971639D01*
X130379118Y-106980902D01*
X130345929Y-106986941D01*
X130312308Y-106989698D01*
X130278579Y-106989146D01*
X130245066Y-106985291D01*
X130212092Y-106978169D01*
X130179975Y-106967850D01*
X130149024Y-106954432D01*
X130119538Y-106938045D01*
X130091799Y-106918847D01*
X130066076Y-106897023D01*
X130042616Y-106872782D01*
X130021645Y-106846359D01*
X130003365Y-106818007D01*
X128347115Y-103949297D01*
X128331702Y-103919290D01*
X128319304Y-103887917D01*
X128310041Y-103855479D01*
X128304002Y-103822290D01*
X128301245Y-103788669D01*
X128301797Y-103754940D01*
X128305652Y-103721427D01*
X128312774Y-103688453D01*
X128323093Y-103656336D01*
X128336511Y-103625385D01*
X128352898Y-103595899D01*
X128372096Y-103568160D01*
X128393920Y-103542437D01*
X128418161Y-103518977D01*
X128444584Y-103498006D01*
X128472936Y-103479726D01*
X130259114Y-102448476D01*
X130289121Y-102433063D01*
X130320494Y-102420665D01*
X130352932Y-102411402D01*
X130386121Y-102405363D01*
X130419742Y-102402606D01*
X130453471Y-102403158D01*
X130453471Y-102403158D01*
G37*
D13*
X130366025Y-104696152D03*
D14*
X126500000Y-100000000D03*
D12*
G36*
X114453471Y-102403158D02*
G01*
X114486984Y-102407013D01*
X114519958Y-102414135D01*
X114552075Y-102424454D01*
X114583026Y-102437872D01*
X114612512Y-102454259D01*
X114640251Y-102473457D01*
X114665974Y-102495281D01*
X114689434Y-102519522D01*
X114710405Y-102545945D01*
X114728685Y-102574297D01*
X116384935Y-105443007D01*
X116400348Y-105473014D01*
X116412746Y-105504387D01*
X116422009Y-105536825D01*
X116428048Y-105570014D01*
X116430805Y-105603635D01*
X116430253Y-105637364D01*
X116426398Y-105670877D01*
X116419276Y-105703851D01*
X116408957Y-105735968D01*
X116395539Y-105766919D01*
X116379152Y-105796405D01*
X116359954Y-105824144D01*
X116338130Y-105849867D01*
X116313889Y-105873327D01*
X116287466Y-105894298D01*
X116259114Y-105912578D01*
X114472936Y-106943828D01*
X114442929Y-106959241D01*
X114411556Y-106971639D01*
X114379118Y-106980902D01*
X114345929Y-106986941D01*
X114312308Y-106989698D01*
X114278579Y-106989146D01*
X114245066Y-106985291D01*
X114212092Y-106978169D01*
X114179975Y-106967850D01*
X114149024Y-106954432D01*
X114119538Y-106938045D01*
X114091799Y-106918847D01*
X114066076Y-106897023D01*
X114042616Y-106872782D01*
X114021645Y-106846359D01*
X114003365Y-106818007D01*
X112347115Y-103949297D01*
X112331702Y-103919290D01*
X112319304Y-103887917D01*
X112310041Y-103855479D01*
X112304002Y-103822290D01*
X112301245Y-103788669D01*
X112301797Y-103754940D01*
X112305652Y-103721427D01*
X112312774Y-103688453D01*
X112323093Y-103656336D01*
X112336511Y-103625385D01*
X112352898Y-103595899D01*
X112372096Y-103568160D01*
X112393920Y-103542437D01*
X112418161Y-103518977D01*
X112444584Y-103498006D01*
X112472936Y-103479726D01*
X114259114Y-102448476D01*
X114289121Y-102433063D01*
X114320494Y-102420665D01*
X114352932Y-102411402D01*
X114386121Y-102405363D01*
X114419742Y-102402606D01*
X114453471Y-102403158D01*
X114453471Y-102403158D01*
G37*
D13*
X114366025Y-104696152D03*
D12*
G36*
X106721421Y-93010854D02*
G01*
X106754934Y-93014709D01*
X106787908Y-93021831D01*
X106820025Y-93032150D01*
X106850976Y-93045568D01*
X106880462Y-93061955D01*
X106908201Y-93081153D01*
X106933924Y-93102977D01*
X106957384Y-93127218D01*
X106978355Y-93153641D01*
X106996635Y-93181993D01*
X108652885Y-96050703D01*
X108668298Y-96080710D01*
X108680696Y-96112083D01*
X108689959Y-96144521D01*
X108695998Y-96177710D01*
X108698755Y-96211331D01*
X108698203Y-96245060D01*
X108694348Y-96278573D01*
X108687226Y-96311547D01*
X108676907Y-96343664D01*
X108663489Y-96374615D01*
X108647102Y-96404101D01*
X108627904Y-96431840D01*
X108606080Y-96457563D01*
X108581839Y-96481023D01*
X108555416Y-96501994D01*
X108527064Y-96520274D01*
X106740886Y-97551524D01*
X106710879Y-97566937D01*
X106679506Y-97579335D01*
X106647068Y-97588598D01*
X106613879Y-97594637D01*
X106580258Y-97597394D01*
X106546529Y-97596842D01*
X106513016Y-97592987D01*
X106480042Y-97585865D01*
X106447925Y-97575546D01*
X106416974Y-97562128D01*
X106387488Y-97545741D01*
X106359749Y-97526543D01*
X106334026Y-97504719D01*
X106310566Y-97480478D01*
X106289595Y-97454055D01*
X106271315Y-97425703D01*
X104615065Y-94556993D01*
X104599652Y-94526986D01*
X104587254Y-94495613D01*
X104577991Y-94463175D01*
X104571952Y-94429986D01*
X104569195Y-94396365D01*
X104569747Y-94362636D01*
X104573602Y-94329123D01*
X104580724Y-94296149D01*
X104591043Y-94264032D01*
X104604461Y-94233081D01*
X104620848Y-94203595D01*
X104640046Y-94175856D01*
X104661870Y-94150133D01*
X104686111Y-94126673D01*
X104712534Y-94105702D01*
X104740886Y-94087422D01*
X106527064Y-93056172D01*
X106557071Y-93040759D01*
X106588444Y-93028361D01*
X106620882Y-93019098D01*
X106654071Y-93013059D01*
X106687692Y-93010302D01*
X106721421Y-93010854D01*
X106721421Y-93010854D01*
G37*
D13*
X106633975Y-95303848D03*
D14*
X110500000Y-100000000D03*
M02*
