M48
; DRILL file {KiCad (5.1.4)-1} date 9/24/2020 10:40:27 PM
; FORMAT={-:-/ absolute / inch / decimal}
; #@! TF.CreationDate,2020-09-24T22:40:27-04:00
; #@! TF.GenerationSoftware,Kicad,Pcbnew,(5.1.4)-1
; #@! TF.FileFunction,Plated,1,2,PTH
FMAT,2
INCH
T1C0.0197
T2C0.0250
T3C0.1260
%
G90
G05
T1
X5.2992Y-3.937
X5.3269Y-3.8702
X5.3269Y-4.0038
X5.3937Y-3.8425
X5.3937Y-4.0315
X5.4605Y-3.8702
X5.4605Y-4.0038
X5.4882Y-3.937
X3.8425Y-3.937
X3.8702Y-3.8702
X3.8702Y-4.0038
X3.937Y-3.8425
X3.937Y-4.0315
X4.0038Y-3.8702
X4.0038Y-4.0038
X4.0315Y-3.937
T2
X3.9764Y-3.622
X4.0157Y-3.7008
X4.0551Y-3.622
X4.0551Y-3.7795
X4.0551Y-4.0945
X4.0945Y-3.8583
X4.0945Y-4.0157
X4.0945Y-4.1732
X4.1339Y-3.622
X4.1339Y-3.937
X4.1339Y-4.0945
X4.1339Y-4.252
X4.1732Y-4.0157
X4.1732Y-4.1732
X4.2126Y-4.0945
X4.2126Y-4.252
X4.252Y-4.1732
X4.2717Y-3.9567
X4.2913Y-3.622
X4.2913Y-4.0945
X4.2913Y-4.252
X4.3307Y-3.7008
X4.3307Y-3.8583
X4.3307Y-4.1732
X4.3504Y-3.937
X4.3701Y-3.622
X4.3701Y-3.7795
X4.3701Y-4.0157
X4.3701Y-4.252
X4.4094Y-3.7008
X4.4094Y-4.1732
X4.4291Y-3.9173
X4.4488Y-3.622
X4.4488Y-3.7795
X4.4488Y-4.252
X4.4882Y-3.7008
X4.4882Y-3.8583
X4.5276Y-3.622
X4.5276Y-3.7795
X4.5276Y-3.937
X4.5669Y-3.7008
X4.5669Y-3.8583
X4.5669Y-4.0157
X4.6063Y-3.622
X4.6063Y-3.7795
X4.6063Y-3.937
X4.6063Y-4.0945
X4.6457Y-3.7008
X4.6457Y-3.8583
X4.6457Y-4.0157
X4.6457Y-4.1732
X4.685Y-3.622
X4.685Y-3.7795
X4.685Y-3.937
X4.685Y-4.0945
X4.685Y-4.252
X4.7244Y-3.8583
X4.7244Y-4.0157
X4.7244Y-4.1732
X4.7638Y-3.622
X4.7638Y-3.937
X4.7638Y-4.0945
X4.7638Y-4.252
X4.8031Y-4.0157
X4.8031Y-4.1732
X4.8425Y-4.0945
X4.9016Y-3.9567
X4.9213Y-3.622
X4.9213Y-4.0945
X4.9213Y-4.252
X4.9606Y-3.7008
X4.9606Y-3.8583
X4.9803Y-3.937
X5.0Y-3.622
X5.0Y-3.7795
X5.0Y-4.0157
X5.0Y-4.0945
X5.0Y-4.252
X5.0394Y-3.7008
X5.0591Y-3.9173
X5.0787Y-3.622
X5.0787Y-3.7795
X5.1181Y-3.7008
X5.1181Y-3.8583
X5.1575Y-3.622
X5.1575Y-3.7795
X5.1575Y-3.937
X5.1969Y-3.7008
X5.1969Y-3.8583
X5.1969Y-4.0157
X5.2362Y-3.622
X5.2362Y-3.7795
X5.2362Y-4.0945
X5.2362Y-4.252
X5.2756Y-3.7008
X5.2756Y-4.1732
X5.315Y-4.0945
T3
X5.3937Y-3.937
X3.937Y-3.937
T0
M30
