G04 #@! TF.GenerationSoftware,KiCad,Pcbnew,(5.1.4)-1*
G04 #@! TF.CreationDate,2020-09-24T22:40:22-04:00*
G04 #@! TF.ProjectId,Headlight Left,48656164-6c69-4676-9874-204c6566742e,rev?*
G04 #@! TF.SameCoordinates,Original*
G04 #@! TF.FileFunction,Legend,Top*
G04 #@! TF.FilePolarity,Positive*
%FSLAX46Y46*%
G04 Gerber Fmt 4.6, Leading zero omitted, Abs format (unit mm)*
G04 Created by KiCad (PCBNEW (5.1.4)-1) date 2020-09-24 22:40:22*
%MOMM*%
%LPD*%
G04 APERTURE LIST*
%ADD10C,0.203200*%
G04 APERTURE END LIST*
D10*
X123001443Y-98440321D02*
X122676443Y-97877405D01*
G36*
X123397853Y-98326924D02*
G01*
X123890673Y-97580514D01*
X124576795Y-97068911D01*
X124401795Y-96765802D01*
X122972853Y-97590802D01*
X123422853Y-98370225D01*
X123397853Y-98326924D01*
G37*
X123397853Y-98326924D02*
X123890673Y-97580514D01*
X124576795Y-97068911D01*
X124401795Y-96765802D01*
X122972853Y-97590802D01*
X123422853Y-98370225D01*
X123397853Y-98326924D01*
X123397853Y-98326924D02*
X122972853Y-97590802D01*
X124576795Y-97068911D02*
X124401795Y-96765802D01*
X128423205Y-102931089D02*
X128598205Y-103234198D01*
X129540544Y-101766377D02*
X129940544Y-102459198D01*
X129973110Y-100000000D02*
G75*
G03X129973110Y-100000000I-3473110J0D01*
G01*
X113998557Y-101559679D02*
X114323557Y-102122595D01*
G36*
X113602147Y-101673076D02*
G01*
X113109327Y-102419486D01*
X112423205Y-102931089D01*
X112598205Y-103234198D01*
X114027147Y-102409198D01*
X113577147Y-101629775D01*
X113602147Y-101673076D01*
G37*
X113602147Y-101673076D02*
X113109327Y-102419486D01*
X112423205Y-102931089D01*
X112598205Y-103234198D01*
X114027147Y-102409198D01*
X113577147Y-101629775D01*
X113602147Y-101673076D01*
X113602147Y-101673076D02*
X114027147Y-102409198D01*
X112423205Y-102931089D02*
X112598205Y-103234198D01*
X108576795Y-97068911D02*
X108401795Y-96765802D01*
X107459456Y-98233623D02*
X107059456Y-97540802D01*
X113973111Y-100000000D02*
G75*
G03X113973111Y-100000000I-3473111J0D01*
G01*
M02*
