M48
; DRILL file {KiCad (5.1.4)-1} date 8/18/2020 9:21:47 PM
; FORMAT={-:-/ absolute / inch / decimal}
; #@! TF.CreationDate,2020-08-18T21:21:47-04:00
; #@! TF.GenerationSoftware,Kicad,Pcbnew,(5.1.4)-1
; #@! TF.FileFunction,Plated,1,2,PTH
FMAT,2
INCH
T1C0.0118
T2C0.0177
T3C0.0236
T4C0.0276
T5C0.0300
T6C0.0315
T7C0.0374
T8C0.0394
T9C0.0400
T10C0.0492
T11C0.1063
T12C0.1260
%
G90
G05
T1
X4.4446Y-4.9803
X4.7047Y-5.0157
X6.4606Y-3.9803
X6.4606Y-4.1417
X6.5315Y-3.2598
X6.6142Y-3.9843
X6.6142Y-4.1181
T2
X4.8169Y-4.8031
X4.9803Y-3.4449
X4.9803Y-3.5669
X4.9803Y-3.6142
X5.0Y-4.4311
X5.0315Y-3.8819
X5.0315Y-3.9331
X5.0512Y-4.3898
X5.0512Y-4.4587
X5.0709Y-5.1732
X5.0709Y-5.2165
X5.1526Y-4.4242
X5.1575Y-3.9449
X5.1969Y-3.9449
X5.2047Y-4.8898
X5.2362Y-4.7165
X5.2894Y-4.065
X5.31Y-5.3553
X5.315Y-4.5118
X5.3307Y-4.9173
X5.3307Y-4.9685
X5.4409Y-4.4409
X5.4409Y-4.4921
X5.4528Y-3.4449
X5.4528Y-3.5669
X5.4528Y-3.6142
X5.4675Y-5.2785
X5.4724Y-4.9173
X5.5039Y-3.9331
X5.5315Y-4.185
X5.5748Y-4.7087
X5.6063Y-4.4409
X5.6063Y-4.5197
X5.626Y-3.9409
X5.626Y-4.6299
X5.6339Y-5.2165
X5.6575Y-4.2992
X5.6732Y-3.9409
X5.6811Y-5.2165
X5.7008Y-4.2992
X5.7047Y-4.6299
X5.7047Y-4.752
X5.748Y-4.6299
X5.748Y-4.752
X5.7913Y-4.6299
X5.7913Y-4.752
X5.8268Y-4.3012
X5.8583Y-4.6181
X5.8583Y-4.8307
X5.8661Y-4.3012
X5.9055Y-4.3012
X5.9291Y-4.3583
X5.9606Y-4.2283
X5.9646Y-4.9409
X6.0984Y-4.6732
X6.1024Y-4.3031
X6.1024Y-5.0748
X6.1181Y-4.7598
X6.1339Y-4.7087
X6.1811Y-3.9665
X6.2205Y-3.9665
X6.2598Y-3.9665
X6.2677Y-3.6181
X6.2835Y-3.4646
X6.2844Y-3.6939
X6.3386Y-5.2323
X6.4961Y-4.0079
X6.498Y-5.5295
X6.6457Y-3.5591
X6.6535Y-4.0079
X6.7835Y-4.9803
X6.8228Y-3.6929
X6.8268Y-3.4685
T4
X6.3189Y-4.2677
X6.3189Y-4.3307
X6.3189Y-4.3937
X6.3583Y-4.2992
X6.3583Y-4.3622
T5
X4.7047Y-4.2126
X4.7047Y-4.4094
X4.7047Y-3.7008
X4.7047Y-3.8976
X4.7047Y-3.189
X4.7047Y-3.3858
X4.7047Y-4.7244
X4.7047Y-4.9213
X6.3386Y-3.0512
X6.3386Y-3.1512
X6.4386Y-3.0512
X6.4386Y-3.1512
X6.5386Y-3.0512
X6.5386Y-3.1512
X6.6386Y-3.0512
X6.6386Y-3.1512
T6
X5.4134Y-4.0157
X5.4134Y-4.1142
T7
X5.6496Y-5.2953
X5.748Y-5.2953
X5.8465Y-5.2953
X5.9449Y-5.2953
X5.0984Y-5.5906
X5.1969Y-5.5906
X5.2953Y-5.5906
X5.3937Y-5.5906
X5.4921Y-5.5906
X5.748Y-5.5906
X5.8465Y-5.5906
X5.9449Y-5.5906
T8
X5.5512Y-3.1102
X5.6496Y-3.1102
X5.1772Y-3.1102
X5.2756Y-3.1102
T9
X6.6339Y-4.3835
X6.6339Y-4.4835
X6.6339Y-4.5835
X6.6339Y-4.6835
X6.6339Y-4.7835
X6.7339Y-4.3835
X6.7339Y-4.4835
X6.7339Y-4.5835
X6.7339Y-4.6835
X6.7339Y-4.7835
T10
X6.3386Y-5.3543
X6.7323Y-5.3543
T11
X4.5807Y-5.2323
X4.5807Y-5.5157
X4.2382Y-3.1457
X4.2382Y-3.4291
T12
X3.7894Y-3.937
X7.0374Y-5.0197
X7.0374Y-3.6417
X3.7894Y-4.7244
T3
G00X4.3228Y-5.1083
M15
G01X4.3661Y-5.1083
M16
G05
G00X4.3228Y-5.6398
M15
G01X4.3661Y-5.6398
M16
G05
G00X4.0236Y-3.0217
M15
G01X3.9803Y-3.0217
M16
G05
G00X4.0236Y-3.5531
M15
G01X3.9803Y-3.5531
M16
G05
T4
G00X6.2697Y-4.2638
M15
G01X6.2697Y-4.2087
M16
G05
G00X6.2697Y-4.4291
M15
G01X6.2697Y-4.3819
M16
G05
G00X6.4075Y-4.3543
M15
G01X6.4075Y-4.3071
M16
G05
T0
M30
