G04 #@! TF.GenerationSoftware,KiCad,Pcbnew,(5.1.4)-1*
G04 #@! TF.CreationDate,2020-09-24T22:44:40-04:00*
G04 #@! TF.ProjectId,Headlight Right,48656164-6c69-4676-9874-205269676874,rev?*
G04 #@! TF.SameCoordinates,Original*
G04 #@! TF.FileFunction,Soldermask,Top*
G04 #@! TF.FilePolarity,Negative*
%FSLAX46Y46*%
G04 Gerber Fmt 4.6, Leading zero omitted, Abs format (unit mm)*
G04 Created by KiCad (PCBNEW (5.1.4)-1) date 2020-09-24 22:44:40*
%MOMM*%
%LPD*%
G04 APERTURE LIST*
%ADD10C,0.100000*%
G04 APERTURE END LIST*
D10*
G36*
X124286959Y-103305954D02*
G01*
X124337012Y-103317625D01*
X124389439Y-103341380D01*
X124465305Y-103385181D01*
X124465311Y-103385184D01*
X125801679Y-104156737D01*
X126393612Y-104498489D01*
X126440398Y-104532015D01*
X126475530Y-104569525D01*
X126502665Y-104613163D01*
X126520767Y-104661259D01*
X126529138Y-104711960D01*
X126527457Y-104763320D01*
X126515787Y-104813371D01*
X126492027Y-104865807D01*
X126448229Y-104941667D01*
X126448227Y-104941672D01*
X125340513Y-106860289D01*
X124709926Y-107952498D01*
X124676395Y-107999292D01*
X124638886Y-108034423D01*
X124595248Y-108061558D01*
X124547152Y-108079660D01*
X124496451Y-108088031D01*
X124445091Y-108086350D01*
X124395038Y-108074679D01*
X124342611Y-108050924D01*
X124266745Y-108007123D01*
X124266739Y-108007120D01*
X122414311Y-106937620D01*
X122338438Y-106893815D01*
X122291652Y-106860289D01*
X122256520Y-106822779D01*
X122229385Y-106779141D01*
X122211283Y-106731045D01*
X122202912Y-106680344D01*
X122204593Y-106628984D01*
X122216263Y-106578933D01*
X122240023Y-106526497D01*
X122283821Y-106450637D01*
X122283823Y-106450632D01*
X123978323Y-103515672D01*
X124022124Y-103439806D01*
X124055655Y-103393012D01*
X124093164Y-103357881D01*
X124136802Y-103330746D01*
X124184898Y-103312644D01*
X124235599Y-103304273D01*
X124286959Y-103305954D01*
X124286959Y-103305954D01*
G37*
G36*
X108286959Y-103305954D02*
G01*
X108337012Y-103317625D01*
X108389439Y-103341380D01*
X108465305Y-103385181D01*
X108465311Y-103385184D01*
X109801679Y-104156737D01*
X110393612Y-104498489D01*
X110440398Y-104532015D01*
X110475530Y-104569525D01*
X110502665Y-104613163D01*
X110520767Y-104661259D01*
X110529138Y-104711960D01*
X110527457Y-104763320D01*
X110515787Y-104813371D01*
X110492027Y-104865807D01*
X110448229Y-104941667D01*
X110448227Y-104941672D01*
X109340513Y-106860289D01*
X108709926Y-107952498D01*
X108676395Y-107999292D01*
X108638886Y-108034423D01*
X108595248Y-108061558D01*
X108547152Y-108079660D01*
X108496451Y-108088031D01*
X108445091Y-108086350D01*
X108395038Y-108074679D01*
X108342611Y-108050924D01*
X108266745Y-108007123D01*
X108266739Y-108007120D01*
X106414311Y-106937620D01*
X106338438Y-106893815D01*
X106291652Y-106860289D01*
X106256520Y-106822779D01*
X106229385Y-106779141D01*
X106211283Y-106731045D01*
X106202912Y-106680344D01*
X106204593Y-106628984D01*
X106216263Y-106578933D01*
X106240023Y-106526497D01*
X106283821Y-106450637D01*
X106283823Y-106450632D01*
X107978323Y-103515672D01*
X108022124Y-103439806D01*
X108055655Y-103393012D01*
X108093164Y-103357881D01*
X108136802Y-103330746D01*
X108184898Y-103312644D01*
X108235599Y-103304273D01*
X108286959Y-103305954D01*
X108286959Y-103305954D01*
G37*
G36*
X137634239Y-96811467D02*
G01*
X137948282Y-96873934D01*
X138539926Y-97119001D01*
X139072392Y-97474784D01*
X139525216Y-97927608D01*
X139880999Y-98460074D01*
X140126066Y-99051718D01*
X140126066Y-99051719D01*
X140251000Y-99679803D01*
X140251000Y-100320197D01*
X140188533Y-100634239D01*
X140126066Y-100948282D01*
X139880999Y-101539926D01*
X139525216Y-102072392D01*
X139072392Y-102525216D01*
X138539926Y-102880999D01*
X137948282Y-103126066D01*
X137634239Y-103188533D01*
X137320197Y-103251000D01*
X136679803Y-103251000D01*
X136365761Y-103188533D01*
X136051718Y-103126066D01*
X135460074Y-102880999D01*
X134927608Y-102525216D01*
X134474784Y-102072392D01*
X134119001Y-101539926D01*
X133873934Y-100948282D01*
X133811467Y-100634239D01*
X133749000Y-100320197D01*
X133749000Y-99679803D01*
X133873934Y-99051719D01*
X133873934Y-99051718D01*
X134119001Y-98460074D01*
X134474784Y-97927608D01*
X134927608Y-97474784D01*
X135460074Y-97119001D01*
X136051718Y-96873934D01*
X136365761Y-96811467D01*
X136679803Y-96749000D01*
X137320197Y-96749000D01*
X137634239Y-96811467D01*
X137634239Y-96811467D01*
G37*
G36*
X100634239Y-96811467D02*
G01*
X100948282Y-96873934D01*
X101539926Y-97119001D01*
X102072392Y-97474784D01*
X102525216Y-97927608D01*
X102880999Y-98460074D01*
X103126066Y-99051718D01*
X103126066Y-99051719D01*
X103251000Y-99679803D01*
X103251000Y-100320197D01*
X103188533Y-100634239D01*
X103126066Y-100948282D01*
X102880999Y-101539926D01*
X102525216Y-102072392D01*
X102072392Y-102525216D01*
X101539926Y-102880999D01*
X100948282Y-103126066D01*
X100634239Y-103188533D01*
X100320197Y-103251000D01*
X99679803Y-103251000D01*
X99365761Y-103188533D01*
X99051718Y-103126066D01*
X98460074Y-102880999D01*
X97927608Y-102525216D01*
X97474784Y-102072392D01*
X97119001Y-101539926D01*
X96873934Y-100948282D01*
X96811467Y-100634239D01*
X96749000Y-100320197D01*
X96749000Y-99679803D01*
X96873934Y-99051719D01*
X96873934Y-99051718D01*
X97119001Y-98460074D01*
X97474784Y-97927608D01*
X97927608Y-97474784D01*
X98460074Y-97119001D01*
X99051718Y-96873934D01*
X99365761Y-96811467D01*
X99679803Y-96749000D01*
X100320197Y-96749000D01*
X100634239Y-96811467D01*
X100634239Y-96811467D01*
G37*
G36*
X127389943Y-97066248D02*
G01*
X127945189Y-97296238D01*
X128080082Y-97386371D01*
X128444899Y-97630134D01*
X128869866Y-98055101D01*
X128869867Y-98055103D01*
X129203762Y-98554811D01*
X129433752Y-99110057D01*
X129551000Y-99699501D01*
X129551000Y-100300499D01*
X129433752Y-100889943D01*
X129203762Y-101445189D01*
X129123370Y-101565504D01*
X128869866Y-101944899D01*
X128444899Y-102369866D01*
X128333321Y-102444420D01*
X127945189Y-102703762D01*
X127389943Y-102933752D01*
X126800499Y-103051000D01*
X126199501Y-103051000D01*
X125610057Y-102933752D01*
X125054811Y-102703762D01*
X124666679Y-102444420D01*
X124555101Y-102369866D01*
X124130134Y-101944899D01*
X123876630Y-101565504D01*
X123796238Y-101445189D01*
X123566248Y-100889943D01*
X123449000Y-100300499D01*
X123449000Y-99699501D01*
X123566248Y-99110057D01*
X123796238Y-98554811D01*
X124130133Y-98055103D01*
X124130134Y-98055101D01*
X124555101Y-97630134D01*
X124919918Y-97386371D01*
X125054811Y-97296238D01*
X125610057Y-97066248D01*
X126199501Y-96949000D01*
X126800499Y-96949000D01*
X127389943Y-97066248D01*
X127389943Y-97066248D01*
G37*
G36*
X111389943Y-97066248D02*
G01*
X111945189Y-97296238D01*
X112080082Y-97386371D01*
X112444899Y-97630134D01*
X112869866Y-98055101D01*
X112869867Y-98055103D01*
X113203762Y-98554811D01*
X113433752Y-99110057D01*
X113551000Y-99699501D01*
X113551000Y-100300499D01*
X113433752Y-100889943D01*
X113203762Y-101445189D01*
X113123370Y-101565504D01*
X112869866Y-101944899D01*
X112444899Y-102369866D01*
X112333321Y-102444420D01*
X111945189Y-102703762D01*
X111389943Y-102933752D01*
X110800499Y-103051000D01*
X110199501Y-103051000D01*
X109610057Y-102933752D01*
X109054811Y-102703762D01*
X108666679Y-102444420D01*
X108555101Y-102369866D01*
X108130134Y-101944899D01*
X107876630Y-101565504D01*
X107796238Y-101445189D01*
X107566248Y-100889943D01*
X107449000Y-100300499D01*
X107449000Y-99699501D01*
X107566248Y-99110057D01*
X107796238Y-98554811D01*
X108130133Y-98055103D01*
X108130134Y-98055101D01*
X108555101Y-97630134D01*
X108919918Y-97386371D01*
X109054811Y-97296238D01*
X109610057Y-97066248D01*
X110199501Y-96949000D01*
X110800499Y-96949000D01*
X111389943Y-97066248D01*
X111389943Y-97066248D01*
G37*
G36*
X112554909Y-91913650D02*
G01*
X112604962Y-91925321D01*
X112657389Y-91949076D01*
X112733255Y-91992877D01*
X112733261Y-91992880D01*
X114069629Y-92764433D01*
X114661562Y-93106185D01*
X114708348Y-93139711D01*
X114743480Y-93177221D01*
X114770615Y-93220859D01*
X114788717Y-93268955D01*
X114797088Y-93319656D01*
X114795407Y-93371016D01*
X114783737Y-93421067D01*
X114759977Y-93473503D01*
X114716179Y-93549363D01*
X114716177Y-93549368D01*
X113608463Y-95467985D01*
X112977876Y-96560194D01*
X112944345Y-96606988D01*
X112906836Y-96642119D01*
X112863198Y-96669254D01*
X112815102Y-96687356D01*
X112764401Y-96695727D01*
X112713041Y-96694046D01*
X112662988Y-96682375D01*
X112610561Y-96658620D01*
X112534695Y-96614819D01*
X112534689Y-96614816D01*
X110682261Y-95545316D01*
X110606388Y-95501511D01*
X110559602Y-95467985D01*
X110524470Y-95430475D01*
X110497335Y-95386837D01*
X110479233Y-95338741D01*
X110470862Y-95288040D01*
X110472543Y-95236680D01*
X110484213Y-95186629D01*
X110507973Y-95134193D01*
X110551771Y-95058333D01*
X110551773Y-95058328D01*
X112246273Y-92123368D01*
X112290074Y-92047502D01*
X112323605Y-92000708D01*
X112361114Y-91965577D01*
X112404752Y-91938442D01*
X112452848Y-91920340D01*
X112503549Y-91911969D01*
X112554909Y-91913650D01*
X112554909Y-91913650D01*
G37*
G36*
X128554909Y-91913650D02*
G01*
X128604962Y-91925321D01*
X128657389Y-91949076D01*
X128733255Y-91992877D01*
X128733261Y-91992880D01*
X130069629Y-92764433D01*
X130661562Y-93106185D01*
X130708348Y-93139711D01*
X130743480Y-93177221D01*
X130770615Y-93220859D01*
X130788717Y-93268955D01*
X130797088Y-93319656D01*
X130795407Y-93371016D01*
X130783737Y-93421067D01*
X130759977Y-93473503D01*
X130716179Y-93549363D01*
X130716177Y-93549368D01*
X129608463Y-95467985D01*
X128977876Y-96560194D01*
X128944345Y-96606988D01*
X128906836Y-96642119D01*
X128863198Y-96669254D01*
X128815102Y-96687356D01*
X128764401Y-96695727D01*
X128713041Y-96694046D01*
X128662988Y-96682375D01*
X128610561Y-96658620D01*
X128534695Y-96614819D01*
X128534689Y-96614816D01*
X126682261Y-95545316D01*
X126606388Y-95501511D01*
X126559602Y-95467985D01*
X126524470Y-95430475D01*
X126497335Y-95386837D01*
X126479233Y-95338741D01*
X126470862Y-95288040D01*
X126472543Y-95236680D01*
X126484213Y-95186629D01*
X126507973Y-95134193D01*
X126551771Y-95058333D01*
X126551773Y-95058328D01*
X128246273Y-92123368D01*
X128290074Y-92047502D01*
X128323605Y-92000708D01*
X128361114Y-91965577D01*
X128404752Y-91938442D01*
X128452848Y-91920340D01*
X128503549Y-91911969D01*
X128554909Y-91913650D01*
X128554909Y-91913650D01*
G37*
M02*
