G04 #@! TF.GenerationSoftware,KiCad,Pcbnew,(5.1.4)-1*
G04 #@! TF.CreationDate,2020-09-24T22:44:40-04:00*
G04 #@! TF.ProjectId,Headlight Right,48656164-6c69-4676-9874-205269676874,rev?*
G04 #@! TF.SameCoordinates,Original*
G04 #@! TF.FileFunction,Paste,Top*
G04 #@! TF.FilePolarity,Positive*
%FSLAX46Y46*%
G04 Gerber Fmt 4.6, Leading zero omitted, Abs format (unit mm)*
G04 Created by KiCad (PCBNEW (5.1.4)-1) date 2020-09-24 22:44:40*
%MOMM*%
%LPD*%
G04 APERTURE LIST*
%ADD10C,0.100000*%
%ADD11C,2.750000*%
%ADD12C,6.000001*%
G04 APERTURE END LIST*
D10*
G36*
X108345929Y-103405363D02*
G01*
X108379118Y-103411402D01*
X108411556Y-103420665D01*
X108442929Y-103433063D01*
X108472936Y-103448476D01*
X110259114Y-104479726D01*
X110287466Y-104498006D01*
X110313889Y-104518977D01*
X110338130Y-104542437D01*
X110359954Y-104568160D01*
X110379152Y-104595899D01*
X110395539Y-104625385D01*
X110408957Y-104656336D01*
X110419276Y-104688453D01*
X110426398Y-104721427D01*
X110430253Y-104754940D01*
X110430805Y-104788669D01*
X110428048Y-104822290D01*
X110422009Y-104855479D01*
X110412746Y-104887917D01*
X110400348Y-104919290D01*
X110384935Y-104949297D01*
X108728685Y-107818007D01*
X108710405Y-107846359D01*
X108689434Y-107872782D01*
X108665974Y-107897023D01*
X108640251Y-107918847D01*
X108612512Y-107938045D01*
X108583026Y-107954432D01*
X108552075Y-107967850D01*
X108519958Y-107978169D01*
X108486984Y-107985291D01*
X108453471Y-107989146D01*
X108419742Y-107989698D01*
X108386121Y-107986941D01*
X108352932Y-107980902D01*
X108320494Y-107971639D01*
X108289121Y-107959241D01*
X108259114Y-107943828D01*
X106472936Y-106912578D01*
X106444584Y-106894298D01*
X106418161Y-106873327D01*
X106393920Y-106849867D01*
X106372096Y-106824144D01*
X106352898Y-106796405D01*
X106336511Y-106766919D01*
X106323093Y-106735968D01*
X106312774Y-106703851D01*
X106305652Y-106670877D01*
X106301797Y-106637364D01*
X106301245Y-106603635D01*
X106304002Y-106570014D01*
X106310041Y-106536825D01*
X106319304Y-106504387D01*
X106331702Y-106473014D01*
X106347115Y-106443007D01*
X108003365Y-103574297D01*
X108021645Y-103545945D01*
X108042616Y-103519522D01*
X108066076Y-103495281D01*
X108091799Y-103473457D01*
X108119538Y-103454259D01*
X108149024Y-103437872D01*
X108179975Y-103424454D01*
X108212092Y-103414135D01*
X108245066Y-103407013D01*
X108278579Y-103403158D01*
X108312308Y-103402606D01*
X108345929Y-103405363D01*
X108345929Y-103405363D01*
G37*
D11*
X108366025Y-105696152D03*
D10*
G36*
X112613879Y-92013059D02*
G01*
X112647068Y-92019098D01*
X112679506Y-92028361D01*
X112710879Y-92040759D01*
X112740886Y-92056172D01*
X114527064Y-93087422D01*
X114555416Y-93105702D01*
X114581839Y-93126673D01*
X114606080Y-93150133D01*
X114627904Y-93175856D01*
X114647102Y-93203595D01*
X114663489Y-93233081D01*
X114676907Y-93264032D01*
X114687226Y-93296149D01*
X114694348Y-93329123D01*
X114698203Y-93362636D01*
X114698755Y-93396365D01*
X114695998Y-93429986D01*
X114689959Y-93463175D01*
X114680696Y-93495613D01*
X114668298Y-93526986D01*
X114652885Y-93556993D01*
X112996635Y-96425703D01*
X112978355Y-96454055D01*
X112957384Y-96480478D01*
X112933924Y-96504719D01*
X112908201Y-96526543D01*
X112880462Y-96545741D01*
X112850976Y-96562128D01*
X112820025Y-96575546D01*
X112787908Y-96585865D01*
X112754934Y-96592987D01*
X112721421Y-96596842D01*
X112687692Y-96597394D01*
X112654071Y-96594637D01*
X112620882Y-96588598D01*
X112588444Y-96579335D01*
X112557071Y-96566937D01*
X112527064Y-96551524D01*
X110740886Y-95520274D01*
X110712534Y-95501994D01*
X110686111Y-95481023D01*
X110661870Y-95457563D01*
X110640046Y-95431840D01*
X110620848Y-95404101D01*
X110604461Y-95374615D01*
X110591043Y-95343664D01*
X110580724Y-95311547D01*
X110573602Y-95278573D01*
X110569747Y-95245060D01*
X110569195Y-95211331D01*
X110571952Y-95177710D01*
X110577991Y-95144521D01*
X110587254Y-95112083D01*
X110599652Y-95080710D01*
X110615065Y-95050703D01*
X112271315Y-92181993D01*
X112289595Y-92153641D01*
X112310566Y-92127218D01*
X112334026Y-92102977D01*
X112359749Y-92081153D01*
X112387488Y-92061955D01*
X112416974Y-92045568D01*
X112447925Y-92032150D01*
X112480042Y-92021831D01*
X112513016Y-92014709D01*
X112546529Y-92010854D01*
X112580258Y-92010302D01*
X112613879Y-92013059D01*
X112613879Y-92013059D01*
G37*
D11*
X112633975Y-94303848D03*
D12*
X110500000Y-100000000D03*
D10*
G36*
X128613879Y-92013059D02*
G01*
X128647068Y-92019098D01*
X128679506Y-92028361D01*
X128710879Y-92040759D01*
X128740886Y-92056172D01*
X130527064Y-93087422D01*
X130555416Y-93105702D01*
X130581839Y-93126673D01*
X130606080Y-93150133D01*
X130627904Y-93175856D01*
X130647102Y-93203595D01*
X130663489Y-93233081D01*
X130676907Y-93264032D01*
X130687226Y-93296149D01*
X130694348Y-93329123D01*
X130698203Y-93362636D01*
X130698755Y-93396365D01*
X130695998Y-93429986D01*
X130689959Y-93463175D01*
X130680696Y-93495613D01*
X130668298Y-93526986D01*
X130652885Y-93556993D01*
X128996635Y-96425703D01*
X128978355Y-96454055D01*
X128957384Y-96480478D01*
X128933924Y-96504719D01*
X128908201Y-96526543D01*
X128880462Y-96545741D01*
X128850976Y-96562128D01*
X128820025Y-96575546D01*
X128787908Y-96585865D01*
X128754934Y-96592987D01*
X128721421Y-96596842D01*
X128687692Y-96597394D01*
X128654071Y-96594637D01*
X128620882Y-96588598D01*
X128588444Y-96579335D01*
X128557071Y-96566937D01*
X128527064Y-96551524D01*
X126740886Y-95520274D01*
X126712534Y-95501994D01*
X126686111Y-95481023D01*
X126661870Y-95457563D01*
X126640046Y-95431840D01*
X126620848Y-95404101D01*
X126604461Y-95374615D01*
X126591043Y-95343664D01*
X126580724Y-95311547D01*
X126573602Y-95278573D01*
X126569747Y-95245060D01*
X126569195Y-95211331D01*
X126571952Y-95177710D01*
X126577991Y-95144521D01*
X126587254Y-95112083D01*
X126599652Y-95080710D01*
X126615065Y-95050703D01*
X128271315Y-92181993D01*
X128289595Y-92153641D01*
X128310566Y-92127218D01*
X128334026Y-92102977D01*
X128359749Y-92081153D01*
X128387488Y-92061955D01*
X128416974Y-92045568D01*
X128447925Y-92032150D01*
X128480042Y-92021831D01*
X128513016Y-92014709D01*
X128546529Y-92010854D01*
X128580258Y-92010302D01*
X128613879Y-92013059D01*
X128613879Y-92013059D01*
G37*
D11*
X128633975Y-94303848D03*
D10*
G36*
X124345929Y-103405363D02*
G01*
X124379118Y-103411402D01*
X124411556Y-103420665D01*
X124442929Y-103433063D01*
X124472936Y-103448476D01*
X126259114Y-104479726D01*
X126287466Y-104498006D01*
X126313889Y-104518977D01*
X126338130Y-104542437D01*
X126359954Y-104568160D01*
X126379152Y-104595899D01*
X126395539Y-104625385D01*
X126408957Y-104656336D01*
X126419276Y-104688453D01*
X126426398Y-104721427D01*
X126430253Y-104754940D01*
X126430805Y-104788669D01*
X126428048Y-104822290D01*
X126422009Y-104855479D01*
X126412746Y-104887917D01*
X126400348Y-104919290D01*
X126384935Y-104949297D01*
X124728685Y-107818007D01*
X124710405Y-107846359D01*
X124689434Y-107872782D01*
X124665974Y-107897023D01*
X124640251Y-107918847D01*
X124612512Y-107938045D01*
X124583026Y-107954432D01*
X124552075Y-107967850D01*
X124519958Y-107978169D01*
X124486984Y-107985291D01*
X124453471Y-107989146D01*
X124419742Y-107989698D01*
X124386121Y-107986941D01*
X124352932Y-107980902D01*
X124320494Y-107971639D01*
X124289121Y-107959241D01*
X124259114Y-107943828D01*
X122472936Y-106912578D01*
X122444584Y-106894298D01*
X122418161Y-106873327D01*
X122393920Y-106849867D01*
X122372096Y-106824144D01*
X122352898Y-106796405D01*
X122336511Y-106766919D01*
X122323093Y-106735968D01*
X122312774Y-106703851D01*
X122305652Y-106670877D01*
X122301797Y-106637364D01*
X122301245Y-106603635D01*
X122304002Y-106570014D01*
X122310041Y-106536825D01*
X122319304Y-106504387D01*
X122331702Y-106473014D01*
X122347115Y-106443007D01*
X124003365Y-103574297D01*
X124021645Y-103545945D01*
X124042616Y-103519522D01*
X124066076Y-103495281D01*
X124091799Y-103473457D01*
X124119538Y-103454259D01*
X124149024Y-103437872D01*
X124179975Y-103424454D01*
X124212092Y-103414135D01*
X124245066Y-103407013D01*
X124278579Y-103403158D01*
X124312308Y-103402606D01*
X124345929Y-103405363D01*
X124345929Y-103405363D01*
G37*
D11*
X124366025Y-105696152D03*
D12*
X126500000Y-100000000D03*
M02*
