G04 #@! TF.GenerationSoftware,KiCad,Pcbnew,(5.1.4)-1*
G04 #@! TF.CreationDate,2020-09-24T22:44:40-04:00*
G04 #@! TF.ProjectId,Headlight Right,48656164-6c69-4676-9874-205269676874,rev?*
G04 #@! TF.SameCoordinates,Original*
G04 #@! TF.FileFunction,Copper,L1,Top*
G04 #@! TF.FilePolarity,Positive*
%FSLAX46Y46*%
G04 Gerber Fmt 4.6, Leading zero omitted, Abs format (unit mm)*
G04 Created by KiCad (PCBNEW (5.1.4)-1) date 2020-09-24 22:44:40*
%MOMM*%
%LPD*%
G04 APERTURE LIST*
%ADD10C,0.800000*%
%ADD11C,6.400000*%
%ADD12C,0.100000*%
%ADD13C,2.750000*%
%ADD14C,6.000001*%
%ADD15C,1.270000*%
%ADD16C,0.762000*%
%ADD17C,0.152400*%
G04 APERTURE END LIST*
D10*
X138697056Y-98302944D03*
X137000000Y-97600000D03*
X135302944Y-98302944D03*
X134600000Y-100000000D03*
X135302944Y-101697056D03*
X137000000Y-102400000D03*
X138697056Y-101697056D03*
X139400000Y-100000000D03*
D11*
X137000000Y-100000000D03*
D10*
X101697056Y-98302944D03*
X100000000Y-97600000D03*
X98302944Y-98302944D03*
X97600000Y-100000000D03*
X98302944Y-101697056D03*
X100000000Y-102400000D03*
X101697056Y-101697056D03*
X102400000Y-100000000D03*
D11*
X100000000Y-100000000D03*
D12*
G36*
X108345929Y-103405363D02*
G01*
X108379118Y-103411402D01*
X108411556Y-103420665D01*
X108442929Y-103433063D01*
X108472936Y-103448476D01*
X110259114Y-104479726D01*
X110287466Y-104498006D01*
X110313889Y-104518977D01*
X110338130Y-104542437D01*
X110359954Y-104568160D01*
X110379152Y-104595899D01*
X110395539Y-104625385D01*
X110408957Y-104656336D01*
X110419276Y-104688453D01*
X110426398Y-104721427D01*
X110430253Y-104754940D01*
X110430805Y-104788669D01*
X110428048Y-104822290D01*
X110422009Y-104855479D01*
X110412746Y-104887917D01*
X110400348Y-104919290D01*
X110384935Y-104949297D01*
X108728685Y-107818007D01*
X108710405Y-107846359D01*
X108689434Y-107872782D01*
X108665974Y-107897023D01*
X108640251Y-107918847D01*
X108612512Y-107938045D01*
X108583026Y-107954432D01*
X108552075Y-107967850D01*
X108519958Y-107978169D01*
X108486984Y-107985291D01*
X108453471Y-107989146D01*
X108419742Y-107989698D01*
X108386121Y-107986941D01*
X108352932Y-107980902D01*
X108320494Y-107971639D01*
X108289121Y-107959241D01*
X108259114Y-107943828D01*
X106472936Y-106912578D01*
X106444584Y-106894298D01*
X106418161Y-106873327D01*
X106393920Y-106849867D01*
X106372096Y-106824144D01*
X106352898Y-106796405D01*
X106336511Y-106766919D01*
X106323093Y-106735968D01*
X106312774Y-106703851D01*
X106305652Y-106670877D01*
X106301797Y-106637364D01*
X106301245Y-106603635D01*
X106304002Y-106570014D01*
X106310041Y-106536825D01*
X106319304Y-106504387D01*
X106331702Y-106473014D01*
X106347115Y-106443007D01*
X108003365Y-103574297D01*
X108021645Y-103545945D01*
X108042616Y-103519522D01*
X108066076Y-103495281D01*
X108091799Y-103473457D01*
X108119538Y-103454259D01*
X108149024Y-103437872D01*
X108179975Y-103424454D01*
X108212092Y-103414135D01*
X108245066Y-103407013D01*
X108278579Y-103403158D01*
X108312308Y-103402606D01*
X108345929Y-103405363D01*
X108345929Y-103405363D01*
G37*
D13*
X108366025Y-105696152D03*
D12*
G36*
X112613879Y-92013059D02*
G01*
X112647068Y-92019098D01*
X112679506Y-92028361D01*
X112710879Y-92040759D01*
X112740886Y-92056172D01*
X114527064Y-93087422D01*
X114555416Y-93105702D01*
X114581839Y-93126673D01*
X114606080Y-93150133D01*
X114627904Y-93175856D01*
X114647102Y-93203595D01*
X114663489Y-93233081D01*
X114676907Y-93264032D01*
X114687226Y-93296149D01*
X114694348Y-93329123D01*
X114698203Y-93362636D01*
X114698755Y-93396365D01*
X114695998Y-93429986D01*
X114689959Y-93463175D01*
X114680696Y-93495613D01*
X114668298Y-93526986D01*
X114652885Y-93556993D01*
X112996635Y-96425703D01*
X112978355Y-96454055D01*
X112957384Y-96480478D01*
X112933924Y-96504719D01*
X112908201Y-96526543D01*
X112880462Y-96545741D01*
X112850976Y-96562128D01*
X112820025Y-96575546D01*
X112787908Y-96585865D01*
X112754934Y-96592987D01*
X112721421Y-96596842D01*
X112687692Y-96597394D01*
X112654071Y-96594637D01*
X112620882Y-96588598D01*
X112588444Y-96579335D01*
X112557071Y-96566937D01*
X112527064Y-96551524D01*
X110740886Y-95520274D01*
X110712534Y-95501994D01*
X110686111Y-95481023D01*
X110661870Y-95457563D01*
X110640046Y-95431840D01*
X110620848Y-95404101D01*
X110604461Y-95374615D01*
X110591043Y-95343664D01*
X110580724Y-95311547D01*
X110573602Y-95278573D01*
X110569747Y-95245060D01*
X110569195Y-95211331D01*
X110571952Y-95177710D01*
X110577991Y-95144521D01*
X110587254Y-95112083D01*
X110599652Y-95080710D01*
X110615065Y-95050703D01*
X112271315Y-92181993D01*
X112289595Y-92153641D01*
X112310566Y-92127218D01*
X112334026Y-92102977D01*
X112359749Y-92081153D01*
X112387488Y-92061955D01*
X112416974Y-92045568D01*
X112447925Y-92032150D01*
X112480042Y-92021831D01*
X112513016Y-92014709D01*
X112546529Y-92010854D01*
X112580258Y-92010302D01*
X112613879Y-92013059D01*
X112613879Y-92013059D01*
G37*
D13*
X112633975Y-94303848D03*
D14*
X110500000Y-100000000D03*
D12*
G36*
X128613879Y-92013059D02*
G01*
X128647068Y-92019098D01*
X128679506Y-92028361D01*
X128710879Y-92040759D01*
X128740886Y-92056172D01*
X130527064Y-93087422D01*
X130555416Y-93105702D01*
X130581839Y-93126673D01*
X130606080Y-93150133D01*
X130627904Y-93175856D01*
X130647102Y-93203595D01*
X130663489Y-93233081D01*
X130676907Y-93264032D01*
X130687226Y-93296149D01*
X130694348Y-93329123D01*
X130698203Y-93362636D01*
X130698755Y-93396365D01*
X130695998Y-93429986D01*
X130689959Y-93463175D01*
X130680696Y-93495613D01*
X130668298Y-93526986D01*
X130652885Y-93556993D01*
X128996635Y-96425703D01*
X128978355Y-96454055D01*
X128957384Y-96480478D01*
X128933924Y-96504719D01*
X128908201Y-96526543D01*
X128880462Y-96545741D01*
X128850976Y-96562128D01*
X128820025Y-96575546D01*
X128787908Y-96585865D01*
X128754934Y-96592987D01*
X128721421Y-96596842D01*
X128687692Y-96597394D01*
X128654071Y-96594637D01*
X128620882Y-96588598D01*
X128588444Y-96579335D01*
X128557071Y-96566937D01*
X128527064Y-96551524D01*
X126740886Y-95520274D01*
X126712534Y-95501994D01*
X126686111Y-95481023D01*
X126661870Y-95457563D01*
X126640046Y-95431840D01*
X126620848Y-95404101D01*
X126604461Y-95374615D01*
X126591043Y-95343664D01*
X126580724Y-95311547D01*
X126573602Y-95278573D01*
X126569747Y-95245060D01*
X126569195Y-95211331D01*
X126571952Y-95177710D01*
X126577991Y-95144521D01*
X126587254Y-95112083D01*
X126599652Y-95080710D01*
X126615065Y-95050703D01*
X128271315Y-92181993D01*
X128289595Y-92153641D01*
X128310566Y-92127218D01*
X128334026Y-92102977D01*
X128359749Y-92081153D01*
X128387488Y-92061955D01*
X128416974Y-92045568D01*
X128447925Y-92032150D01*
X128480042Y-92021831D01*
X128513016Y-92014709D01*
X128546529Y-92010854D01*
X128580258Y-92010302D01*
X128613879Y-92013059D01*
X128613879Y-92013059D01*
G37*
D13*
X128633975Y-94303848D03*
D12*
G36*
X124345929Y-103405363D02*
G01*
X124379118Y-103411402D01*
X124411556Y-103420665D01*
X124442929Y-103433063D01*
X124472936Y-103448476D01*
X126259114Y-104479726D01*
X126287466Y-104498006D01*
X126313889Y-104518977D01*
X126338130Y-104542437D01*
X126359954Y-104568160D01*
X126379152Y-104595899D01*
X126395539Y-104625385D01*
X126408957Y-104656336D01*
X126419276Y-104688453D01*
X126426398Y-104721427D01*
X126430253Y-104754940D01*
X126430805Y-104788669D01*
X126428048Y-104822290D01*
X126422009Y-104855479D01*
X126412746Y-104887917D01*
X126400348Y-104919290D01*
X126384935Y-104949297D01*
X124728685Y-107818007D01*
X124710405Y-107846359D01*
X124689434Y-107872782D01*
X124665974Y-107897023D01*
X124640251Y-107918847D01*
X124612512Y-107938045D01*
X124583026Y-107954432D01*
X124552075Y-107967850D01*
X124519958Y-107978169D01*
X124486984Y-107985291D01*
X124453471Y-107989146D01*
X124419742Y-107989698D01*
X124386121Y-107986941D01*
X124352932Y-107980902D01*
X124320494Y-107971639D01*
X124289121Y-107959241D01*
X124259114Y-107943828D01*
X122472936Y-106912578D01*
X122444584Y-106894298D01*
X122418161Y-106873327D01*
X122393920Y-106849867D01*
X122372096Y-106824144D01*
X122352898Y-106796405D01*
X122336511Y-106766919D01*
X122323093Y-106735968D01*
X122312774Y-106703851D01*
X122305652Y-106670877D01*
X122301797Y-106637364D01*
X122301245Y-106603635D01*
X122304002Y-106570014D01*
X122310041Y-106536825D01*
X122319304Y-106504387D01*
X122331702Y-106473014D01*
X122347115Y-106443007D01*
X124003365Y-103574297D01*
X124021645Y-103545945D01*
X124042616Y-103519522D01*
X124066076Y-103495281D01*
X124091799Y-103473457D01*
X124119538Y-103454259D01*
X124149024Y-103437872D01*
X124179975Y-103424454D01*
X124212092Y-103414135D01*
X124245066Y-103407013D01*
X124278579Y-103403158D01*
X124312308Y-103402606D01*
X124345929Y-103405363D01*
X124345929Y-103405363D01*
G37*
D13*
X124366025Y-105696152D03*
D14*
X126500000Y-100000000D03*
D15*
X108500000Y-99500000D03*
X112500000Y-100500000D03*
X124500000Y-99500000D03*
X128500000Y-100500000D03*
X126500000Y-100000000D03*
X110500000Y-100000000D03*
X126000000Y-102000000D03*
X127000000Y-98000000D03*
X110000000Y-102000000D03*
X111000000Y-98000000D03*
X116000000Y-92000000D03*
X118000000Y-92000000D03*
X120000000Y-92000000D03*
X122000000Y-92000000D03*
X124000000Y-92000000D03*
X126000000Y-92000000D03*
X125000000Y-94000000D03*
X123000000Y-94000000D03*
X121000000Y-94000000D03*
X119000000Y-94000000D03*
X117000000Y-94000000D03*
X116000000Y-96000000D03*
X118000000Y-96000000D03*
X120000000Y-96000000D03*
X122000000Y-96000000D03*
X124000000Y-96000000D03*
X121000000Y-98000000D03*
X119000000Y-98000000D03*
X117000000Y-98000000D03*
X115000000Y-98000000D03*
X116000000Y-100000000D03*
X118000000Y-100000000D03*
X120000000Y-100000000D03*
X122000000Y-100000000D03*
X121000000Y-102000000D03*
X119000000Y-102000000D03*
X117000000Y-102000000D03*
X115000000Y-102000000D03*
X114000000Y-104000000D03*
X116000000Y-104000000D03*
X118000000Y-104000000D03*
X120000000Y-104000000D03*
X122000000Y-104000000D03*
X121000000Y-106000000D03*
X119000000Y-106000000D03*
X117000000Y-106000000D03*
X115000000Y-106000000D03*
X116000000Y-108000000D03*
X118000000Y-108000000D03*
X120000000Y-108000000D03*
X110000000Y-92000000D03*
X109000000Y-94000000D03*
X108000000Y-92000000D03*
X107000000Y-94000000D03*
X106000000Y-92000000D03*
X105000000Y-94000000D03*
X106000000Y-96000000D03*
X108000000Y-96000000D03*
X107000000Y-98000000D03*
X105000000Y-98000000D03*
X106000000Y-100000000D03*
X105000000Y-102000000D03*
X107000000Y-102000000D03*
X106000000Y-104000000D03*
X105000000Y-106000000D03*
X106000000Y-108000000D03*
X132000000Y-92000000D03*
X134000000Y-92000000D03*
X133000000Y-94000000D03*
X135000000Y-94000000D03*
X136000000Y-92000000D03*
X134000000Y-96000000D03*
X136000000Y-96000000D03*
X132000000Y-96000000D03*
X131000000Y-98000000D03*
X133000000Y-98000000D03*
X132000000Y-100000000D03*
X133000000Y-102000000D03*
X131000000Y-102000000D03*
X132000000Y-104000000D03*
X130000000Y-104000000D03*
X134000000Y-104000000D03*
X128000000Y-104000000D03*
X129000000Y-106000000D03*
X131000000Y-106000000D03*
X133000000Y-106000000D03*
X132000000Y-108000000D03*
X130000000Y-108000000D03*
X128000000Y-108000000D03*
X104000000Y-104000000D03*
X104000000Y-108000000D03*
X103000000Y-106000000D03*
X112000000Y-108000000D03*
X110000000Y-108000000D03*
D16*
X128633975Y-90883975D02*
X128633975Y-94303848D01*
X127750000Y-90000000D02*
X128633975Y-90883975D01*
X113500000Y-90000000D02*
X127750000Y-90000000D01*
X112633975Y-94303848D02*
X112633975Y-90866025D01*
X112633975Y-90866025D02*
X113500000Y-90000000D01*
X114000000Y-110000000D02*
X112000000Y-108000000D01*
X123750000Y-110000000D02*
X114000000Y-110000000D01*
X124366025Y-105696152D02*
X124366025Y-109383975D01*
X124366025Y-109383975D02*
X123750000Y-110000000D01*
X110000000Y-106750000D02*
X110000000Y-108000000D01*
X108366025Y-105696152D02*
X108946152Y-105696152D01*
X108946152Y-105696152D02*
X110000000Y-106750000D01*
D17*
G36*
X142592613Y-89282278D02*
G01*
X142681695Y-89309173D01*
X142763856Y-89352859D01*
X142835974Y-89411677D01*
X142895289Y-89483376D01*
X142939546Y-89565228D01*
X142967065Y-89654130D01*
X142979301Y-89770542D01*
X142979300Y-99979539D01*
X142904094Y-100935118D01*
X142685120Y-101847208D01*
X142326161Y-102713812D01*
X141836051Y-103513599D01*
X141226868Y-104226863D01*
X140508390Y-104840501D01*
X139977826Y-105185052D01*
X130740239Y-110518376D01*
X130454452Y-110648015D01*
X130165816Y-110715713D01*
X129961260Y-110729300D01*
X94525467Y-110729300D01*
X94407387Y-110717722D01*
X94318306Y-110690827D01*
X94236143Y-110647141D01*
X94164026Y-110588323D01*
X94104711Y-110516624D01*
X94060455Y-110434773D01*
X94032935Y-110345870D01*
X94020700Y-110229466D01*
X94020700Y-106659065D01*
X105970710Y-106659065D01*
X105992283Y-106789727D01*
X106038931Y-106913669D01*
X106108864Y-107026129D01*
X106199392Y-107122785D01*
X106307038Y-107199923D01*
X108093216Y-108231173D01*
X108213842Y-108285828D01*
X108342813Y-108315900D01*
X108475172Y-108320233D01*
X108605834Y-108298660D01*
X108729776Y-108252012D01*
X108842236Y-108182079D01*
X108938892Y-108091551D01*
X109016030Y-107983905D01*
X109034800Y-107951394D01*
X109034800Y-108095064D01*
X109071892Y-108281538D01*
X109144651Y-108457194D01*
X109250280Y-108615279D01*
X109384721Y-108749720D01*
X109542806Y-108855349D01*
X109718462Y-108928108D01*
X109904936Y-108965200D01*
X110095064Y-108965200D01*
X110281538Y-108928108D01*
X110457194Y-108855349D01*
X110615279Y-108749720D01*
X110749720Y-108615279D01*
X110855349Y-108457194D01*
X110928108Y-108281538D01*
X110965200Y-108095064D01*
X110965200Y-107904936D01*
X111034800Y-107904936D01*
X111034800Y-108095064D01*
X111071892Y-108281538D01*
X111144651Y-108457194D01*
X111250280Y-108615279D01*
X111384721Y-108749720D01*
X111542806Y-108855349D01*
X111718462Y-108928108D01*
X111904936Y-108965200D01*
X111959413Y-108965200D01*
X113472403Y-110478191D01*
X113494673Y-110505327D01*
X113602967Y-110594202D01*
X113726519Y-110660242D01*
X113860580Y-110700909D01*
X113965064Y-110711200D01*
X113965073Y-110711200D01*
X113999999Y-110714640D01*
X114034925Y-110711200D01*
X123715074Y-110711200D01*
X123750000Y-110714640D01*
X123784926Y-110711200D01*
X123784936Y-110711200D01*
X123889420Y-110700909D01*
X124023481Y-110660242D01*
X124147033Y-110594202D01*
X124255327Y-110505327D01*
X124277601Y-110478186D01*
X124844215Y-109911573D01*
X124871352Y-109889302D01*
X124960227Y-109781008D01*
X125026267Y-109657456D01*
X125066934Y-109523395D01*
X125077225Y-109418911D01*
X125077225Y-109418904D01*
X125080665Y-109383975D01*
X125077225Y-109349047D01*
X125077225Y-107877912D01*
X126672280Y-105115195D01*
X126726935Y-104994569D01*
X126757007Y-104865598D01*
X126761340Y-104733239D01*
X126739767Y-104602577D01*
X126693119Y-104478635D01*
X126623186Y-104366175D01*
X126532658Y-104269519D01*
X126425012Y-104192381D01*
X124638834Y-103161131D01*
X124518208Y-103106476D01*
X124389237Y-103076404D01*
X124256878Y-103072071D01*
X124126216Y-103093644D01*
X124002274Y-103140292D01*
X123889814Y-103210225D01*
X123793158Y-103300753D01*
X123716020Y-103408399D01*
X122059770Y-106277109D01*
X122005115Y-106397735D01*
X121975043Y-106526706D01*
X121970710Y-106659065D01*
X121992283Y-106789727D01*
X122038931Y-106913669D01*
X122108864Y-107026129D01*
X122199392Y-107122785D01*
X122307038Y-107199923D01*
X123654826Y-107978068D01*
X123654826Y-109089386D01*
X123455413Y-109288800D01*
X114294588Y-109288800D01*
X112965200Y-107959413D01*
X112965200Y-107904936D01*
X112928108Y-107718462D01*
X112855349Y-107542806D01*
X112749720Y-107384721D01*
X112615279Y-107250280D01*
X112457194Y-107144651D01*
X112281538Y-107071892D01*
X112095064Y-107034800D01*
X111904936Y-107034800D01*
X111718462Y-107071892D01*
X111542806Y-107144651D01*
X111384721Y-107250280D01*
X111250280Y-107384721D01*
X111144651Y-107542806D01*
X111071892Y-107718462D01*
X111034800Y-107904936D01*
X110965200Y-107904936D01*
X110928108Y-107718462D01*
X110855349Y-107542806D01*
X110749720Y-107384721D01*
X110711200Y-107346201D01*
X110711200Y-106784925D01*
X110714640Y-106749999D01*
X110711200Y-106715073D01*
X110711200Y-106715064D01*
X110700909Y-106610580D01*
X110660242Y-106476519D01*
X110594202Y-106352967D01*
X110527597Y-106271809D01*
X110527593Y-106271805D01*
X110505326Y-106244673D01*
X110478195Y-106222407D01*
X110195972Y-105940185D01*
X110672280Y-105115195D01*
X110726935Y-104994569D01*
X110757007Y-104865598D01*
X110761340Y-104733239D01*
X110739767Y-104602577D01*
X110693119Y-104478635D01*
X110623186Y-104366175D01*
X110532658Y-104269519D01*
X110425012Y-104192381D01*
X108638834Y-103161131D01*
X108518208Y-103106476D01*
X108389237Y-103076404D01*
X108256878Y-103072071D01*
X108126216Y-103093644D01*
X108002274Y-103140292D01*
X107889814Y-103210225D01*
X107793158Y-103300753D01*
X107716020Y-103408399D01*
X106059770Y-106277109D01*
X106005115Y-106397735D01*
X105975043Y-106526706D01*
X105970710Y-106659065D01*
X94020700Y-106659065D01*
X94020700Y-103028457D01*
X99829466Y-103028457D01*
X99874950Y-103122998D01*
X100018402Y-103133502D01*
X100125050Y-103122998D01*
X100170534Y-103028457D01*
X136829466Y-103028457D01*
X136874950Y-103122998D01*
X137018402Y-103133502D01*
X137125050Y-103122998D01*
X137170534Y-103028457D01*
X137000000Y-102857922D01*
X136829466Y-103028457D01*
X100170534Y-103028457D01*
X100000000Y-102857922D01*
X99829466Y-103028457D01*
X94020700Y-103028457D01*
X94020700Y-102325513D01*
X98132410Y-102325513D01*
X98177894Y-102420054D01*
X98321346Y-102430558D01*
X98427994Y-102420054D01*
X98428788Y-102418402D01*
X99266498Y-102418402D01*
X99277002Y-102525050D01*
X99371543Y-102570534D01*
X99542078Y-102400000D01*
X100457922Y-102400000D01*
X100628457Y-102570534D01*
X100722998Y-102525050D01*
X100733502Y-102381598D01*
X100727979Y-102325513D01*
X101526522Y-102325513D01*
X101572006Y-102420054D01*
X101715458Y-102430558D01*
X101822106Y-102420054D01*
X101867590Y-102325513D01*
X135132410Y-102325513D01*
X135177894Y-102420054D01*
X135321346Y-102430558D01*
X135427994Y-102420054D01*
X135428788Y-102418402D01*
X136266498Y-102418402D01*
X136277002Y-102525050D01*
X136371543Y-102570534D01*
X136542078Y-102400000D01*
X137457922Y-102400000D01*
X137628457Y-102570534D01*
X137722998Y-102525050D01*
X137733502Y-102381598D01*
X137727979Y-102325513D01*
X138526522Y-102325513D01*
X138572006Y-102420054D01*
X138715458Y-102430558D01*
X138822106Y-102420054D01*
X138867590Y-102325513D01*
X138697056Y-102154978D01*
X138526522Y-102325513D01*
X137727979Y-102325513D01*
X137722998Y-102274950D01*
X137628457Y-102229466D01*
X137457922Y-102400000D01*
X136542078Y-102400000D01*
X136371543Y-102229466D01*
X136277002Y-102274950D01*
X136266498Y-102418402D01*
X135428788Y-102418402D01*
X135473478Y-102325513D01*
X135302944Y-102154978D01*
X135132410Y-102325513D01*
X101867590Y-102325513D01*
X101697056Y-102154978D01*
X101526522Y-102325513D01*
X100727979Y-102325513D01*
X100722998Y-102274950D01*
X100628457Y-102229466D01*
X100457922Y-102400000D01*
X99542078Y-102400000D01*
X99371543Y-102229466D01*
X99277002Y-102274950D01*
X99266498Y-102418402D01*
X98428788Y-102418402D01*
X98473478Y-102325513D01*
X98302944Y-102154978D01*
X98132410Y-102325513D01*
X94020700Y-102325513D01*
X94020700Y-101715458D01*
X97569442Y-101715458D01*
X97579946Y-101822106D01*
X97674487Y-101867590D01*
X97845022Y-101697056D01*
X98760866Y-101697056D01*
X98931401Y-101867590D01*
X99025942Y-101822106D01*
X99029644Y-101771543D01*
X99829466Y-101771543D01*
X100000000Y-101942078D01*
X100170534Y-101771543D01*
X100143552Y-101715458D01*
X100963554Y-101715458D01*
X100974058Y-101822106D01*
X101068599Y-101867590D01*
X101239134Y-101697056D01*
X102154978Y-101697056D01*
X102325513Y-101867590D01*
X102420054Y-101822106D01*
X102427863Y-101715458D01*
X134569442Y-101715458D01*
X134579946Y-101822106D01*
X134674487Y-101867590D01*
X134845022Y-101697056D01*
X135760866Y-101697056D01*
X135931401Y-101867590D01*
X136025942Y-101822106D01*
X136029644Y-101771543D01*
X136829466Y-101771543D01*
X137000000Y-101942078D01*
X137170534Y-101771543D01*
X137143552Y-101715458D01*
X137963554Y-101715458D01*
X137974058Y-101822106D01*
X138068599Y-101867590D01*
X138239134Y-101697056D01*
X139154978Y-101697056D01*
X139325513Y-101867590D01*
X139420054Y-101822106D01*
X139430558Y-101678654D01*
X139420054Y-101572006D01*
X139325513Y-101526522D01*
X139154978Y-101697056D01*
X138239134Y-101697056D01*
X138068599Y-101526522D01*
X137974058Y-101572006D01*
X137963554Y-101715458D01*
X137143552Y-101715458D01*
X137125050Y-101677002D01*
X136981598Y-101666498D01*
X136874950Y-101677002D01*
X136829466Y-101771543D01*
X136029644Y-101771543D01*
X136036446Y-101678654D01*
X136025942Y-101572006D01*
X135931401Y-101526522D01*
X135760866Y-101697056D01*
X134845022Y-101697056D01*
X134674487Y-101526522D01*
X134579946Y-101572006D01*
X134569442Y-101715458D01*
X102427863Y-101715458D01*
X102430558Y-101678654D01*
X102420054Y-101572006D01*
X102325513Y-101526522D01*
X102154978Y-101697056D01*
X101239134Y-101697056D01*
X101068599Y-101526522D01*
X100974058Y-101572006D01*
X100963554Y-101715458D01*
X100143552Y-101715458D01*
X100125050Y-101677002D01*
X99981598Y-101666498D01*
X99874950Y-101677002D01*
X99829466Y-101771543D01*
X99029644Y-101771543D01*
X99036446Y-101678654D01*
X99025942Y-101572006D01*
X98931401Y-101526522D01*
X98760866Y-101697056D01*
X97845022Y-101697056D01*
X97674487Y-101526522D01*
X97579946Y-101572006D01*
X97569442Y-101715458D01*
X94020700Y-101715458D01*
X94020700Y-101068599D01*
X98132410Y-101068599D01*
X98302944Y-101239134D01*
X98473478Y-101068599D01*
X101526522Y-101068599D01*
X101697056Y-101239134D01*
X101867590Y-101068599D01*
X135132410Y-101068599D01*
X135302944Y-101239134D01*
X135473478Y-101068599D01*
X138526522Y-101068599D01*
X138697056Y-101239134D01*
X138867590Y-101068599D01*
X138822106Y-100974058D01*
X138678654Y-100963554D01*
X138572006Y-100974058D01*
X138526522Y-101068599D01*
X135473478Y-101068599D01*
X135427994Y-100974058D01*
X135284542Y-100963554D01*
X135177894Y-100974058D01*
X135132410Y-101068599D01*
X101867590Y-101068599D01*
X101822106Y-100974058D01*
X101678654Y-100963554D01*
X101572006Y-100974058D01*
X101526522Y-101068599D01*
X98473478Y-101068599D01*
X98427994Y-100974058D01*
X98284542Y-100963554D01*
X98177894Y-100974058D01*
X98132410Y-101068599D01*
X94020700Y-101068599D01*
X94020700Y-100628457D01*
X97429466Y-100628457D01*
X97474950Y-100722998D01*
X97618402Y-100733502D01*
X97725050Y-100722998D01*
X97770534Y-100628457D01*
X102229466Y-100628457D01*
X102274950Y-100722998D01*
X102418402Y-100733502D01*
X102525050Y-100722998D01*
X102570534Y-100628457D01*
X134429466Y-100628457D01*
X134474950Y-100722998D01*
X134618402Y-100733502D01*
X134725050Y-100722998D01*
X134770534Y-100628457D01*
X139229466Y-100628457D01*
X139274950Y-100722998D01*
X139418402Y-100733502D01*
X139525050Y-100722998D01*
X139570534Y-100628457D01*
X139400000Y-100457922D01*
X139229466Y-100628457D01*
X134770534Y-100628457D01*
X134600000Y-100457922D01*
X134429466Y-100628457D01*
X102570534Y-100628457D01*
X102400000Y-100457922D01*
X102229466Y-100628457D01*
X97770534Y-100628457D01*
X97600000Y-100457922D01*
X97429466Y-100628457D01*
X94020700Y-100628457D01*
X94020700Y-100020461D01*
X94020862Y-100018402D01*
X96866498Y-100018402D01*
X96877002Y-100125050D01*
X96971543Y-100170534D01*
X97142078Y-100000000D01*
X98057922Y-100000000D01*
X98228457Y-100170534D01*
X98322998Y-100125050D01*
X98330807Y-100018402D01*
X101666498Y-100018402D01*
X101677002Y-100125050D01*
X101771543Y-100170534D01*
X101942078Y-100000000D01*
X102857922Y-100000000D01*
X103028457Y-100170534D01*
X103122998Y-100125050D01*
X103130807Y-100018402D01*
X133866498Y-100018402D01*
X133877002Y-100125050D01*
X133971543Y-100170534D01*
X134142078Y-100000000D01*
X135057922Y-100000000D01*
X135228457Y-100170534D01*
X135322998Y-100125050D01*
X135330807Y-100018402D01*
X138666498Y-100018402D01*
X138677002Y-100125050D01*
X138771543Y-100170534D01*
X138942078Y-100000000D01*
X139857922Y-100000000D01*
X140028457Y-100170534D01*
X140122998Y-100125050D01*
X140133502Y-99981598D01*
X140122998Y-99874950D01*
X140028457Y-99829466D01*
X139857922Y-100000000D01*
X138942078Y-100000000D01*
X138771543Y-99829466D01*
X138677002Y-99874950D01*
X138666498Y-100018402D01*
X135330807Y-100018402D01*
X135333502Y-99981598D01*
X135322998Y-99874950D01*
X135228457Y-99829466D01*
X135057922Y-100000000D01*
X134142078Y-100000000D01*
X133971543Y-99829466D01*
X133877002Y-99874950D01*
X133866498Y-100018402D01*
X103130807Y-100018402D01*
X103133502Y-99981598D01*
X103122998Y-99874950D01*
X103028457Y-99829466D01*
X102857922Y-100000000D01*
X101942078Y-100000000D01*
X101771543Y-99829466D01*
X101677002Y-99874950D01*
X101666498Y-100018402D01*
X98330807Y-100018402D01*
X98333502Y-99981598D01*
X98322998Y-99874950D01*
X98228457Y-99829466D01*
X98057922Y-100000000D01*
X97142078Y-100000000D01*
X96971543Y-99829466D01*
X96877002Y-99874950D01*
X96866498Y-100018402D01*
X94020862Y-100018402D01*
X94071771Y-99371543D01*
X97429466Y-99371543D01*
X97600000Y-99542078D01*
X97770534Y-99371543D01*
X102229466Y-99371543D01*
X102400000Y-99542078D01*
X102570534Y-99371543D01*
X134429466Y-99371543D01*
X134600000Y-99542078D01*
X134770534Y-99371543D01*
X139229466Y-99371543D01*
X139400000Y-99542078D01*
X139570534Y-99371543D01*
X139525050Y-99277002D01*
X139381598Y-99266498D01*
X139274950Y-99277002D01*
X139229466Y-99371543D01*
X134770534Y-99371543D01*
X134725050Y-99277002D01*
X134581598Y-99266498D01*
X134474950Y-99277002D01*
X134429466Y-99371543D01*
X102570534Y-99371543D01*
X102525050Y-99277002D01*
X102381598Y-99266498D01*
X102274950Y-99277002D01*
X102229466Y-99371543D01*
X97770534Y-99371543D01*
X97725050Y-99277002D01*
X97581598Y-99266498D01*
X97474950Y-99277002D01*
X97429466Y-99371543D01*
X94071771Y-99371543D01*
X94095906Y-99064882D01*
X94127951Y-98931401D01*
X98132410Y-98931401D01*
X98177894Y-99025942D01*
X98321346Y-99036446D01*
X98427994Y-99025942D01*
X98473478Y-98931401D01*
X101526522Y-98931401D01*
X101572006Y-99025942D01*
X101715458Y-99036446D01*
X101822106Y-99025942D01*
X101867590Y-98931401D01*
X135132410Y-98931401D01*
X135177894Y-99025942D01*
X135321346Y-99036446D01*
X135427994Y-99025942D01*
X135473478Y-98931401D01*
X138526522Y-98931401D01*
X138572006Y-99025942D01*
X138715458Y-99036446D01*
X138822106Y-99025942D01*
X138867590Y-98931401D01*
X138697056Y-98760866D01*
X138526522Y-98931401D01*
X135473478Y-98931401D01*
X135302944Y-98760866D01*
X135132410Y-98931401D01*
X101867590Y-98931401D01*
X101697056Y-98760866D01*
X101526522Y-98931401D01*
X98473478Y-98931401D01*
X98302944Y-98760866D01*
X98132410Y-98931401D01*
X94127951Y-98931401D01*
X94274413Y-98321346D01*
X97569442Y-98321346D01*
X97579946Y-98427994D01*
X97674487Y-98473478D01*
X97845022Y-98302944D01*
X98760866Y-98302944D01*
X98931401Y-98473478D01*
X99025942Y-98427994D01*
X99036446Y-98284542D01*
X99030923Y-98228457D01*
X99829466Y-98228457D01*
X99874950Y-98322998D01*
X100018402Y-98333502D01*
X100125050Y-98322998D01*
X100125844Y-98321346D01*
X100963554Y-98321346D01*
X100974058Y-98427994D01*
X101068599Y-98473478D01*
X101239134Y-98302944D01*
X102154978Y-98302944D01*
X102325513Y-98473478D01*
X102420054Y-98427994D01*
X102427863Y-98321346D01*
X134569442Y-98321346D01*
X134579946Y-98427994D01*
X134674487Y-98473478D01*
X134845022Y-98302944D01*
X135760866Y-98302944D01*
X135931401Y-98473478D01*
X136025942Y-98427994D01*
X136036446Y-98284542D01*
X136030923Y-98228457D01*
X136829466Y-98228457D01*
X136874950Y-98322998D01*
X137018402Y-98333502D01*
X137125050Y-98322998D01*
X137125844Y-98321346D01*
X137963554Y-98321346D01*
X137974058Y-98427994D01*
X138068599Y-98473478D01*
X138239134Y-98302944D01*
X139154978Y-98302944D01*
X139325513Y-98473478D01*
X139420054Y-98427994D01*
X139430558Y-98284542D01*
X139420054Y-98177894D01*
X139325513Y-98132410D01*
X139154978Y-98302944D01*
X138239134Y-98302944D01*
X138068599Y-98132410D01*
X137974058Y-98177894D01*
X137963554Y-98321346D01*
X137125844Y-98321346D01*
X137170534Y-98228457D01*
X137000000Y-98057922D01*
X136829466Y-98228457D01*
X136030923Y-98228457D01*
X136025942Y-98177894D01*
X135931401Y-98132410D01*
X135760866Y-98302944D01*
X134845022Y-98302944D01*
X134674487Y-98132410D01*
X134579946Y-98177894D01*
X134569442Y-98321346D01*
X102427863Y-98321346D01*
X102430558Y-98284542D01*
X102420054Y-98177894D01*
X102325513Y-98132410D01*
X102154978Y-98302944D01*
X101239134Y-98302944D01*
X101068599Y-98132410D01*
X100974058Y-98177894D01*
X100963554Y-98321346D01*
X100125844Y-98321346D01*
X100170534Y-98228457D01*
X100000000Y-98057922D01*
X99829466Y-98228457D01*
X99030923Y-98228457D01*
X99025942Y-98177894D01*
X98931401Y-98132410D01*
X98760866Y-98302944D01*
X97845022Y-98302944D01*
X97674487Y-98132410D01*
X97579946Y-98177894D01*
X97569442Y-98321346D01*
X94274413Y-98321346D01*
X94314880Y-98152792D01*
X94513000Y-97674487D01*
X98132410Y-97674487D01*
X98302944Y-97845022D01*
X98473478Y-97674487D01*
X98446496Y-97618402D01*
X99266498Y-97618402D01*
X99277002Y-97725050D01*
X99371543Y-97770534D01*
X99542078Y-97600000D01*
X100457922Y-97600000D01*
X100628457Y-97770534D01*
X100722998Y-97725050D01*
X100726700Y-97674487D01*
X101526522Y-97674487D01*
X101697056Y-97845022D01*
X101867590Y-97674487D01*
X135132410Y-97674487D01*
X135302944Y-97845022D01*
X135473478Y-97674487D01*
X135446496Y-97618402D01*
X136266498Y-97618402D01*
X136277002Y-97725050D01*
X136371543Y-97770534D01*
X136542078Y-97600000D01*
X137457922Y-97600000D01*
X137628457Y-97770534D01*
X137722998Y-97725050D01*
X137726700Y-97674487D01*
X138526522Y-97674487D01*
X138697056Y-97845022D01*
X138867590Y-97674487D01*
X138822106Y-97579946D01*
X138678654Y-97569442D01*
X138572006Y-97579946D01*
X138526522Y-97674487D01*
X137726700Y-97674487D01*
X137733502Y-97581598D01*
X137722998Y-97474950D01*
X137628457Y-97429466D01*
X137457922Y-97600000D01*
X136542078Y-97600000D01*
X136371543Y-97429466D01*
X136277002Y-97474950D01*
X136266498Y-97618402D01*
X135446496Y-97618402D01*
X135427994Y-97579946D01*
X135284542Y-97569442D01*
X135177894Y-97579946D01*
X135132410Y-97674487D01*
X101867590Y-97674487D01*
X101822106Y-97579946D01*
X101678654Y-97569442D01*
X101572006Y-97579946D01*
X101526522Y-97674487D01*
X100726700Y-97674487D01*
X100733502Y-97581598D01*
X100722998Y-97474950D01*
X100628457Y-97429466D01*
X100457922Y-97600000D01*
X99542078Y-97600000D01*
X99371543Y-97429466D01*
X99277002Y-97474950D01*
X99266498Y-97618402D01*
X98446496Y-97618402D01*
X98427994Y-97579946D01*
X98284542Y-97569442D01*
X98177894Y-97579946D01*
X98132410Y-97674487D01*
X94513000Y-97674487D01*
X94673840Y-97286186D01*
X94866653Y-96971543D01*
X99829466Y-96971543D01*
X100000000Y-97142078D01*
X100170534Y-96971543D01*
X136829466Y-96971543D01*
X137000000Y-97142078D01*
X137170534Y-96971543D01*
X137125050Y-96877002D01*
X136981598Y-96866498D01*
X136874950Y-96877002D01*
X136829466Y-96971543D01*
X100170534Y-96971543D01*
X100125050Y-96877002D01*
X99981598Y-96866498D01*
X99874950Y-96877002D01*
X99829466Y-96971543D01*
X94866653Y-96971543D01*
X95163951Y-96486397D01*
X95773137Y-95773132D01*
X96366023Y-95266761D01*
X110238660Y-95266761D01*
X110260233Y-95397423D01*
X110306881Y-95521365D01*
X110376814Y-95633825D01*
X110467342Y-95730481D01*
X110574988Y-95807619D01*
X112361166Y-96838869D01*
X112481792Y-96893524D01*
X112610763Y-96923596D01*
X112743122Y-96927929D01*
X112873784Y-96906356D01*
X112997726Y-96859708D01*
X113110186Y-96789775D01*
X113206842Y-96699247D01*
X113283980Y-96591601D01*
X114940230Y-93722891D01*
X114994885Y-93602265D01*
X115024957Y-93473294D01*
X115029290Y-93340935D01*
X115007717Y-93210273D01*
X114961069Y-93086331D01*
X114891136Y-92973871D01*
X114800608Y-92877215D01*
X114692962Y-92800077D01*
X113345175Y-92021932D01*
X113345175Y-91160613D01*
X113794588Y-90711200D01*
X127455413Y-90711200D01*
X127922775Y-91178564D01*
X127922775Y-92122087D01*
X126327720Y-94884805D01*
X126273065Y-95005431D01*
X126242993Y-95134402D01*
X126238660Y-95266761D01*
X126260233Y-95397423D01*
X126306881Y-95521365D01*
X126376814Y-95633825D01*
X126467342Y-95730481D01*
X126574988Y-95807619D01*
X128361166Y-96838869D01*
X128481792Y-96893524D01*
X128610763Y-96923596D01*
X128743122Y-96927929D01*
X128873784Y-96906356D01*
X128997726Y-96859708D01*
X129110186Y-96789775D01*
X129206842Y-96699247D01*
X129283980Y-96591601D01*
X130940230Y-93722891D01*
X130994885Y-93602265D01*
X131024957Y-93473294D01*
X131029290Y-93340935D01*
X131007717Y-93210273D01*
X130961069Y-93086331D01*
X130891136Y-92973871D01*
X130800608Y-92877215D01*
X130692962Y-92800077D01*
X129345175Y-92021932D01*
X129345175Y-90918892D01*
X129348614Y-90883974D01*
X129345175Y-90849056D01*
X129345175Y-90849039D01*
X129334884Y-90744555D01*
X129294217Y-90610494D01*
X129228177Y-90486942D01*
X129220994Y-90478190D01*
X129161572Y-90405783D01*
X129161563Y-90405774D01*
X129139301Y-90378648D01*
X129112175Y-90356386D01*
X128277601Y-89521814D01*
X128255327Y-89494673D01*
X128147033Y-89405798D01*
X128023481Y-89339758D01*
X127889420Y-89299091D01*
X127784936Y-89288800D01*
X127784926Y-89288800D01*
X127750000Y-89285360D01*
X127715074Y-89288800D01*
X113534925Y-89288800D01*
X113499999Y-89285360D01*
X113465073Y-89288800D01*
X113465064Y-89288800D01*
X113360580Y-89299091D01*
X113226519Y-89339758D01*
X113123272Y-89394945D01*
X113102967Y-89405798D01*
X113021808Y-89472403D01*
X113021804Y-89472407D01*
X112994673Y-89494673D01*
X112972407Y-89521804D01*
X112155785Y-90338428D01*
X112128649Y-90360698D01*
X112106379Y-90387834D01*
X112106378Y-90387835D01*
X112039773Y-90468993D01*
X111973734Y-90592544D01*
X111933067Y-90726606D01*
X111919335Y-90866025D01*
X111922776Y-90900961D01*
X111922776Y-92122087D01*
X110327720Y-94884805D01*
X110273065Y-95005431D01*
X110242993Y-95134402D01*
X110238660Y-95266761D01*
X96366023Y-95266761D01*
X96491610Y-95159500D01*
X97022173Y-94814947D01*
X106259769Y-89481620D01*
X106545547Y-89351985D01*
X106834185Y-89284287D01*
X107038740Y-89270700D01*
X142474532Y-89270700D01*
X142592613Y-89282278D01*
X142592613Y-89282278D01*
G37*
X142592613Y-89282278D02*
X142681695Y-89309173D01*
X142763856Y-89352859D01*
X142835974Y-89411677D01*
X142895289Y-89483376D01*
X142939546Y-89565228D01*
X142967065Y-89654130D01*
X142979301Y-89770542D01*
X142979300Y-99979539D01*
X142904094Y-100935118D01*
X142685120Y-101847208D01*
X142326161Y-102713812D01*
X141836051Y-103513599D01*
X141226868Y-104226863D01*
X140508390Y-104840501D01*
X139977826Y-105185052D01*
X130740239Y-110518376D01*
X130454452Y-110648015D01*
X130165816Y-110715713D01*
X129961260Y-110729300D01*
X94525467Y-110729300D01*
X94407387Y-110717722D01*
X94318306Y-110690827D01*
X94236143Y-110647141D01*
X94164026Y-110588323D01*
X94104711Y-110516624D01*
X94060455Y-110434773D01*
X94032935Y-110345870D01*
X94020700Y-110229466D01*
X94020700Y-106659065D01*
X105970710Y-106659065D01*
X105992283Y-106789727D01*
X106038931Y-106913669D01*
X106108864Y-107026129D01*
X106199392Y-107122785D01*
X106307038Y-107199923D01*
X108093216Y-108231173D01*
X108213842Y-108285828D01*
X108342813Y-108315900D01*
X108475172Y-108320233D01*
X108605834Y-108298660D01*
X108729776Y-108252012D01*
X108842236Y-108182079D01*
X108938892Y-108091551D01*
X109016030Y-107983905D01*
X109034800Y-107951394D01*
X109034800Y-108095064D01*
X109071892Y-108281538D01*
X109144651Y-108457194D01*
X109250280Y-108615279D01*
X109384721Y-108749720D01*
X109542806Y-108855349D01*
X109718462Y-108928108D01*
X109904936Y-108965200D01*
X110095064Y-108965200D01*
X110281538Y-108928108D01*
X110457194Y-108855349D01*
X110615279Y-108749720D01*
X110749720Y-108615279D01*
X110855349Y-108457194D01*
X110928108Y-108281538D01*
X110965200Y-108095064D01*
X110965200Y-107904936D01*
X111034800Y-107904936D01*
X111034800Y-108095064D01*
X111071892Y-108281538D01*
X111144651Y-108457194D01*
X111250280Y-108615279D01*
X111384721Y-108749720D01*
X111542806Y-108855349D01*
X111718462Y-108928108D01*
X111904936Y-108965200D01*
X111959413Y-108965200D01*
X113472403Y-110478191D01*
X113494673Y-110505327D01*
X113602967Y-110594202D01*
X113726519Y-110660242D01*
X113860580Y-110700909D01*
X113965064Y-110711200D01*
X113965073Y-110711200D01*
X113999999Y-110714640D01*
X114034925Y-110711200D01*
X123715074Y-110711200D01*
X123750000Y-110714640D01*
X123784926Y-110711200D01*
X123784936Y-110711200D01*
X123889420Y-110700909D01*
X124023481Y-110660242D01*
X124147033Y-110594202D01*
X124255327Y-110505327D01*
X124277601Y-110478186D01*
X124844215Y-109911573D01*
X124871352Y-109889302D01*
X124960227Y-109781008D01*
X125026267Y-109657456D01*
X125066934Y-109523395D01*
X125077225Y-109418911D01*
X125077225Y-109418904D01*
X125080665Y-109383975D01*
X125077225Y-109349047D01*
X125077225Y-107877912D01*
X126672280Y-105115195D01*
X126726935Y-104994569D01*
X126757007Y-104865598D01*
X126761340Y-104733239D01*
X126739767Y-104602577D01*
X126693119Y-104478635D01*
X126623186Y-104366175D01*
X126532658Y-104269519D01*
X126425012Y-104192381D01*
X124638834Y-103161131D01*
X124518208Y-103106476D01*
X124389237Y-103076404D01*
X124256878Y-103072071D01*
X124126216Y-103093644D01*
X124002274Y-103140292D01*
X123889814Y-103210225D01*
X123793158Y-103300753D01*
X123716020Y-103408399D01*
X122059770Y-106277109D01*
X122005115Y-106397735D01*
X121975043Y-106526706D01*
X121970710Y-106659065D01*
X121992283Y-106789727D01*
X122038931Y-106913669D01*
X122108864Y-107026129D01*
X122199392Y-107122785D01*
X122307038Y-107199923D01*
X123654826Y-107978068D01*
X123654826Y-109089386D01*
X123455413Y-109288800D01*
X114294588Y-109288800D01*
X112965200Y-107959413D01*
X112965200Y-107904936D01*
X112928108Y-107718462D01*
X112855349Y-107542806D01*
X112749720Y-107384721D01*
X112615279Y-107250280D01*
X112457194Y-107144651D01*
X112281538Y-107071892D01*
X112095064Y-107034800D01*
X111904936Y-107034800D01*
X111718462Y-107071892D01*
X111542806Y-107144651D01*
X111384721Y-107250280D01*
X111250280Y-107384721D01*
X111144651Y-107542806D01*
X111071892Y-107718462D01*
X111034800Y-107904936D01*
X110965200Y-107904936D01*
X110928108Y-107718462D01*
X110855349Y-107542806D01*
X110749720Y-107384721D01*
X110711200Y-107346201D01*
X110711200Y-106784925D01*
X110714640Y-106749999D01*
X110711200Y-106715073D01*
X110711200Y-106715064D01*
X110700909Y-106610580D01*
X110660242Y-106476519D01*
X110594202Y-106352967D01*
X110527597Y-106271809D01*
X110527593Y-106271805D01*
X110505326Y-106244673D01*
X110478195Y-106222407D01*
X110195972Y-105940185D01*
X110672280Y-105115195D01*
X110726935Y-104994569D01*
X110757007Y-104865598D01*
X110761340Y-104733239D01*
X110739767Y-104602577D01*
X110693119Y-104478635D01*
X110623186Y-104366175D01*
X110532658Y-104269519D01*
X110425012Y-104192381D01*
X108638834Y-103161131D01*
X108518208Y-103106476D01*
X108389237Y-103076404D01*
X108256878Y-103072071D01*
X108126216Y-103093644D01*
X108002274Y-103140292D01*
X107889814Y-103210225D01*
X107793158Y-103300753D01*
X107716020Y-103408399D01*
X106059770Y-106277109D01*
X106005115Y-106397735D01*
X105975043Y-106526706D01*
X105970710Y-106659065D01*
X94020700Y-106659065D01*
X94020700Y-103028457D01*
X99829466Y-103028457D01*
X99874950Y-103122998D01*
X100018402Y-103133502D01*
X100125050Y-103122998D01*
X100170534Y-103028457D01*
X136829466Y-103028457D01*
X136874950Y-103122998D01*
X137018402Y-103133502D01*
X137125050Y-103122998D01*
X137170534Y-103028457D01*
X137000000Y-102857922D01*
X136829466Y-103028457D01*
X100170534Y-103028457D01*
X100000000Y-102857922D01*
X99829466Y-103028457D01*
X94020700Y-103028457D01*
X94020700Y-102325513D01*
X98132410Y-102325513D01*
X98177894Y-102420054D01*
X98321346Y-102430558D01*
X98427994Y-102420054D01*
X98428788Y-102418402D01*
X99266498Y-102418402D01*
X99277002Y-102525050D01*
X99371543Y-102570534D01*
X99542078Y-102400000D01*
X100457922Y-102400000D01*
X100628457Y-102570534D01*
X100722998Y-102525050D01*
X100733502Y-102381598D01*
X100727979Y-102325513D01*
X101526522Y-102325513D01*
X101572006Y-102420054D01*
X101715458Y-102430558D01*
X101822106Y-102420054D01*
X101867590Y-102325513D01*
X135132410Y-102325513D01*
X135177894Y-102420054D01*
X135321346Y-102430558D01*
X135427994Y-102420054D01*
X135428788Y-102418402D01*
X136266498Y-102418402D01*
X136277002Y-102525050D01*
X136371543Y-102570534D01*
X136542078Y-102400000D01*
X137457922Y-102400000D01*
X137628457Y-102570534D01*
X137722998Y-102525050D01*
X137733502Y-102381598D01*
X137727979Y-102325513D01*
X138526522Y-102325513D01*
X138572006Y-102420054D01*
X138715458Y-102430558D01*
X138822106Y-102420054D01*
X138867590Y-102325513D01*
X138697056Y-102154978D01*
X138526522Y-102325513D01*
X137727979Y-102325513D01*
X137722998Y-102274950D01*
X137628457Y-102229466D01*
X137457922Y-102400000D01*
X136542078Y-102400000D01*
X136371543Y-102229466D01*
X136277002Y-102274950D01*
X136266498Y-102418402D01*
X135428788Y-102418402D01*
X135473478Y-102325513D01*
X135302944Y-102154978D01*
X135132410Y-102325513D01*
X101867590Y-102325513D01*
X101697056Y-102154978D01*
X101526522Y-102325513D01*
X100727979Y-102325513D01*
X100722998Y-102274950D01*
X100628457Y-102229466D01*
X100457922Y-102400000D01*
X99542078Y-102400000D01*
X99371543Y-102229466D01*
X99277002Y-102274950D01*
X99266498Y-102418402D01*
X98428788Y-102418402D01*
X98473478Y-102325513D01*
X98302944Y-102154978D01*
X98132410Y-102325513D01*
X94020700Y-102325513D01*
X94020700Y-101715458D01*
X97569442Y-101715458D01*
X97579946Y-101822106D01*
X97674487Y-101867590D01*
X97845022Y-101697056D01*
X98760866Y-101697056D01*
X98931401Y-101867590D01*
X99025942Y-101822106D01*
X99029644Y-101771543D01*
X99829466Y-101771543D01*
X100000000Y-101942078D01*
X100170534Y-101771543D01*
X100143552Y-101715458D01*
X100963554Y-101715458D01*
X100974058Y-101822106D01*
X101068599Y-101867590D01*
X101239134Y-101697056D01*
X102154978Y-101697056D01*
X102325513Y-101867590D01*
X102420054Y-101822106D01*
X102427863Y-101715458D01*
X134569442Y-101715458D01*
X134579946Y-101822106D01*
X134674487Y-101867590D01*
X134845022Y-101697056D01*
X135760866Y-101697056D01*
X135931401Y-101867590D01*
X136025942Y-101822106D01*
X136029644Y-101771543D01*
X136829466Y-101771543D01*
X137000000Y-101942078D01*
X137170534Y-101771543D01*
X137143552Y-101715458D01*
X137963554Y-101715458D01*
X137974058Y-101822106D01*
X138068599Y-101867590D01*
X138239134Y-101697056D01*
X139154978Y-101697056D01*
X139325513Y-101867590D01*
X139420054Y-101822106D01*
X139430558Y-101678654D01*
X139420054Y-101572006D01*
X139325513Y-101526522D01*
X139154978Y-101697056D01*
X138239134Y-101697056D01*
X138068599Y-101526522D01*
X137974058Y-101572006D01*
X137963554Y-101715458D01*
X137143552Y-101715458D01*
X137125050Y-101677002D01*
X136981598Y-101666498D01*
X136874950Y-101677002D01*
X136829466Y-101771543D01*
X136029644Y-101771543D01*
X136036446Y-101678654D01*
X136025942Y-101572006D01*
X135931401Y-101526522D01*
X135760866Y-101697056D01*
X134845022Y-101697056D01*
X134674487Y-101526522D01*
X134579946Y-101572006D01*
X134569442Y-101715458D01*
X102427863Y-101715458D01*
X102430558Y-101678654D01*
X102420054Y-101572006D01*
X102325513Y-101526522D01*
X102154978Y-101697056D01*
X101239134Y-101697056D01*
X101068599Y-101526522D01*
X100974058Y-101572006D01*
X100963554Y-101715458D01*
X100143552Y-101715458D01*
X100125050Y-101677002D01*
X99981598Y-101666498D01*
X99874950Y-101677002D01*
X99829466Y-101771543D01*
X99029644Y-101771543D01*
X99036446Y-101678654D01*
X99025942Y-101572006D01*
X98931401Y-101526522D01*
X98760866Y-101697056D01*
X97845022Y-101697056D01*
X97674487Y-101526522D01*
X97579946Y-101572006D01*
X97569442Y-101715458D01*
X94020700Y-101715458D01*
X94020700Y-101068599D01*
X98132410Y-101068599D01*
X98302944Y-101239134D01*
X98473478Y-101068599D01*
X101526522Y-101068599D01*
X101697056Y-101239134D01*
X101867590Y-101068599D01*
X135132410Y-101068599D01*
X135302944Y-101239134D01*
X135473478Y-101068599D01*
X138526522Y-101068599D01*
X138697056Y-101239134D01*
X138867590Y-101068599D01*
X138822106Y-100974058D01*
X138678654Y-100963554D01*
X138572006Y-100974058D01*
X138526522Y-101068599D01*
X135473478Y-101068599D01*
X135427994Y-100974058D01*
X135284542Y-100963554D01*
X135177894Y-100974058D01*
X135132410Y-101068599D01*
X101867590Y-101068599D01*
X101822106Y-100974058D01*
X101678654Y-100963554D01*
X101572006Y-100974058D01*
X101526522Y-101068599D01*
X98473478Y-101068599D01*
X98427994Y-100974058D01*
X98284542Y-100963554D01*
X98177894Y-100974058D01*
X98132410Y-101068599D01*
X94020700Y-101068599D01*
X94020700Y-100628457D01*
X97429466Y-100628457D01*
X97474950Y-100722998D01*
X97618402Y-100733502D01*
X97725050Y-100722998D01*
X97770534Y-100628457D01*
X102229466Y-100628457D01*
X102274950Y-100722998D01*
X102418402Y-100733502D01*
X102525050Y-100722998D01*
X102570534Y-100628457D01*
X134429466Y-100628457D01*
X134474950Y-100722998D01*
X134618402Y-100733502D01*
X134725050Y-100722998D01*
X134770534Y-100628457D01*
X139229466Y-100628457D01*
X139274950Y-100722998D01*
X139418402Y-100733502D01*
X139525050Y-100722998D01*
X139570534Y-100628457D01*
X139400000Y-100457922D01*
X139229466Y-100628457D01*
X134770534Y-100628457D01*
X134600000Y-100457922D01*
X134429466Y-100628457D01*
X102570534Y-100628457D01*
X102400000Y-100457922D01*
X102229466Y-100628457D01*
X97770534Y-100628457D01*
X97600000Y-100457922D01*
X97429466Y-100628457D01*
X94020700Y-100628457D01*
X94020700Y-100020461D01*
X94020862Y-100018402D01*
X96866498Y-100018402D01*
X96877002Y-100125050D01*
X96971543Y-100170534D01*
X97142078Y-100000000D01*
X98057922Y-100000000D01*
X98228457Y-100170534D01*
X98322998Y-100125050D01*
X98330807Y-100018402D01*
X101666498Y-100018402D01*
X101677002Y-100125050D01*
X101771543Y-100170534D01*
X101942078Y-100000000D01*
X102857922Y-100000000D01*
X103028457Y-100170534D01*
X103122998Y-100125050D01*
X103130807Y-100018402D01*
X133866498Y-100018402D01*
X133877002Y-100125050D01*
X133971543Y-100170534D01*
X134142078Y-100000000D01*
X135057922Y-100000000D01*
X135228457Y-100170534D01*
X135322998Y-100125050D01*
X135330807Y-100018402D01*
X138666498Y-100018402D01*
X138677002Y-100125050D01*
X138771543Y-100170534D01*
X138942078Y-100000000D01*
X139857922Y-100000000D01*
X140028457Y-100170534D01*
X140122998Y-100125050D01*
X140133502Y-99981598D01*
X140122998Y-99874950D01*
X140028457Y-99829466D01*
X139857922Y-100000000D01*
X138942078Y-100000000D01*
X138771543Y-99829466D01*
X138677002Y-99874950D01*
X138666498Y-100018402D01*
X135330807Y-100018402D01*
X135333502Y-99981598D01*
X135322998Y-99874950D01*
X135228457Y-99829466D01*
X135057922Y-100000000D01*
X134142078Y-100000000D01*
X133971543Y-99829466D01*
X133877002Y-99874950D01*
X133866498Y-100018402D01*
X103130807Y-100018402D01*
X103133502Y-99981598D01*
X103122998Y-99874950D01*
X103028457Y-99829466D01*
X102857922Y-100000000D01*
X101942078Y-100000000D01*
X101771543Y-99829466D01*
X101677002Y-99874950D01*
X101666498Y-100018402D01*
X98330807Y-100018402D01*
X98333502Y-99981598D01*
X98322998Y-99874950D01*
X98228457Y-99829466D01*
X98057922Y-100000000D01*
X97142078Y-100000000D01*
X96971543Y-99829466D01*
X96877002Y-99874950D01*
X96866498Y-100018402D01*
X94020862Y-100018402D01*
X94071771Y-99371543D01*
X97429466Y-99371543D01*
X97600000Y-99542078D01*
X97770534Y-99371543D01*
X102229466Y-99371543D01*
X102400000Y-99542078D01*
X102570534Y-99371543D01*
X134429466Y-99371543D01*
X134600000Y-99542078D01*
X134770534Y-99371543D01*
X139229466Y-99371543D01*
X139400000Y-99542078D01*
X139570534Y-99371543D01*
X139525050Y-99277002D01*
X139381598Y-99266498D01*
X139274950Y-99277002D01*
X139229466Y-99371543D01*
X134770534Y-99371543D01*
X134725050Y-99277002D01*
X134581598Y-99266498D01*
X134474950Y-99277002D01*
X134429466Y-99371543D01*
X102570534Y-99371543D01*
X102525050Y-99277002D01*
X102381598Y-99266498D01*
X102274950Y-99277002D01*
X102229466Y-99371543D01*
X97770534Y-99371543D01*
X97725050Y-99277002D01*
X97581598Y-99266498D01*
X97474950Y-99277002D01*
X97429466Y-99371543D01*
X94071771Y-99371543D01*
X94095906Y-99064882D01*
X94127951Y-98931401D01*
X98132410Y-98931401D01*
X98177894Y-99025942D01*
X98321346Y-99036446D01*
X98427994Y-99025942D01*
X98473478Y-98931401D01*
X101526522Y-98931401D01*
X101572006Y-99025942D01*
X101715458Y-99036446D01*
X101822106Y-99025942D01*
X101867590Y-98931401D01*
X135132410Y-98931401D01*
X135177894Y-99025942D01*
X135321346Y-99036446D01*
X135427994Y-99025942D01*
X135473478Y-98931401D01*
X138526522Y-98931401D01*
X138572006Y-99025942D01*
X138715458Y-99036446D01*
X138822106Y-99025942D01*
X138867590Y-98931401D01*
X138697056Y-98760866D01*
X138526522Y-98931401D01*
X135473478Y-98931401D01*
X135302944Y-98760866D01*
X135132410Y-98931401D01*
X101867590Y-98931401D01*
X101697056Y-98760866D01*
X101526522Y-98931401D01*
X98473478Y-98931401D01*
X98302944Y-98760866D01*
X98132410Y-98931401D01*
X94127951Y-98931401D01*
X94274413Y-98321346D01*
X97569442Y-98321346D01*
X97579946Y-98427994D01*
X97674487Y-98473478D01*
X97845022Y-98302944D01*
X98760866Y-98302944D01*
X98931401Y-98473478D01*
X99025942Y-98427994D01*
X99036446Y-98284542D01*
X99030923Y-98228457D01*
X99829466Y-98228457D01*
X99874950Y-98322998D01*
X100018402Y-98333502D01*
X100125050Y-98322998D01*
X100125844Y-98321346D01*
X100963554Y-98321346D01*
X100974058Y-98427994D01*
X101068599Y-98473478D01*
X101239134Y-98302944D01*
X102154978Y-98302944D01*
X102325513Y-98473478D01*
X102420054Y-98427994D01*
X102427863Y-98321346D01*
X134569442Y-98321346D01*
X134579946Y-98427994D01*
X134674487Y-98473478D01*
X134845022Y-98302944D01*
X135760866Y-98302944D01*
X135931401Y-98473478D01*
X136025942Y-98427994D01*
X136036446Y-98284542D01*
X136030923Y-98228457D01*
X136829466Y-98228457D01*
X136874950Y-98322998D01*
X137018402Y-98333502D01*
X137125050Y-98322998D01*
X137125844Y-98321346D01*
X137963554Y-98321346D01*
X137974058Y-98427994D01*
X138068599Y-98473478D01*
X138239134Y-98302944D01*
X139154978Y-98302944D01*
X139325513Y-98473478D01*
X139420054Y-98427994D01*
X139430558Y-98284542D01*
X139420054Y-98177894D01*
X139325513Y-98132410D01*
X139154978Y-98302944D01*
X138239134Y-98302944D01*
X138068599Y-98132410D01*
X137974058Y-98177894D01*
X137963554Y-98321346D01*
X137125844Y-98321346D01*
X137170534Y-98228457D01*
X137000000Y-98057922D01*
X136829466Y-98228457D01*
X136030923Y-98228457D01*
X136025942Y-98177894D01*
X135931401Y-98132410D01*
X135760866Y-98302944D01*
X134845022Y-98302944D01*
X134674487Y-98132410D01*
X134579946Y-98177894D01*
X134569442Y-98321346D01*
X102427863Y-98321346D01*
X102430558Y-98284542D01*
X102420054Y-98177894D01*
X102325513Y-98132410D01*
X102154978Y-98302944D01*
X101239134Y-98302944D01*
X101068599Y-98132410D01*
X100974058Y-98177894D01*
X100963554Y-98321346D01*
X100125844Y-98321346D01*
X100170534Y-98228457D01*
X100000000Y-98057922D01*
X99829466Y-98228457D01*
X99030923Y-98228457D01*
X99025942Y-98177894D01*
X98931401Y-98132410D01*
X98760866Y-98302944D01*
X97845022Y-98302944D01*
X97674487Y-98132410D01*
X97579946Y-98177894D01*
X97569442Y-98321346D01*
X94274413Y-98321346D01*
X94314880Y-98152792D01*
X94513000Y-97674487D01*
X98132410Y-97674487D01*
X98302944Y-97845022D01*
X98473478Y-97674487D01*
X98446496Y-97618402D01*
X99266498Y-97618402D01*
X99277002Y-97725050D01*
X99371543Y-97770534D01*
X99542078Y-97600000D01*
X100457922Y-97600000D01*
X100628457Y-97770534D01*
X100722998Y-97725050D01*
X100726700Y-97674487D01*
X101526522Y-97674487D01*
X101697056Y-97845022D01*
X101867590Y-97674487D01*
X135132410Y-97674487D01*
X135302944Y-97845022D01*
X135473478Y-97674487D01*
X135446496Y-97618402D01*
X136266498Y-97618402D01*
X136277002Y-97725050D01*
X136371543Y-97770534D01*
X136542078Y-97600000D01*
X137457922Y-97600000D01*
X137628457Y-97770534D01*
X137722998Y-97725050D01*
X137726700Y-97674487D01*
X138526522Y-97674487D01*
X138697056Y-97845022D01*
X138867590Y-97674487D01*
X138822106Y-97579946D01*
X138678654Y-97569442D01*
X138572006Y-97579946D01*
X138526522Y-97674487D01*
X137726700Y-97674487D01*
X137733502Y-97581598D01*
X137722998Y-97474950D01*
X137628457Y-97429466D01*
X137457922Y-97600000D01*
X136542078Y-97600000D01*
X136371543Y-97429466D01*
X136277002Y-97474950D01*
X136266498Y-97618402D01*
X135446496Y-97618402D01*
X135427994Y-97579946D01*
X135284542Y-97569442D01*
X135177894Y-97579946D01*
X135132410Y-97674487D01*
X101867590Y-97674487D01*
X101822106Y-97579946D01*
X101678654Y-97569442D01*
X101572006Y-97579946D01*
X101526522Y-97674487D01*
X100726700Y-97674487D01*
X100733502Y-97581598D01*
X100722998Y-97474950D01*
X100628457Y-97429466D01*
X100457922Y-97600000D01*
X99542078Y-97600000D01*
X99371543Y-97429466D01*
X99277002Y-97474950D01*
X99266498Y-97618402D01*
X98446496Y-97618402D01*
X98427994Y-97579946D01*
X98284542Y-97569442D01*
X98177894Y-97579946D01*
X98132410Y-97674487D01*
X94513000Y-97674487D01*
X94673840Y-97286186D01*
X94866653Y-96971543D01*
X99829466Y-96971543D01*
X100000000Y-97142078D01*
X100170534Y-96971543D01*
X136829466Y-96971543D01*
X137000000Y-97142078D01*
X137170534Y-96971543D01*
X137125050Y-96877002D01*
X136981598Y-96866498D01*
X136874950Y-96877002D01*
X136829466Y-96971543D01*
X100170534Y-96971543D01*
X100125050Y-96877002D01*
X99981598Y-96866498D01*
X99874950Y-96877002D01*
X99829466Y-96971543D01*
X94866653Y-96971543D01*
X95163951Y-96486397D01*
X95773137Y-95773132D01*
X96366023Y-95266761D01*
X110238660Y-95266761D01*
X110260233Y-95397423D01*
X110306881Y-95521365D01*
X110376814Y-95633825D01*
X110467342Y-95730481D01*
X110574988Y-95807619D01*
X112361166Y-96838869D01*
X112481792Y-96893524D01*
X112610763Y-96923596D01*
X112743122Y-96927929D01*
X112873784Y-96906356D01*
X112997726Y-96859708D01*
X113110186Y-96789775D01*
X113206842Y-96699247D01*
X113283980Y-96591601D01*
X114940230Y-93722891D01*
X114994885Y-93602265D01*
X115024957Y-93473294D01*
X115029290Y-93340935D01*
X115007717Y-93210273D01*
X114961069Y-93086331D01*
X114891136Y-92973871D01*
X114800608Y-92877215D01*
X114692962Y-92800077D01*
X113345175Y-92021932D01*
X113345175Y-91160613D01*
X113794588Y-90711200D01*
X127455413Y-90711200D01*
X127922775Y-91178564D01*
X127922775Y-92122087D01*
X126327720Y-94884805D01*
X126273065Y-95005431D01*
X126242993Y-95134402D01*
X126238660Y-95266761D01*
X126260233Y-95397423D01*
X126306881Y-95521365D01*
X126376814Y-95633825D01*
X126467342Y-95730481D01*
X126574988Y-95807619D01*
X128361166Y-96838869D01*
X128481792Y-96893524D01*
X128610763Y-96923596D01*
X128743122Y-96927929D01*
X128873784Y-96906356D01*
X128997726Y-96859708D01*
X129110186Y-96789775D01*
X129206842Y-96699247D01*
X129283980Y-96591601D01*
X130940230Y-93722891D01*
X130994885Y-93602265D01*
X131024957Y-93473294D01*
X131029290Y-93340935D01*
X131007717Y-93210273D01*
X130961069Y-93086331D01*
X130891136Y-92973871D01*
X130800608Y-92877215D01*
X130692962Y-92800077D01*
X129345175Y-92021932D01*
X129345175Y-90918892D01*
X129348614Y-90883974D01*
X129345175Y-90849056D01*
X129345175Y-90849039D01*
X129334884Y-90744555D01*
X129294217Y-90610494D01*
X129228177Y-90486942D01*
X129220994Y-90478190D01*
X129161572Y-90405783D01*
X129161563Y-90405774D01*
X129139301Y-90378648D01*
X129112175Y-90356386D01*
X128277601Y-89521814D01*
X128255327Y-89494673D01*
X128147033Y-89405798D01*
X128023481Y-89339758D01*
X127889420Y-89299091D01*
X127784936Y-89288800D01*
X127784926Y-89288800D01*
X127750000Y-89285360D01*
X127715074Y-89288800D01*
X113534925Y-89288800D01*
X113499999Y-89285360D01*
X113465073Y-89288800D01*
X113465064Y-89288800D01*
X113360580Y-89299091D01*
X113226519Y-89339758D01*
X113123272Y-89394945D01*
X113102967Y-89405798D01*
X113021808Y-89472403D01*
X113021804Y-89472407D01*
X112994673Y-89494673D01*
X112972407Y-89521804D01*
X112155785Y-90338428D01*
X112128649Y-90360698D01*
X112106379Y-90387834D01*
X112106378Y-90387835D01*
X112039773Y-90468993D01*
X111973734Y-90592544D01*
X111933067Y-90726606D01*
X111919335Y-90866025D01*
X111922776Y-90900961D01*
X111922776Y-92122087D01*
X110327720Y-94884805D01*
X110273065Y-95005431D01*
X110242993Y-95134402D01*
X110238660Y-95266761D01*
X96366023Y-95266761D01*
X96491610Y-95159500D01*
X97022173Y-94814947D01*
X106259769Y-89481620D01*
X106545547Y-89351985D01*
X106834185Y-89284287D01*
X107038740Y-89270700D01*
X142474532Y-89270700D01*
X142592613Y-89282278D01*
M02*
